<?xml version="1.0" encoding="UTF-8" standalone="no"?>
<!-- Created with Inkscape (http://www.inkscape.org/) -->

<svg
   width="48"
   height="48"
   viewBox="0 0 12.7 12.7"
   version="1.1"
   id="svg1"
   inkscape:version="1.3 (0e150ed, 2023-07-21)"
   sodipodi:docname="leaf1.svg"
   xmlns:inkscape="http://www.inkscape.org/namespaces/inkscape"
   xmlns:sodipodi="http://sodipodi.sourceforge.net/DTD/sodipodi-0.dtd"
   xmlns="http://www.w3.org/2000/svg"
   xmlns:svg="http://www.w3.org/2000/svg">
  <sodipodi:namedview
     id="namedview1"
     pagecolor="#505050"
     bordercolor="#ffffff"
     borderopacity="1"
     inkscape:showpageshadow="0"
     inkscape:pageopacity="0"
     inkscape:pagecheckerboard="1"
     inkscape:deskcolor="#505050"
     inkscape:document-units="mm"
     inkscape:zoom="11.474186"
     inkscape:cx="20.785788"
     inkscape:cy="28.890938"
     inkscape:window-width="1920"
     inkscape:window-height="1011"
     inkscape:window-x="0"
     inkscape:window-y="0"
     inkscape:window-maximized="1"
     inkscape:current-layer="layer1" />
  <defs
     id="defs1" />
  <g
     inkscape:label="Layer 1"
     inkscape:groupmode="layer"
     id="layer1">
    <path
       d="m 12.268378,5.7450136 c 0.0085,-0.00983 0.01765,-0.019848 0.02613,-0.029596 -0.674522,0.00255 -1.248,-0.4956604 -1.931101,-0.549491 -0.05676,0.058302 -0.134985,0.042563 -0.175947,-0.00439 -0.0017,8.69e-5 -0.0034,-8.69e-5 -0.0053,0 -0.05159,0.00228 -0.07461,-0.057945 -0.02585,-0.080748 0.0017,-7.615e-4 0.0033,-0.00101 0.005,-0.00178 0.0022,-0.014929 0.0077,-0.030226 0.01756,-0.045517 0.448625,-0.6964029 0.840307,-1.2604689 0.862935,-2.0965555 0.01258,-0.4675803 0.03804,-0.897874 0.136445,-1.3378252 C 10.856979,1.9010934 10.521379,2.1891161 10.192213,2.4844743 9.5770877,3.0363783 9.221101,3.6010703 8.8558504,4.3091057 8.2776896,5.4298158 7.7682869,6.5751181 7.2860977,7.7326526 7.8433861,7.2668781 8.5180055,6.998259 9.226954,6.7409929 10.207622,6.3850109 11.342779,6.2094758 12.268343,5.7450237"
       style="fill:#f36633;fill-opacity:1;fill-rule:nonzero;stroke:none;stroke-width:0.00933878"
       id="path162" />
    <path
       d="m 11.138002,1.4803583 c -1.042016,0.3242392 -2.5463282,0.6564375 -3.0229573,1.5197044 -0.027011,0.049092 -0.122303,0.039616 -0.110504,-0.023522 0.011231,-0.06018 0.027012,-0.116693 0.04623,-0.1703463 -8.306e-4,-0.00126 -0.00221,-0.00153 -0.00294,-0.00287 C 7.7291146,2.3248398 7.3777114,1.8751424 6.9662301,1.4596924 6.754199,1.2456187 5.9674202,0.37099375 5.5667655,0.38557114 6.2748375,2.2293376 6.5993208,4.2863739 6.9152225,6.2016788 6.9844684,6.6213316 7.0537151,7.0404476 7.1305688,7.4582299 7.6257306,6.2310091 8.1901405,5.0252599 8.817944,3.850628 9.3540688,2.8475942 10.195952,2.1571754 11.137999,1.4803507"
       style="fill:#f36633;fill-opacity:1;fill-rule:nonzero;stroke:none;stroke-width:0.00933878"
       id="path164" />
    <path
       d="M 6.1217173,3.3507725 C 5.9091969,2.3779634 5.6065597,1.3976438 5.4573382,0.41168936 5.0552983,0.59509212 4.7032045,1.6094816 4.581516,1.9880003 4.4142302,2.5084277 4.5032271,3.6619578 4.5154577,3.6879771 c 0.02115,0.045161 -0.047361,0.084058 -0.080577,0.044711 C 3.9039436,3.1033442 3.1275516,3.1451044 2.3471125,3.1163121 1.8844192,3.0992277 1.4218697,3.0796492 0.9592841,3.0602432 3.3039442,4.0467351 5.1863201,5.8311272 6.8907447,7.5791961 6.8308594,7.2615927 6.7754643,6.9445953 6.7242602,6.6298332 6.5454879,5.5323724 6.3593995,4.4392024 6.1217173,3.3507725"
       style="fill:#f36633;fill-opacity:1;fill-rule:nonzero;stroke:none;stroke-width:0.00933878"
       id="path166" />
    <path
       d="M 0.56306661,7.7164025 C 1.583029,7.8201051 2.3726082,8.3559331 3.3484384,8.6918956 4.0862081,8.945941 4.906906,9.0660223 5.6484993,8.7441826 6.0796816,8.5570318 6.4303015,8.2589993 6.8482215,8.0523227 4.8390922,7.2270746 2.5813801,6.7940991 0.56306661,7.7164025"
       style="fill:#f36633;fill-opacity:1;fill-rule:nonzero;stroke:none;stroke-width:0.00933878"
       id="path168" />
    <path
       d="M 6.7366461,7.7287977 C 4.9242071,6.0027255 3.116695,4.3645359 0.82796912,3.1768499 1.0628035,3.5174535 1.2015109,3.8942716 1.3527205,4.2890659 c 0.3059629,0.7986152 0.7846635,1.4014908 1.5705823,1.855571 0.095865,0.055351 0.054064,0.1592591 -0.025905,0.1947586 -0.015235,0.012167 -0.035881,0.018428 -0.057564,0.01181 C 2.82601,6.3510193 2.8121777,6.3477131 2.7979253,6.3427956 2.2488599,6.205352 1.443738,6.8441754 0.83898067,7.3691655 2.58104,6.5412182 5.0399877,6.9703485 6.7366461,7.7287977"
       style="fill:#f36633;fill-opacity:1;fill-rule:nonzero;stroke:none;stroke-width:0.00933878"
       id="path170" />
    <path
       d="M 11.968275,6.0731893 C 11.405721,6.3579954 10.701552,6.4647624 10.119784,6.6612215 9.1441848,6.9908245 8.1241148,7.3136343 7.3554754,7.9732733 8.9998399,8.5737611 10.819758,7.2732175 11.968275,6.0731893"
       style="fill:#f36633;fill-opacity:1;fill-rule:nonzero;stroke:none;stroke-width:0.00933878"
       id="path172" />
    <path
       d="m 7.1626585,4.0353792 c -0.1269834,0 -0.2487019,0.1023869 -0.2427525,0.2226562 0.00586,0.1206293 0.106602,0.22257 0.2427525,0.22257 0.1269853,0 0.2487038,-0.102387 0.2428513,-0.22257 C 7.3995726,4.1373172 7.2988106,4.0353792 7.1626585,4.0353792"
       style="fill:#ef5528;fill-opacity:1;fill-rule:nonzero;stroke:none;stroke-width:0.00933878"
       id="path174" />
    <path
       d="m 6.9516994,3.3063307 c -0.00448,-0.00153 -0.009,-0.00331 -0.013463,-0.00485 -0.073829,-0.02638 -0.1654119,0.012346 -0.2103728,0.065724 -0.047106,0.05589 -0.059203,0.1419114 -0.015594,0.2037012 0.091189,0.129927 0.3187279,0.1141001 0.3657376,-0.043817 0.0011,-0.00384 0.00221,-0.00761 0.00331,-0.011457 0.028386,-0.0955 -0.035787,-0.1757985 -0.1296134,-0.2093309"
       style="fill:#ef5528;fill-opacity:1;fill-rule:nonzero;stroke:none;stroke-width:0.00933878"
       id="path176" />
    <path
       d="m 7.3882478,2.9577678 c -0.091876,0 -0.1809185,0.089868 -0.1459077,0.1756235 0.00194,0.00485 0.0039,0.00955 0.00593,0.014398 0.0513,0.1259041 0.2286111,0.126084 0.2799115,0 0.00194,-0.00485 0.00401,-0.00955 0.00593,-0.014398 0.035023,-0.085934 -0.054313,-0.1756235 -0.145895,-0.1756235"
       style="fill:#ef5528;fill-opacity:1;fill-rule:nonzero;stroke:none;stroke-width:0.00933878"
       id="path178" />
    <path
       d="m 6.7635653,2.2046668 c -0.00575,2.546e-4 -0.011612,7.618e-4 -0.017362,0.00126 -0.090216,0.00573 -0.1776998,0.068855 -0.1733099,0.1588131 0.00448,0.091119 0.076171,0.1525495 0.1733099,0.1588991 0.00575,2.545e-4 0.011612,5.029e-4 0.017362,0.00101 0.091188,0.00591 0.1784797,-0.077789 0.1744825,-0.1599648 -0.004,-0.081651 -0.077051,-0.1662439 -0.1744825,-0.1599831"
       style="fill:#ef5528;fill-opacity:1;fill-rule:nonzero;stroke:none;stroke-width:0.00933878"
       id="path180" />
    <path
       d="m 5.4025264,3.6226107 c -0.093532,-0.050255 -0.2095819,-0.017261 -0.2668821,0.064117 -0.065179,0.092729 -0.00402,0.2402726 0.1165881,0.2628067 0.080952,0.01503 0.1540983,-0.00357 0.205106,-0.064115 0.07071,-0.083878 0.046134,-0.20871 -0.054812,-0.2628094"
       style="fill:#ef5528;fill-opacity:1;fill-rule:nonzero;stroke:none;stroke-width:0.00933878"
       id="path182" />
    <path
       d="m 4.8199277,4.2853981 c -0.2072514,0 -0.2075914,0.295267 0,0.295267 0.2072542,0 0.207633,-0.295267 0,-0.295267"
       style="fill:#ef5528;fill-opacity:1;fill-rule:nonzero;stroke:none;stroke-width:0.00933878"
       id="path184" />
    <path
       d="m 5.4446593,4.6535446 c -0.20413,0 -0.2044727,0.2908844 0,0.2908844 0.204133,0 0.2044234,-0.2908844 0,-0.2908844"
       style="fill:#ef5528;fill-opacity:1;fill-rule:nonzero;stroke:none;stroke-width:0.00933878"
       id="path186" />
    <path
       d="m 2.268981,4.6526498 c -0.2277153,0 -0.2280941,0.3244194 0,0.3244194 0.2276655,0 0.2280166,-0.3244194 0,-0.3244194"
       style="fill:#ef5528;fill-opacity:1;fill-rule:nonzero;stroke:none;stroke-width:0.00933878"
       id="path188" />
    <path
       d="M 3.1192801,5.0216884 C 3.1136416,4.947113 3.0514689,4.8748598 2.9631247,4.8785277 2.8736304,4.8822068 2.812977,4.9414786 2.8069196,5.0216884 l -0.0011,0.015919 c -0.00572,0.075471 0.076426,0.1476349 0.1573855,0.1443245 0.080384,-0.00328 0.1633932,-0.063667 0.1573357,-0.1443245 -2.789e-4,-0.00527 -8.293e-4,-0.010544 -0.0011,-0.015919"
       style="fill:#ef5528;fill-opacity:1;fill-rule:nonzero;stroke:none;stroke-width:0.00933878"
       id="path190" />
    <path
       d="m 3.1192801,5.4981251 c -0.2245445,0 -0.2249232,0.3199455 0,0.3199455 0.2245553,0 0.224934,-0.3199455 0,-0.3199455"
       style="fill:#ef5528;fill-opacity:1;fill-rule:nonzero;stroke:none;stroke-width:0.00933878"
       id="path192" />
    <path
       d="m 4.056372,5.8864787 c -0.1931487,0 -0.1934613,0.2751483 0,0.2751483 0.1931214,0 0.1934614,-0.2751483 0,-0.2751483"
       style="fill:#ef5528;fill-opacity:1;fill-rule:nonzero;stroke:none;stroke-width:0.00933878"
       id="path194" />
    <path
       d="m 3.1761984,7.8095629 c -0.085873,0 -0.1682009,0.069193 -0.1642004,0.1504764 0.00394,0.081667 0.072124,0.150621 0.1642004,0.150621 0.085917,0 0.1682008,-0.069237 0.164242,-0.150621 -0.00402,-0.081524 -0.072192,-0.1504764 -0.164242,-0.1504764"
       style="fill:#ef5528;fill-opacity:1;fill-rule:nonzero;stroke:none;stroke-width:0.00933878"
       id="path196" />
    <path
       d="m 4.2482356,7.6871287 -0.00323,-0.017263 C 4.2259241,7.5686336 4.0825554,7.5292004 3.9945816,7.5764226 c -0.094974,0.050968 -0.111086,0.1733964 -0.034479,0.2455576 0.00429,0.00392 0.00857,0.00797 0.012856,0.012065 0.049027,0.04614 0.1392051,0.059313 0.1996237,0.023623 0.065796,-0.03888 0.088734,-0.1015826 0.075666,-0.1705332"
       style="fill:#ef5528;fill-opacity:1;fill-rule:nonzero;stroke:none;stroke-width:0.00933878"
       id="path198" />
    <path
       d="m 4.1884585,8.2735665 c -0.00316,-0.00228 -0.00627,-0.00474 -0.00948,-0.00715 -0.066447,-0.050442 -0.143554,-0.050899 -0.2104915,0 -0.0032,0.00228 -0.00632,0.00481 -0.00954,0.00715 -0.1091188,0.082895 -0.019242,0.259573 0.1147542,0.2540444 0.055622,-0.00226 0.1122657,-0.027619 0.1401203,-0.073701 0.032266,-0.053263 0.030099,-0.1381441 -0.02538,-0.1803432"
       style="fill:#ef5528;fill-opacity:1;fill-rule:nonzero;stroke:none;stroke-width:0.00933878"
       id="path200" />
    <path
       d="m 5.0726023,8.1196655 c -0.00522,-0.00177 -0.010475,-0.00353 -0.015703,-0.00535 -0.1073625,-0.03685 -0.219366,0.056933 -0.219366,0.153168 0,0.09637 0.1122002,0.1899127 0.219366,0.1531684 0.00522,-0.00176 0.010475,-0.0036 0.015703,-0.00547 0.1580657,-0.054103 0.1582896,-0.2412566 0,-0.2955436"
       style="fill:#ef5528;fill-opacity:1;fill-rule:nonzero;stroke:none;stroke-width:0.00933878"
       id="path202" />
    <path
       d="M 9.5529347,5.8112749 C 9.4395071,5.7694259 9.3241279,5.8428402 9.2710711,5.9301147 9.2069948,6.0352744 9.2878526,6.1654727 9.4196096,6.1675282 9.5273808,6.1690536 9.6555365,6.1155751 9.6731913,6.0053187 9.6878165,5.913127 9.6486138,5.8465081 9.5529347,5.8112749"
       style="fill:#ef5528;fill-opacity:1;fill-rule:nonzero;stroke:none;stroke-width:0.00933878"
       id="path204" />
    <path
       d="m 8.585628,6.1764705 c -0.1043567,0 -0.1876472,0.09586 -0.1576096,0.1897504 0.00167,0.00491 0.00311,0.00983 0.00467,0.014676 0.044179,0.1382438 0.2616733,0.1384237 0.3058552,0 l 0.00478,-0.014676 C 8.7733722,6.2723302 8.690179,6.1764705 8.5856257,6.1764705"
       style="fill:#ef5528;fill-opacity:1;fill-rule:nonzero;stroke:none;stroke-width:0.00933878"
       id="path206" />
    <path
       d="M 9.3844024,4.969736 C 9.2781935,4.928602 9.1861222,4.985299 9.1456477,5.0748958 c -0.010718,0.023598 -0.014238,0.049182 -0.012773,0.074844 0.00586,0.1079328 0.1392714,0.19923 0.2496779,0.1313593 0.03716,-0.022787 0.063493,-0.045872 0.086412,-0.081282 0.054518,-0.083697 0.011312,-0.1930603 -0.084558,-0.2300805"
       style="fill:#ef5528;fill-opacity:1;fill-rule:nonzero;stroke:none;stroke-width:0.00933878"
       id="path208" />
    <path
       d="M 9.2691226,4.4251624 C 9.2170401,4.437151 9.1716868,4.4677268 9.1475,4.5119912 9.0685997,4.6561381 9.2270862,4.8017145 9.3845982,4.7292837 9.4330716,4.7070286 9.4662305,4.665527 9.4792019,4.617777 9.5110958,4.5007236 9.3968876,4.395924 9.2691236,4.4251624"
       style="fill:#ef5528;fill-opacity:1;fill-rule:nonzero;stroke:none;stroke-width:0.00933878"
       id="path210" />
    <path
       d="m 10.008695,3.3020393 c -0.1806258,0 -0.1809187,0.2572631 0,0.2572631 0.180528,0 0.180821,-0.2572631 0,-0.2572631"
       style="fill:#ef5528;fill-opacity:1;fill-rule:nonzero;stroke:none;stroke-width:0.00933878"
       id="path212" />
    <path
       d="M 10.119784,6.6612215 C 10.701552,6.4647624 11.405721,6.3579954 11.968275,6.0731893 10.819758,7.2732175 8.9998399,8.5737611 7.3554754,7.9732733 8.1241148,7.3136343 9.1441848,6.9908245 10.119784,6.6612215 Z M 8.8558856,4.3090956 C 9.2211368,3.6010601 9.5771229,3.0363682 10.192248,2.484464 c 0.329167,-0.2953583 0.664766,-0.5833808 0.986031,-0.8853572 -0.0984,0.4399513 -0.12386,0.8702451 -0.136444,1.3378252 -0.02264,0.8360865 -0.414309,1.4001525 -0.86295,2.0965608 -0.0098,0.015284 -0.0152,0.030582 -0.01755,0.045517 -0.0017,7.617e-4 -0.0033,0.00101 -0.005,0.00178 -0.04876,0.022812 -0.02574,0.083072 0.02585,0.080746 0.0019,-8.69e-5 0.0035,8.7e-5 0.0053,0 0.04096,0.046947 0.119183,0.062686 0.175947,0.00439 0.6831,0.053831 1.256578,0.551904 1.931102,0.5494909 -0.0084,0.00976 -0.01756,0.019771 -0.02613,0.029596 C 11.342844,6.2094554 10.207686,6.3849903 9.2270182,6.7409724 8.5180698,6.9982386 7.8434505,7.2668575 7.2861619,7.732633 7.7683512,6.5750975 8.2777539,5.4297955 8.8559147,4.3090855 Z M 7.1305719,7.4582374 C 7.0537174,7.040455 6.9844712,6.6213397 6.9152257,6.2016869 6.5993237,4.2863816 6.2748399,2.2293452 5.5667683,0.38557877 5.967423,0.37100361 6.7542014,1.2456263 6.9662331,1.4596998 c 0.4114814,0.4154503 0.7628839,0.8651477 1.081611,1.3436373 8.245e-4,0.00126 0.00194,0.00153 0.00294,0.00286 -0.019214,0.053654 -0.035013,0.1101661 -0.046229,0.1703463 -0.011802,0.063135 0.083487,0.07261 0.1105041,0.023522 C 8.5916817,2.1368034 10.095993,1.8046051 11.138009,1.4803658 10.19596,2.1571904 9.3540762,2.8476091 8.8179512,3.8506428 8.1901483,5.0252749 7.6257379,6.2310238 7.1305766,7.4582447 Z M 0.9592841,3.0602432 c 0.4625856,0.019416 0.9251351,0.03899 1.3878284,0.056069 0.7804391,0.028791 1.5568311,-0.012978 2.0877669,0.6163758 0.033217,0.039346 0.1017229,5.028e-4 0.080577,-0.04471 C 4.5032379,3.6619578 4.4142302,2.5084277 4.581516,1.9880003 4.7032045,1.6094816 5.0552983,0.59509212 5.4573382,0.41168936 5.6065597,1.3976438 5.9091969,2.3779634 6.1217173,3.3507725 6.3593995,4.4392024 6.5454879,5.5323724 6.7242602,6.6298332 6.7754643,6.9445953 6.8308594,7.2615927 6.8907447,7.5791961 5.1863201,5.8311272 3.3039442,4.0467351 0.9592841,3.0602432 Z M 5.6484993,8.7441807 C 4.906906,9.0660223 4.0862081,8.945941 3.3484384,8.6918956 2.3726082,8.3559331 1.583029,7.8201051 0.56306661,7.7164025 2.5813801,6.7940991 4.8390922,7.2270746 6.8482215,8.0523227 6.4303015,8.2589993 6.0796816,8.5570318 5.6484993,8.7441807 Z M 2.7979262,6.3427919 c 0.014238,0.00491 0.028081,0.00824 0.041908,0.00841 0.021676,0.00661 0.04233,2.484e-4 0.057564,-0.01181 0.079969,-0.035501 0.1217691,-0.1394085 0.025905,-0.19476 C 2.137384,5.6905567 1.6586834,5.0876811 1.3527205,4.2890659 1.2015109,3.8942716 1.0628035,3.5174535 0.82796912,3.1768499 3.116695,4.3645359 4.9242071,6.0027255 6.7366461,7.7287977 5.0399877,6.9703485 2.58104,6.5412182 0.83898067,7.3691655 1.443738,6.8441754 2.2488599,6.205352 2.7979262,6.3427919 Z M 12.671374,5.6364574 C 12.730866,5.563223 12.658412,5.4340995 12.552583,5.4592266 11.832223,5.6294843 11.191837,4.9548925 10.508733,4.9938795 10.822976,4.602753 11.102501,4.158153 11.227338,3.6886946 11.438783,2.8932961 11.250754,2.1006704 11.540215,1.3009781 11.578448,1.1952835 11.466873,1.1001386 11.354713,1.1401118 10.533117,1.4327858 9.6655826,1.6820899 8.8759763,2.0424571 8.5741189,2.1802544 8.32571,2.3464866 8.1675146,2.5807698 7.4676372,1.5624464 6.597178,0.7570331 5.5375099,0.04631585 5.4905967,0.01492797 5.4115004,0.02172871 5.379121,0.06948359 4.6969537,1.0755565 3.9869215,2.2205016 4.343942,3.425893 4.0946623,3.1416242 3.7172693,3.0092817 3.2934303,2.94919 2.3751128,2.8189058 1.4017209,2.8472521 0.47438241,2.8074588 0.37257998,2.8031755 0.28469474,2.9177159 0.36252497,2.9964052 0.93159343,3.5713808 1.0175379,4.3236782 1.390173,4.9940672 1.6500052,5.4614698 2.0176446,5.8366782 2.4655637,6.1412455 2.333516,6.1458126 2.1999782,6.1858669 2.0518183,6.2569572 1.3315377,6.6026585 0.69088989,7.247023 0.06848864,7.7207753 -0.00691138,7.7780933 0.01964574,7.9243143 0.1336679,7.9224992 1.6123949,7.8992552 2.6696938,8.9009507 4.0791169,9.1263895 4.561511,9.2036145 5.0710014,9.1962115 5.535948,9.0426665 6.0845579,8.86159 6.5065726,8.4760348 7.0234835,8.2395974 c 0.3226303,1.5040478 0.7924352,3.0001686 1.6098374,4.3253746 0.06164,0.09988 0.2280248,0.03738 0.1806251,-0.07289 C 8.3723297,11.466531 7.8966732,10.471439 7.5802851,9.4034947 7.4627596,9.0068966 7.364646,8.6073008 7.2783307,8.2055336 9.3001361,8.9889404 11.573474,6.9886876 12.671374,5.636465"
       style="fill:#6f3718;fill-opacity:1;fill-rule:nonzero;stroke:none;stroke-width:0.00933878"
       id="path214" />
  </g>
</svg>
