<?xml version="1.0" encoding="UTF-8" standalone="no"?>
<!-- Created with Inkscape (http://www.inkscape.org/) -->

<svg
   width="48"
   height="48"
   viewBox="0 0 48 48"
   version="1.1"
   id="svg1"
   inkscape:version="1.3 (0e150ed, 2023-07-21)"
   sodipodi:docname="leaf10.svg"
   xmlns:inkscape="http://www.inkscape.org/namespaces/inkscape"
   xmlns:sodipodi="http://sodipodi.sourceforge.net/DTD/sodipodi-0.dtd"
   xmlns="http://www.w3.org/2000/svg"
   xmlns:svg="http://www.w3.org/2000/svg">
  <sodipodi:namedview
     id="namedview1"
     pagecolor="#505050"
     bordercolor="#ffffff"
     borderopacity="1"
     inkscape:showpageshadow="0"
     inkscape:pageopacity="0"
     inkscape:pagecheckerboard="1"
     inkscape:deskcolor="#505050"
     inkscape:document-units="px"
     inkscape:zoom="11.85877"
     inkscape:cx="26.183154"
     inkscape:cy="30.568094"
     inkscape:window-width="1920"
     inkscape:window-height="1011"
     inkscape:window-x="0"
     inkscape:window-y="0"
     inkscape:window-maximized="1"
     inkscape:current-layer="layer1" />
  <defs
     id="defs1" />
  <g
     inkscape:label="Layer 1"
     inkscape:groupmode="layer"
     id="layer1">
    <path
       d="m 12.577332,19.099536 c 2.882143,1.162872 5.893967,2.491244 8.511218,4.333698 -1.121895,-1.661013 -2.258868,-3.311579 -3.702452,-4.661943 -1.615488,-1.512011 -8.0090798,-5.431145 -7.7763571,-0.0077 0.1970352,4.600912 7.0440091,5.47293 11.3415891,5.90399 -2.886667,-1.619801 -5.657224,-3.513939 -8.56852,-5.095777 -0.274944,-0.149552 -0.08997,-0.58721 0.194522,-0.472297"
       style="fill:#f36633;fill-opacity:1;fill-rule:nonzero;stroke:none;stroke-width:0.0525701"
       id="path358" />
    <path
       d="m 14.844746,33.928241 c 3.12341,2.596262 7.376756,3.414947 10.082975,6.532989 -1.105811,-2.722169 -2.746932,-5.120495 -4.927389,-6.978344 -1.190252,-1.013324 -2.530293,-1.862798 -3.946233,-2.440113 -2.434289,-0.993528 -6.3543853,-0.715868 -5.445108,3.329175 0.634835,2.822787 5.208364,5.182625 7.393344,6.148112 2.215641,0.978684 4.48808,1.337169 6.812794,1.644518 -2.549897,-3.887792 -7.445116,-4.334798 -10.301624,-7.890498 -0.179946,-0.223777 0.132194,-0.510785 0.331241,-0.345839"
       style="fill:#f36633;fill-opacity:1;fill-rule:nonzero;stroke:none;stroke-width:0.0525701"
       id="path360" />
    <path
       d="m 12.392361,2.9089194 c -2.5257706,4.1093713 1.733608,7.5182696 4.81731,10.1194786 -1.011816,-2.268567 -2.020617,-4.5442813 -2.932407,-6.8903728 -0.127671,-0.328244 0.284997,-0.5223312 0.47399,-0.2815088 1.341549,1.7055487 2.520241,3.6315765 3.567745,5.6796636 0.162353,-1.398197 0.235235,-2.8084916 0.06183,-4.2105389 C 18.058128,4.712886 15.063897,-1.4385254 12.392361,2.9089194"
       style="fill:#f36633;fill-opacity:1;fill-rule:nonzero;stroke:none;stroke-width:0.0525701"
       id="path362" />
    <path
       d="m 28.40499,15.522941 c 0.190501,-0.205634 0.514201,0.05938 0.332246,0.292506 -1.740143,2.22788 -3.293303,4.553627 -4.806755,6.948653 3.257615,-2.003552 7.81707,-4.766408 7.196309,-9.015986 -0.666502,-4.562974 -4.168904,-1.993654 -5.34458,-0.669683 -0.877612,0.988031 -1.495356,2.155854 -1.90903,3.452884 -0.555921,1.742388 -0.733353,3.617281 -0.748432,5.481179 1.392818,-2.458256 3.418963,-4.481601 5.280242,-6.489553"
       style="fill:#f36633;fill-opacity:1;fill-rule:nonzero;stroke:none;stroke-width:0.0525701"
       id="path364" />
    <path
       d="m 28.989058,33.548314 c -0.903748,1.890838 -1.541599,3.89934 -2.020615,5.957324 3.001771,-2.884917 5.592381,-6.168456 8.565502,-9.070967 0.1332,-0.129208 0.346319,0.07038 0.266903,0.236423 -1.972364,4.120368 -5.586351,7.690364 -8.906797,10.571984 0.003,0.03409 0.0065,0.06762 0.01005,0.101719 2.866561,-0.354636 5.628069,-1.370708 7.870853,-3.444637 2.095509,-1.937574 5.460188,-7.077312 3.286768,-10.138173 -3.244044,-4.568473 -7.831144,3.189519 -9.072667,5.786329"
       style="fill:#f36633;fill-opacity:1;fill-rule:nonzero;stroke:none;stroke-width:0.0525701"
       id="path366" />
    <path
       d="m 34.774957,37.900158 c -2.242784,2.073929 -5.004291,3.090001 -7.870852,3.444637 -0.0035,-0.03409 -0.0071,-0.06762 -0.01005,-0.101719 3.320445,-2.88162 6.934433,-6.451616 8.906796,-10.571984 0.07942,-0.166046 -0.133703,-0.365631 -0.266902,-0.236423 -2.973122,2.902511 -5.563732,6.18605 -8.565503,9.070967 0.479016,-2.057985 1.116867,-4.066486 2.020616,-5.957324 1.241522,-2.596811 5.828623,-10.354802 9.072668,-5.786329 2.173419,3.060861 -1.191259,8.200599 -3.28677,10.138172 z M 14.513505,34.27408 c 2.856508,3.5557 7.751727,4.002706 10.301624,7.890498 -2.324714,-0.307349 -4.597153,-0.665834 -6.812794,-1.644518 -2.18498,-0.965487 -6.758509,-3.325325 -7.393344,-6.148112 -0.9092773,-4.045043 3.010819,-4.322703 5.445108,-3.329175 1.41594,0.577315 2.755981,1.426789 3.946233,2.440113 2.180457,1.857849 3.821578,4.256175 4.927389,6.978344 -2.706219,-3.118042 -6.959565,-3.936727 -10.082975,-6.532989 -0.199047,-0.164946 -0.511187,0.122062 -0.331241,0.345839 z M 23.87318,16.531315 c 0.413674,-1.29703 1.031418,-2.464853 1.90903,-3.452884 1.175676,-1.323971 4.678078,-3.893291 5.34458,0.669683 0.620761,4.249578 -3.938694,7.012434 -7.196309,9.015986 1.513452,-2.395026 3.066612,-4.720773 4.806755,-6.948653 0.181955,-0.233125 -0.141745,-0.49814 -0.332246,-0.292506 -1.861279,2.007952 -3.887424,4.031297 -5.280242,6.489553 0.01508,-1.863898 0.192511,-3.738791 0.748432,-5.481179 z m -11.49037,3.040518 c 2.911296,1.581838 5.681853,3.475976 8.56852,5.095751 -4.29758,-0.43106 -11.1445539,-1.303078 -11.3415891,-5.90399 -0.2327227,-5.423448 6.1608691,-1.504314 7.7763571,0.0077 1.443584,1.350364 2.580557,3.000931 3.702452,4.661943 -2.617251,-1.842428 -5.629075,-3.1708 -8.511218,-4.333672 -0.284494,-0.114913 -0.469466,0.322745 -0.194522,0.472297 z M 18.318999,11.53618 C 17.271495,9.4880929 16.092803,7.5620651 14.751254,5.8565164 14.562261,5.615694 14.149593,5.8097812 14.277264,6.1380252 c 0.91179,2.3460915 1.920591,4.6218058 2.932407,6.8903728 -3.083702,-2.601209 -7.3430806,-6.0101073 -4.81731,-10.1194786 2.671536,-4.3474448 5.665767,1.8039666 5.988462,4.4167217 0.173411,1.4020473 0.100529,2.8123419 -0.06183,4.2105389 z M 38.4754,26.317052 c -2.871588,-2.801894 -6.531316,0.301303 -8.33831,2.892066 -1.795433,2.572617 -3.057564,5.520765 -3.688378,8.642106 -0.64338,-4.02525 -1.654191,-8.018609 -2.723309,-11.740905 -0.127168,-0.442607 -0.257854,-0.889063 -0.390552,-1.338817 2.996746,-2.026646 6.554437,-3.7124 8.211644,-7.321434 0.973113,-2.117914 1.38176,-5.78358 -0.954011,-7.103152 -2.475507,-1.3987489 -5.330508,1.110089 -6.592639,3.246699 -1.361654,2.303755 -1.704957,4.894518 -1.80046,7.530916 C 21.35696,18.55906 20.394403,15.972146 19.267984,13.507842 19.903323,10.183067 20.05311,6.4959597 18.553229,3.4131062 17.468028,1.1819275 15.233287,-0.86506069 12.903546,0.61176186 10.513992,2.1259723 10.149577,4.8728842 11.070415,7.470245 c 1.235994,3.484773 3.87888,5.5686 6.857027,7.169131 0.800706,1.801769 1.588847,3.610134 2.321195,5.452588 -1.362156,-1.758331 -2.933914,-3.30883 -4.810273,-4.3315 -2.18699,-1.194213 -5.8251046,-2.180045 -6.9681098,1.039714 -1.0314189,2.905261 1.0128213,5.659321 3.2701808,6.892572 3.108331,1.697851 6.950016,2.183894 10.41874,1.838056 0.01206,0.04179 0.02563,0.08248 0.0382,0.123711 1.032927,3.497419 1.870327,7.070164 2.490083,10.683046 0.06132,0.357383 0.114603,0.715868 0.168385,1.074353 -1.444589,-2.546777 -3.417957,-4.696032 -5.847723,-6.24983 -2.639367,-1.687954 -7.571781,-3.607934 -9.5074514,0.286457 -1.7858827,3.592538 2.5202414,7.032226 4.8514894,8.59812 3.231981,2.170149 7.336043,3.611234 11.160637,3.006978 0.152301,1.472974 0.31214,2.944849 0.533303,4.409576 0.09349,0.618549 1.052027,0.758204 1.079169,0.04233 0.06082,-1.568643 0.01759,-3.163677 -0.100528,-4.768059 3.918588,-0.502537 7.665775,-2.242175 10.221201,-5.664268 1.975882,-2.646295 4.119644,-7.936685 1.22946,-10.756173"
       style="fill:#6f3718;fill-opacity:1;fill-rule:nonzero;stroke:none;stroke-width:0.0525701"
       id="path368" />
  </g>
</svg>
