<?xml version="1.0" encoding="UTF-8" standalone="no"?>
<!-- Created with Inkscape (http://www.inkscape.org/) -->

<svg
   width="48"
   height="48"
   viewBox="0 0 48 48"
   version="1.1"
   id="svg1"
   inkscape:version="1.3 (0e150ed, 2023-07-21)"
   sodipodi:docname="leaf2.svg"
   xmlns:inkscape="http://www.inkscape.org/namespaces/inkscape"
   xmlns:sodipodi="http://sodipodi.sourceforge.net/DTD/sodipodi-0.dtd"
   xmlns="http://www.w3.org/2000/svg"
   xmlns:svg="http://www.w3.org/2000/svg">
  <sodipodi:namedview
     id="namedview1"
     pagecolor="#505050"
     bordercolor="#ffffff"
     borderopacity="1"
     inkscape:showpageshadow="0"
     inkscape:pageopacity="0"
     inkscape:pagecheckerboard="1"
     inkscape:deskcolor="#505050"
     inkscape:document-units="px"
     inkscape:zoom="11.85877"
     inkscape:cx="19.015463"
     inkscape:cy="44.22887"
     inkscape:window-width="1920"
     inkscape:window-height="1011"
     inkscape:window-x="0"
     inkscape:window-y="0"
     inkscape:window-maximized="1"
     inkscape:current-layer="layer1" />
  <defs
     id="defs1" />
  <g
     inkscape:label="Layer 1"
     inkscape:groupmode="layer"
     id="layer1">
    <path
       d="M 11.937694,13.896337 C 6.13409,17.43768 1.8706375,23.886047 2.4693773,29.791395 3.1397669,36.394055 10.413742,39.465543 17.975561,39.031168 11.187555,34.455432 5.6400205,27.013553 8.0324884,19.905366 c 0.044235,-0.131198 0.3040428,-0.104171 0.3003046,0.03243 -0.1227386,4.167452 0.5937557,7.468511 3.375623,11.0471 2.037336,2.620406 4.563757,4.817001 7.107623,7.095361 0.629892,-1.154143 1.223648,-2.321749 1.805566,-3.497609 -1.563827,-4.028689 -2.610531,-8.412297 -3.667205,-12.526582 -0.823034,-3.209123 -0.581295,-6.364736 1.075365,-9.369987 0.188157,-0.340523 0.776305,-0.07616 0.705902,0.234387 -1.503392,6.618824 0.767584,13.466582 2.690903,20.025509 0.963841,-1.967025 1.935158,-3.943287 3.044167,-5.896504 0.586902,-1.033805 1.196233,-2.052082 1.813665,-3.062251 -1.082841,-4.353585 -1.039851,-10.312985 1.244831,-14.426288 0.15576,-0.2795924 0.680358,-0.071249 0.59874,0.1994983 C 26.928001,13.756787 26.809624,18.24157 27.255095,22.414819 30.67807,16.91633 34.200107,11.583925 35.865488,5.4294494 35.908481,5.270735 36.200683,5.317907 36.208783,5.4663022 36.56516,11.759347 32.588929,17.360534 28.960352,22.852046 c 2.346363,-0.739373 4.473417,-1.788508 6.345648,-3.170748 1.948241,-1.438746 3.042297,-3.506453 4.978701,-4.865597 0.05046,-0.03538 0.136445,-0.01278 0.136445,0.04472 -0.0025,2.134043 -2.604301,4.370292 -4.477778,5.75204 -2.257269,1.663748 -4.955025,2.84747 -7.875829,3.606597 -0.5165,0.799074 -1.018668,1.596969 -1.488441,2.396044 -1.264767,2.14726 -2.307733,4.416432 -3.346962,6.696905 3.580603,-1.366466 6.53069,-3.419481 9.774228,-5.254621 2.206803,-1.248634 5.052219,-2.165539 6.802959,-3.79838 1.272867,-1.188145 1.965685,-2.603356 2.80118,-4.000876 0.131461,-0.22107 0.54329,-0.05793 0.479117,0.159304 -1.195611,4.041562 -3.667205,5.379626 -7.882684,7.544528 -4.272797,2.193941 -7.839693,4.98343 -12.543633,6.59519 -0.594379,1.296395 -1.203712,2.588172 -1.861641,3.858819 8.044052,-1.349759 17.479347,-2.558591 22.633122,-8.1073 0.236753,-0.254532 0.719609,-0.0401 0.540797,0.249718 -1.93142,3.128095 -5.665912,4.813954 -9.62906,6.100325 -4.138846,1.343421 -9.005399,2.942897 -13.567911,2.770916 2.241694,6.303411 12.092555,6.451217 17.701149,2.586648 4.479646,-3.086279 6.372437,-7.92097 7.245314,-12.412239 C 47.655869,19.668523 40.933283,11.982431 38.454213,2.7293422 30.681185,7.8819038 19.951839,9.0061704 11.937694,13.896337"
       style="fill:#fbcb1c;fill-opacity:1;fill-rule:nonzero;stroke:none;stroke-width:0.0553303"
       id="path216" />
    <path
       d="m 32.446253,40.393161 c -0.413074,-0.421108 -1.217417,-0.471572 -1.699649,-0.09076 -0.447965,0.352758 -0.417436,0.91155 0,1.270057 0.462917,0.397523 1.48844,0.336101 1.788744,-0.18176 0.20311,-0.351234 0.218687,-0.683502 -0.08909,-0.997541"
       style="fill:#eeb50d;fill-opacity:1;fill-rule:nonzero;stroke:none;stroke-width:0.0553303"
       id="path218" />
    <path
       d="m 35.082329,37.724011 c -0.664781,0 -1.301528,0.461057 -1.270375,1.001963 0.03053,0.543019 0.557619,1.001914 1.270375,1.001914 0.664159,0 1.300905,-0.460467 1.270376,-1.001914 -0.03115,-0.543019 -0.558243,-1.001963 -1.270376,-1.001963"
       style="fill:#eeb50d;fill-opacity:1;fill-rule:nonzero;stroke:none;stroke-width:0.0553303"
       id="path220" />
    <path
       d="m 38.404994,37.796391 c -1.249816,0 -1.251685,1.532059 0,1.532059 1.249814,0 1.251684,-1.532059 0,-1.532059"
       style="fill:#eeb50d;fill-opacity:1;fill-rule:nonzero;stroke:none;stroke-width:0.0553303"
       id="path222" />
    <path
       d="m 12.085354,18.923107 c -0.910883,-0.163628 -1.642329,0.570978 -1.198726,1.229912 0.01122,0.0167 0.02181,0.03292 0.03302,0.04963 0.269776,0.400373 0.872254,0.437226 1.342025,0.277185 0.02555,-0.0085 0.05172,-0.0173 0.07726,-0.02649 0.383169,-0.129771 0.557619,-0.535204 0.507153,-0.83396 -0.05358,-0.313989 -0.351393,-0.622081 -0.76073,-0.696279"
       style="fill:#eeb50d;fill-opacity:1;fill-rule:nonzero;stroke:none;stroke-width:0.0553303"
       id="path224" />
    <path
       d="m 10.368259,21.660068 c -0.9862692,0 -0.9881383,1.209275 0,1.209275 0.986894,0 0.98814,-1.209275 0,-1.209275"
       style="fill:#eeb50d;fill-opacity:1;fill-rule:nonzero;stroke:none;stroke-width:0.0553303"
       id="path226" />
    <path
       d="m 13.269127,25.034244 c -0.0075,-0.02589 -0.01433,-0.05144 -0.02119,-0.07754 -0.171336,-0.625521 -1.434235,-0.625915 -1.60557,0 -0.0069,0.0261 -0.01371,0.05164 -0.02119,0.07754 -0.115886,0.424597 0.249214,0.852634 0.824279,0.852634 0.571327,0 0.939543,-0.428037 0.823657,-0.852634"
       style="fill:#eeb50d;fill-opacity:1;fill-rule:nonzero;stroke:none;stroke-width:0.0553303"
       id="path228" />
    <path
       d="m 14.003066,27.836262 c -0.798735,0 -0.800604,0.978721 0,0.978721 0.798113,0 0.799359,-0.978721 0,-0.978721"
       style="fill:#eeb50d;fill-opacity:1;fill-rule:nonzero;stroke:none;stroke-width:0.0553303"
       id="path230" />
    <path
       d="m 32.694846,8.8332063 c -0.201242,-0.1459388 -0.449211,-0.2373345 -0.72771,-0.2373345 -0.264169,0 -0.54142,0.089922 -0.727709,0.2373345 -0.285351,0.2250493 -0.318372,0.4928495 -0.265414,0.7896399 0.005,0.026533 0.0093,0.053069 0.01433,0.079603 0.05857,0.3292218 0.577558,0.6014428 0.978794,0.5871928 0.406221,-0.01425 0.915244,-0.234877 0.978171,-0.5871928 0.005,-0.026533 0.0093,-0.053069 0.01433,-0.079603 0.05109,-0.2869631 0.02804,-0.5773658 -0.264792,-0.7896399"
       style="fill:#eeb50d;fill-opacity:1;fill-rule:nonzero;stroke:none;stroke-width:0.0553303"
       id="path232" />
    <path
       d="m 30.825106,11.693502 c -1.080971,0 -1.08284,1.324748 0,1.324748 1.08035,0 1.082218,-1.324748 0,-1.324748"
       style="fill:#eeb50d;fill-opacity:1;fill-rule:nonzero;stroke:none;stroke-width:0.0553303"
       id="path234" />
    <path
       d="m 21.218476,12.272834 c -0.335818,0.138076 -0.510269,0.447642 -0.475379,0.738045 0.04361,0.356247 0.355132,0.662374 0.839856,0.662374 0.490332,0 0.796243,-0.305144 0.839857,-0.662374 0.06168,-0.509556 -0.563228,-1.001914 -1.204334,-0.738045"
       style="fill:#eeb50d;fill-opacity:1;fill-rule:nonzero;stroke:none;stroke-width:0.0553303"
       id="path236" />
    <path
       d="m 21.375482,18.145751 c -1.109009,0 -1.110878,1.359144 0,1.359144 1.108385,0 1.110255,-1.359144 0,-1.359144"
       style="fill:#eeb50d;fill-opacity:1;fill-rule:nonzero;stroke:none;stroke-width:0.0553303"
       id="path238" />
    <path
       d="m 37.055492,22.339541 c -1.080972,0 -1.082841,1.324797 0,1.324797 1.08035,0 1.082218,-1.324797 0,-1.324797"
       style="fill:#eeb50d;fill-opacity:1;fill-rule:nonzero;stroke:none;stroke-width:0.0553303"
       id="path240" />
    <path
       d="m 40.209936,19.858685 c -0.249838,-0.196058 -0.623039,-0.242248 -0.94328,-0.140533 -0.424912,0.135128 -0.571326,0.467789 -0.499677,0.803301 0.0019,0.01002 0.0037,0.01883 0.0056,0.02859 0.04175,0.195027 0.313388,0.409806 0.561357,0.442238 0.01183,0.0016 0.02368,0.0029 0.03552,0.0049 0.383791,0.05027 0.765714,-0.03091 0.975054,-0.312859 0.193142,-0.261067 0.135823,-0.611812 -0.134576,-0.82556"
       style="fill:#eeb50d;fill-opacity:1;fill-rule:nonzero;stroke:none;stroke-width:0.0553303"
       id="path242" />
    <path
       d="m 38.093474,11.055205 c -1.052312,0 -1.054181,1.28986 0,1.28986 1.052312,0 1.054181,-1.28986 0,-1.28986"
       style="fill:#eeb50d;fill-opacity:1;fill-rule:nonzero;stroke:none;stroke-width:0.0553303"
       id="path244" />
    <path
       d="m 37.781955,28.871393 c -0.845463,0 -0.84671,1.0369 0,1.0369 0.845463,0 0.846709,-1.0369 0,-1.0369"
       style="fill:#eeb50d;fill-opacity:1;fill-rule:nonzero;stroke:none;stroke-width:0.0553303"
       id="path246" />
    <path
       d="m 41.72828,26.029868 c -0.940164,0 -0.941411,1.151833 0,1.151833 0.93892,0 0.940789,-1.151833 0,-1.151833"
       style="fill:#eeb50d;fill-opacity:1;fill-rule:nonzero;stroke:none;stroke-width:0.0553303"
       id="path248" />
    <path
       d="m 9.5539484,33.844259 c -0.047351,-0.04816 -0.094702,-0.09729 -0.1420527,-0.145497 -0.2143252,-0.221708 -0.5345671,-0.350301 -0.8847147,-0.22898 -0.3171266,0.10997 -0.5077764,0.385828 -0.4093362,0.658934 0.019937,0.05798 0.04112,0.115571 0.061681,0.172964 0.1227386,0.342046 0.6012321,0.52189 1.0149296,0.384255 0.3700855,-0.123434 0.63986,-0.553386 0.3594939,-0.841676"
       style="fill:#eeb50d;fill-opacity:1;fill-rule:nonzero;stroke:none;stroke-width:0.0553303"
       id="path250" />
    <path
       d="m 6.3185095,29.986373 c -1.1650821,0 -1.1669512,1.427888 0,1.427888 1.165082,0 1.1669511,-1.427888 0,-1.427888"
       style="fill:#eeb50d;fill-opacity:1;fill-rule:nonzero;stroke:none;stroke-width:0.0553303"
       id="path252" />
    <path
       d="m 45.725073,29.604034 c -0.872877,4.491269 -2.765668,9.32596 -7.245314,12.412239 -5.608594,3.864568 -15.459455,3.716763 -17.701149,-2.586649 4.562512,0.171982 9.429065,-1.427494 13.567911,-2.770915 3.963148,-1.286371 7.69764,-2.972231 9.62906,-6.100325 0.178812,-0.289815 -0.304044,-0.50425 -0.540797,-0.249718 -5.153775,5.548709 -14.58907,6.757541 -22.633122,8.1073 0.657929,-1.270648 1.267262,-2.562425 1.861641,-3.85882 4.70394,-1.61176 8.270836,-4.401249 12.543633,-6.59519 4.215479,-2.164902 6.687073,-3.502966 7.882684,-7.544527 0.06417,-0.217238 -0.347656,-0.380374 -0.479117,-0.159304 -0.835495,1.397519 -1.528313,2.81273 -2.80118,4.000875 -1.75074,1.632841 -4.596156,2.549747 -6.802959,3.798381 -3.243538,1.835139 -6.193625,3.888155 -9.774228,5.25462 1.039229,-2.280472 2.082195,-4.549644 3.346962,-6.696905 0.469773,-0.799074 0.971941,-1.59697 1.488441,-2.396044 2.920804,-0.759126 5.61856,-1.942849 7.875829,-3.606597 1.873477,-1.381748 4.475286,-3.617996 4.477778,-5.75204 0,-0.05749 -0.08598,-0.0801 -0.136445,-0.04472 -1.936404,1.359145 -3.03046,3.426852 -4.978701,4.865599 -1.872231,1.38224 -3.999285,2.431375 -6.345648,3.170747 C 32.588929,17.360529 36.56516,11.759342 36.208783,5.4662975 36.200684,5.3179019 35.908479,5.2707299 35.865488,5.4294446 34.200107,11.58392 30.67807,16.916325 27.255095,22.414814 26.809624,18.241565 26.928001,13.756782 28.127973,9.7604266 28.209594,9.489679 27.684993,9.2813359 27.529233,9.5609283 25.244551,13.674231 25.201561,19.633631 26.284402,23.987216 c -0.617432,1.010169 -1.226763,2.028446 -1.813665,3.062251 -1.109009,1.953217 -2.080326,3.929479 -3.044167,5.896504 -1.923319,-6.558927 -4.194295,-13.406685 -2.690903,-20.02551 0.07041,-0.310549 -0.517745,-0.574909 -0.705902,-0.234386 -1.65666,3.005251 -1.898399,6.160864 -1.075365,9.369987 1.056674,4.114285 2.103378,8.497893 3.667205,12.526582 -0.581918,1.17586 -1.175674,2.343466 -1.805566,3.497609 -2.543866,-2.27836 -5.070287,-4.474955 -7.107623,-7.095361 C 8.9265487,27.406308 8.2100544,24.105249 8.332793,19.937796 8.3365329,19.801195 8.0767241,19.774168 8.0324884,19.905366 5.6400205,27.013552 11.187555,34.455431 17.975561,39.031167 10.413742,39.465543 3.1397669,36.394055 2.4693773,29.791395 1.8706375,23.886047 6.13409,17.43768 11.937694,13.896337 19.951839,9.0061704 30.681185,7.8819038 38.454213,2.7293422 c 2.47907,9.2530888 9.201656,16.9391808 7.27086,26.8746918 z M 39.912123,1.40312 C 39.807453,0.77956472 39.033016,0.50930842 38.398763,0.90830492 26.708691,8.2617364 9.2312145,8.78112 2.7322993,20.782914 0.18656382,25.484933 -0.93615074,31.198695 2.960955,35.634732 c 3.287151,3.741332 9.212247,5.578044 14.731745,4.406604 -1.3657,2.273201 -2.942611,4.475005 -4.96437,6.544728 -0.581918,0.595005 0.677865,1.345875 1.315234,0.8004 2.265368,-1.938426 3.961279,-4.155954 5.379315,-6.504384 1.642953,3.042695 5.374953,5.164011 9.72127,5.373238 6.3606,0.30711 11.906266,-3.206223 14.838285,-7.393675 3.482162,-4.97267 4.68525,-11.397009 3.818603,-16.995247 C 46.690159,14.692366 41.120819,8.5536134 39.912123,1.40312"
       style="fill:#6f3718;fill-opacity:1;fill-rule:nonzero;stroke:none;stroke-width:0.0553303"
       id="path254" />
  </g>
</svg>
