<?xml version="1.0" encoding="UTF-8" standalone="no"?>
<!-- Created with Inkscape (http://www.inkscape.org/) -->

<svg
   width="48"
   height="48"
   viewBox="0 0 12.7 12.7"
   version="1.1"
   id="svg1"
   inkscape:version="1.3 (0e150ed, 2023-07-21)"
   sodipodi:docname="leaf3.svg"
   xmlns:inkscape="http://www.inkscape.org/namespaces/inkscape"
   xmlns:sodipodi="http://sodipodi.sourceforge.net/DTD/sodipodi-0.dtd"
   xmlns="http://www.w3.org/2000/svg"
   xmlns:svg="http://www.w3.org/2000/svg">
  <sodipodi:namedview
     id="namedview1"
     pagecolor="#505050"
     bordercolor="#ffffff"
     borderopacity="1"
     inkscape:showpageshadow="0"
     inkscape:pageopacity="0"
     inkscape:pagecheckerboard="1"
     inkscape:deskcolor="#505050"
     inkscape:document-units="mm"
     inkscape:zoom="16.770833"
     inkscape:cx="28.173913"
     inkscape:cy="24.477019"
     inkscape:window-width="1920"
     inkscape:window-height="1011"
     inkscape:window-x="0"
     inkscape:window-y="0"
     inkscape:window-maximized="1"
     inkscape:current-layer="layer1" />
  <defs
     id="defs1" />
  <g
     inkscape:label="Layer 1"
     inkscape:groupmode="layer"
     id="layer1">
    <path
       d="m 4.5111336,11.465453 c -0.010609,0.111174 -0.043427,0.218096 -0.048155,0.329471 -0.0028,0.06811 0.095249,0.109521 0.1263218,0.0427 0.062148,-0.134243 0.071991,-0.30105 0.075175,-0.449897 0.00152,-0.07036 0.00946,-0.18511 -0.00415,-0.277437 0.064753,-0.06137 0.1300851,-0.121565 0.1964789,-0.179123 0.1947422,-0.168378 0.3938268,-0.326517 0.5968684,-0.477108 0.017175,0.137671 0.063402,0.27527 0.068903,0.416437 0.00744,0.194442 -0.0083,0.394164 -0.066105,0.5788 -0.014187,0.04566 0.048733,0.07719 0.071701,0.0361 0.1052846,-0.188577 0.1840307,-0.383371 0.1926191,-0.606908 0.00666,-0.170345 -0.00646,-0.3962 -0.1028709,-0.542608 C 6.089623,9.9989295 6.5812071,9.7002375 7.087556,9.4169051 6.7003876,10.305331 6.1778265,11.198766 5.3782065,11.68937 c -0.6697277,0.410813 -1.4462837,0.560064 -2.2032498,0.687383 9.65e-5,-3.05e-4 1.928e-4,-7.12e-4 3.888e-4,-0.001 0.5164816,-0.257703 0.9270032,-0.717297 1.352869,-1.136728 0.00176,0.07747 -0.011289,0.167593 -0.01708,0.22645"
       style="fill:#f36633;fill-opacity:1;fill-rule:nonzero;stroke:none;stroke-width:0.00986198"
       id="path40" />
    <path
       d="m 9.6745024,9.7544519 c 0.023933,-0.00544 0.020364,-0.037199 0.00165,-0.046572 C 9.4839157,9.612962 9.2817429,9.5598193 9.0959755,9.4452485 8.9800758,9.3738032 8.8735371,9.2890339 8.7691214,9.2007379 c 0.3126682,-0.032956 0.625047,-0.079528 0.935785,-0.1146815 0.1367444,-0.01543 0.2731025,-0.026929 0.4093636,-0.036494 0.02316,0.2710066 0.417277,0.541429 0.633346,0.5663931 0.01216,0.00142 0.02336,-0.015781 0.01592,-0.027092 C 10.687586,9.4721363 10.563101,9.3963573 10.468914,9.296914 10.417474,9.242783 10.368069,9.1863245 10.328696,9.1215207 c -0.0165,-0.0272 -0.02934,-0.055229 -0.04304,-0.082118 0.684107,-0.037321 1.364451,-0.01169 2.051933,0.024168 0.0015,0.00112 0.0028,0.00212 0.0044,0.00324 C 10.829311,9.8252061 9.0029034,10.524038 7.6077661,9.20176 7.9180217,9.246407 8.228953,9.245702 8.5395948,9.221807 8.8227333,9.5017935 9.270698,9.8470974 9.6745611,9.7544575"
       style="fill:#f36633;fill-opacity:1;fill-rule:nonzero;stroke:none;stroke-width:0.00986198"
       id="path42" />
    <path
       d="M 11.476495,3.9913526 C 11.311668,4.3639491 11.227324,4.7680907 11.132173,5.1655803 10.88532,6.1967967 10.526716,7.0947771 9.845891,7.8849193 9.79349,7.9395243 9.808834,8.0563314 9.900125,8.051998 c 0.87634,-0.0424 1.597213,0.3895582 2.289813,0.9013063 -0.642032,-0.121333 -1.276922,-0.1188943 -1.911136,-0.080505 0.06794,-0.08102 0.134524,-0.1631886 0.213077,-0.2345233 0.113486,-0.1031012 0.256697,-0.1759777 0.359857,-0.2890469 0.02287,-0.024871 0.01254,-0.081644 -0.02702,-0.078217 -0.286907,0.024409 -0.608549,0.3430963 -0.738731,0.6146974 C 9.5972033,8.9201567 9.1083215,8.9692481 8.6165444,8.995472 8.8822161,8.6724511 9.2334852,8.4050625 9.6028004,8.2480523 9.6376379,8.2333274 9.6153458,8.1725453 9.580218,8.1827446 9.0930735,8.3236395 8.7172924,8.5862712 8.4013432,9.005621 8.1686757,9.014211 7.9350429,9.014911 7.7004452,9.0059265 8.1119318,8.6440029 8.3914999,8.1004878 8.6398009,7.5448385 c 0.4855045,0.076021 0.9948449,0.020469 1.4067181,-0.2827883 0.01438,-0.010663 0.008,-0.037471 -0.01139,-0.032634 C 9.594982,7.3379603 9.1699848,7.4146466 8.7244328,7.3531485 8.8879082,6.9786575 9.042698,6.6080766 9.2194906,6.2934307 9.323038,6.1091986 9.4315068,5.9274862 9.5441253,5.7486964 9.993248,5.8737685 10.405893,5.7812497 10.780323,5.4955282 c 0.03242,-0.024792 -0.0063,-0.081333 -0.03966,-0.060671 C 10.414092,5.6367264 10.011195,5.6872188 9.6445813,5.5923814 9.9201927,5.1708046 10.223693,4.7698879 10.56261,4.4062613 10.991854,3.9459833 11.484691,3.6181346 11.980233,3.2675091 11.835092,3.5132192 11.602618,3.7062195 11.476489,3.9913357"
       style="fill:#f36633;fill-opacity:1;fill-rule:nonzero;stroke:none;stroke-width:0.00986198"
       id="path44" />
    <path
       d="M 6.2588913,4.0477912 C 5.8989369,3.787367 5.5519137,3.4672789 5.3177985,3.0711999 c -0.017371,-0.029328 -0.064078,-0.031847 -0.073438,0.00675 -0.047962,0.1976361 0.172643,0.4326631 0.2821734,0.5691239 0.1967687,0.2449037 0.4327174,0.4559443 0.6965554,0.6125619 0.02625,0.015522 0.052016,0.016932 0.074115,0.00937 0.094378,0.5640898 0.1782387,1.130392 0.2680824,1.6954849 C 6.345261,5.8561483 6.1212786,5.761714 5.9128332,5.6235402 5.6722525,5.4639998 5.4588853,5.2698908 5.2289195,5.0953342 5.2052762,5.0773972 5.1744913,5.1088375 5.1880989,5.1351433 5.4583058,5.6614345 6.0499631,6.0907721 6.6023436,6.189439 6.6235743,6.3193488 6.6436459,6.4495611 6.6663248,6.5792694 6.8064464,7.3810015 6.9822739,8.19896 7.2379094,8.9818457 6.6578328,8.8397209 6.0869237,8.5869762 5.518138,8.2945128 5.5613709,8.0567646 5.4334086,7.7537793 5.3420206,7.5478081 5.2109701,7.2521905 5.0246238,7.0367254 4.7965882,6.8254836 4.749978,6.782247 4.6789517,6.8462427 4.724211,6.8961328 4.9062148,7.096591 5.0513544,7.3548987 5.1581827,7.6092661 c 0.057515,0.1369546 0.099301,0.277981 0.131533,0.4236031 0.011773,0.052992 0.019301,0.105944 0.029337,0.1579073 C 4.9070839,7.9727921 4.4956933,7.7388635 4.0821799,7.5159608 4.0016967,6.9827055 3.68623,6.5132563 3.2727167,6.2135264 3.2096039,6.1676697 3.1564307,6.2672439 3.2110514,6.316527 3.5321153,6.6064812 3.7304282,6.974643 3.8466171,7.3906872 2.9225088,6.9053059 1.9848901,6.5021722 1.0031695,6.4832249 2.3499589,6.1292736 3.9470763,5.8970685 5.1356016,6.5746355 c 0.00165,0.00575 0.00318,0.011592 0.00492,0.017435 0.027792,0.099372 0.1361649,0.1047137 0.1886625,0.052004 5.717e-4,-6.108e-4 0.00114,-0.00112 0.00176,-0.00184 0.022582,-0.023885 0.035127,-0.05785 0.022776,-0.1018922 C 5.0022605,5.2878142 4.8748773,4.1920967 5.1324426,2.9067048 5.2802845,2.1689699 5.4022636,1.4804173 5.3781379,0.75286176 5.6683212,1.613653 5.9500121,2.4624512 6.132788,3.3657729 6.178724,3.5923343 6.219254,3.8200042 6.2589168,4.0477747"
       style="fill:#f36633;fill-opacity:1;fill-rule:nonzero;stroke:none;stroke-width:0.00986198"
       id="path46" />
    <path
       d="M 9.622777,5.247719 C 9.575298,5.3146392 9.5289766,5.3822649 9.4831379,5.4503943 9.3676243,5.0803176 9.4744527,4.719614 9.5619803,4.3495371 9.5718228,4.3081149 9.520195,4.2802985 9.4976135,4.3170845 9.2894574,4.6572288 9.2179491,5.2211121 9.3845123,5.6000577 9.0522539,6.1107276 8.7596583,6.6513301 8.4930219,7.2046311 8.410319,6.9512613 8.3470135,6.699101 8.3454697,6.4242647 8.3437545,6.1245349 8.425277,5.8523188 8.4869422,5.5645821 8.4999679,5.5036081 8.4299091,5.4684349 8.3949754,5.5182218 8.0337661,6.03514 8.0672526,6.9049012 8.3786659,7.4417843 c 6.86e-4,0.00112 0.00152,0.00162 0.00222,0.00252 C 8.1402066,7.9751105 7.9180578,8.5337531 7.4791641,8.8936609 7.1754706,8.0178727 6.9676042,7.0972967 6.7984355,6.1563827 7.3255322,5.8505047 7.4439408,5.1071263 7.431492,4.51714 7.4302343,4.4573754 7.3473418,4.4369164 7.3316119,4.4985971 7.1926482,5.0429286 7.1107178,5.5226576 6.7608956,5.9457463 6.7584924,5.9322429 6.7559751,5.9187375 6.7536547,5.9051304 6.6562868,5.3401388 6.5745491,4.743904 6.4795905,4.1428315 6.6614013,4.0363033 6.7737302,3.8419933 6.8460107,3.6299448 6.9271693,3.3908861 7.0120918,3.0342137 6.9125976,2.7898137 6.907482,2.7773186 6.8887603,2.7764098 6.8825854,2.7882101 6.7952504,2.9575264 6.7710283,3.1664505 6.7192064,3.3521942 6.6562868,3.5775461 6.5657671,3.7479708 6.4432092,3.9194035 6.2527131,2.7583784 5.9988149,1.5906004 5.4721042,0.60060478 6.0583571,1.2706133 6.7140918,1.8872061 7.1691977,2.6674715 c 0.5549862,0.9516981 0.6347937,1.9441127 0.6226344,3.0268291 -0.00222,0.00312 -0.00463,0.00615 -0.00686,0.00927 -0.077487,0.106626 0.089269,0.2210152 0.1654093,0.1145881 0.5900191,-0.8252121 1.2789506,-1.578266 2.1391746,-2.0786559 0.38244,-0.2223281 0.792865,-0.3980944 1.219889,-0.4945442 0.0663,-0.014916 0.419303,-0.102698 0.631513,-0.1187229 -0.933855,0.3912414 -1.736178,1.3013159 -2.3181853,2.1214914"
       style="fill:#f36633;fill-opacity:1;fill-rule:nonzero;stroke:none;stroke-width:0.00986198"
       id="path48" />
    <path
       d="m 3.2321855,7.8447266 c -0.2456953,0.037088 -0.5014271,-0.019057 -0.7419117,0.048537 -0.011292,0.00334 -0.015633,0.021063 -0.00453,0.027956 0.4062755,0.2490058 1.105147,0.1732166 1.4731114,-0.1646801 0.027407,0.015389 0.054813,0.030426 0.082317,0.046018 C 4.424577,8.0207838 4.8066305,8.2418723 5.1950531,8.4453743 4.9379704,8.5856748 4.6719129,8.6659894 4.3769045,8.6759466 4.1140317,8.6847366 3.8489394,8.6127656 3.5894437,8.6559116 c -0.00819,0.00142 -0.00878,0.013384 -0.0028,0.017949 0.485215,0.3665292 1.3306738,0.2532586 1.7952366,-0.09263 0.010523,-0.00795 0.018045,-0.017515 0.0248,-0.027402 0.5371228,0.26988 1.0891172,0.4987694 1.6747913,0.6351394 -0.5598113,0.2730221 -1.095497,0.6088327 -1.6023282,0.986256 -0.2591095,-0.110862 -0.7091974,-0.126685 -0.9270035,0.04051 -0.00955,0.0073 -0.00463,0.02487 0.00588,0.02791 0.1397356,0.04063 0.2938504,0.0132 0.4381213,0.01997 0.1047058,0.005 0.2090248,0.02538 0.3132475,0.04012 -0.1681075,0.129799 -0.3332234,0.263146 -0.4943828,0.400695 -0.093801,0.08015 -0.1852846,0.162472 -0.2755144,0.246324 -0.069868,-0.01795 -0.1571062,-0.0068 -0.2134639,-0.003 -0.1381913,0.0096 -0.2683734,0.037 -0.3888086,0.111365 -0.022678,0.01389 -0.014282,0.04891 0.011098,0.05169 0.1068285,0.01182 0.2118229,0.0071 0.318941,0.0052 0.030784,-6.12e-4 0.06427,0.0013 0.097564,0.0023 -0.2048748,0.198028 -0.4052143,0.40133 -0.6087382,0.602462 -0.1125203,0.111236 -0.3215451,0.255436 -0.471124,0.414099 0.4050213,-0.878669 0.9154233,-1.825328 1.6398679,-2.3906223 0.024899,0.00193 0.049506,0.00477 0.074597,0.00619 0.1474558,0.00835 0.1542111,-0.2355409 0.00715,-0.2454279 C 3.8213341,9.4242564 2.9347654,8.6314935 2.1253021,7.768102 1.6972166,7.311664 1.2663327,6.886751 0.72871706,6.6449715 1.8218979,6.737793 2.7762116,7.1121832 3.7541685,7.6433422 3.5893423,7.7322433 3.4295341,7.8148757 3.2321861,7.8447175"
       style="fill:#f36633;fill-opacity:1;fill-rule:nonzero;stroke:none;stroke-width:0.00986198"
       id="path50" />
    <path
       d="M 11.980238,3.267526 C 11.835098,3.5132358 11.602623,3.7062364 11.476495,3.9913526 11.311668,4.3639491 11.227324,4.7680907 11.132173,5.1655803 10.88532,6.1967967 10.526716,7.0947771 9.845891,7.8849193 9.79349,7.9395243 9.808834,8.0563314 9.900125,8.051998 c 0.87634,-0.0424 1.597213,0.3895582 2.289813,0.9013063 -0.642032,-0.121333 -1.276922,-0.1188943 -1.911136,-0.080505 0.06794,-0.08102 0.134524,-0.1631886 0.213077,-0.2345233 0.113486,-0.1031012 0.256697,-0.1759777 0.359857,-0.2890469 0.02287,-0.024871 0.01254,-0.081644 -0.02702,-0.078217 -0.286907,0.024409 -0.608549,0.3430963 -0.738731,0.6146974 C 9.5972033,8.9201567 9.1083215,8.9692481 8.6165444,8.995472 8.8822161,8.6724511 9.2334852,8.4050625 9.6028004,8.2480523 9.6376379,8.2333274 9.6153458,8.1725453 9.580218,8.1827446 9.0930735,8.3236395 8.7172924,8.5862712 8.4013432,9.005621 8.1686757,9.014211 7.9350429,9.014911 7.7004452,9.0059265 8.1119318,8.6440029 8.3914999,8.1004878 8.6398009,7.5448385 c 0.4855045,0.076021 0.9948449,0.020469 1.4067181,-0.2827883 0.01438,-0.010663 0.008,-0.037471 -0.01139,-0.032634 C 9.594982,7.3379603 9.1699848,7.4146466 8.7244328,7.3531485 8.8879082,6.9786575 9.042698,6.6080766 9.2194906,6.2934307 9.323038,6.1091986 9.4315068,5.9274862 9.5441253,5.7486964 9.993248,5.8737685 10.405893,5.7812497 10.780323,5.4955282 c 0.03242,-0.024792 -0.0063,-0.081333 -0.03966,-0.060671 C 10.414095,5.6367259 10.011198,5.6872184 9.6445844,5.592381 9.9201958,5.1708042 10.223696,4.7698874 10.562613,4.4062608 10.991857,3.9459829 11.484694,3.6181342 11.980236,3.2675087 Z M 11.940961,3.1262277 C 11.007106,3.517469 10.204784,4.4275436 9.622777,5.247719 9.575298,5.3146392 9.5289766,5.3822649 9.4831379,5.4503943 9.3676243,5.0803176 9.4744527,4.719614 9.5619803,4.3495371 9.5718228,4.3081149 9.520195,4.2802985 9.4976135,4.3170845 9.2894574,4.6572288 9.2179491,5.2211121 9.3845123,5.6000577 9.0522539,6.1107276 8.7596583,6.6513301 8.4930219,7.2046311 8.410319,6.9512613 8.3470135,6.699101 8.3454697,6.4242647 8.3437545,6.1245349 8.425277,5.8523188 8.4869422,5.5645821 8.4999679,5.5036081 8.4299091,5.4684349 8.3949754,5.5182218 8.0337661,6.03514 8.0672526,6.9049012 8.3786659,7.4417843 c 6.86e-4,0.00112 0.00152,0.00162 0.00222,0.00252 C 8.1402066,7.9751105 7.9180578,8.5337531 7.4791641,8.8936609 7.1754706,8.0178727 6.9676042,7.0972967 6.7984355,6.1563827 7.3255322,5.8505047 7.4439408,5.1071263 7.431492,4.51714 7.4302343,4.4573754 7.3473418,4.4369164 7.3316119,4.4985971 7.1926482,5.0429286 7.1107178,5.5226576 6.7608956,5.9457463 6.7584924,5.9322429 6.7559751,5.9187375 6.7536547,5.9051304 6.6562868,5.3401388 6.5745491,4.743904 6.4795905,4.1428315 6.6614013,4.0363033 6.7737302,3.8419933 6.8460107,3.6299448 6.9271693,3.3908861 7.0120918,3.0342137 6.9125976,2.7898137 6.907482,2.7773186 6.8887603,2.7764098 6.8825854,2.7882101 6.7952504,2.9575264 6.7710283,3.1664505 6.7192064,3.3521942 6.6562868,3.5775461 6.5657671,3.7479708 6.4432092,3.9194035 6.2527131,2.7583784 5.9988149,1.5906004 5.4721042,0.60060478 6.0583571,1.2706133 6.7140918,1.8872061 7.1691977,2.6674715 c 0.5549862,0.9516981 0.6347937,1.9441127 0.6226344,3.0268291 -0.00222,0.00312 -0.00463,0.00615 -0.00686,0.00927 -0.077487,0.106626 0.089269,0.2210152 0.1654093,0.1145881 0.5900191,-0.8252121 1.2789506,-1.578266 2.1391746,-2.0786559 0.38244,-0.2223281 0.792865,-0.3980944 1.219889,-0.4945442 0.0663,-0.014916 0.419303,-0.102698 0.631513,-0.1187229 z M 5.3781126,0.75287832 C 5.6682959,1.6136696 5.9499865,2.4624678 6.1327624,3.3657897 6.1786978,3.592351 6.2192287,3.8200207 6.2588913,4.0477912 5.8989369,3.787367 5.5519137,3.4672789 5.3177985,3.0711999 c -0.017371,-0.029328 -0.064078,-0.031847 -0.073438,0.00675 -0.047962,0.1976361 0.172643,0.4326631 0.2821734,0.5691239 0.1967687,0.2449037 0.4327174,0.4559443 0.6965554,0.6125619 0.02625,0.015522 0.052016,0.016932 0.074115,0.00937 0.094378,0.5640898 0.1782387,1.130392 0.2680824,1.6954849 C 6.345261,5.8561483 6.1212786,5.761714 5.9128332,5.6235402 5.6722525,5.4639998 5.4588853,5.2698908 5.2289195,5.0953342 5.2052762,5.0773972 5.1744913,5.1088375 5.1880989,5.1351433 5.4583058,5.6614345 6.0499631,6.0907721 6.6023436,6.189439 6.6235743,6.3193488 6.6436459,6.4495611 6.6663248,6.5792694 6.8064464,7.3810015 6.9822739,8.19896 7.2379094,8.9818457 6.6578328,8.8397209 6.0869237,8.5869762 5.518138,8.2945128 5.5613709,8.0567646 5.4334086,7.7537793 5.3420206,7.5478081 5.2109701,7.2521905 5.0246238,7.0367254 4.7965882,6.8254836 4.749978,6.782247 4.6789517,6.8462427 4.724211,6.8961328 4.9062148,7.096591 5.0513544,7.3548987 5.1581827,7.6092661 c 0.057515,0.1369546 0.099301,0.277981 0.131533,0.4236031 0.011773,0.052992 0.019301,0.105944 0.029337,0.1579073 C 4.9070839,7.9727921 4.4956933,7.7388635 4.0821799,7.5159608 4.0016967,6.9827055 3.68623,6.5132563 3.2727167,6.2135264 3.2096039,6.1676697 3.1564307,6.2672439 3.2110514,6.316527 3.5321153,6.6064812 3.7304282,6.974643 3.8466171,7.3906872 2.9225088,6.9053059 1.9848901,6.5021722 1.0031695,6.4832249 2.3499589,6.1292736 3.9470763,5.8970685 5.1356016,6.5746355 c 0.00165,0.00575 0.00318,0.011592 0.00492,0.017435 0.027792,0.099372 0.1361649,0.1047137 0.1886625,0.052004 5.717e-4,-6.108e-4 0.00114,-0.00112 0.00176,-0.00184 0.022582,-0.023885 0.035127,-0.05785 0.022776,-0.1018922 C 5.0022605,5.2878142 4.8748773,4.1920967 5.1324426,2.9067048 5.2802845,2.1689699 5.4022636,1.4804173 5.3781379,0.75286176 Z M 0.7287162,6.6449807 c 1.093181,0.092821 2.0474948,0.4672117 3.0254514,0.9983706 -0.1648262,0.088901 -0.3246343,0.1715336 -0.5219821,0.2013753 -0.2456953,0.037088 -0.5014271,-0.019057 -0.7419117,0.048537 -0.011292,0.00334 -0.015633,0.021063 -0.00453,0.027956 0.4062755,0.2490058 1.105147,0.1732166 1.4731114,-0.1646801 0.027407,0.015389 0.054813,0.030426 0.082317,0.046018 C 4.424577,8.0207838 4.8066305,8.2418723 5.1950531,8.4453743 4.9379704,8.5856748 4.6719129,8.6659894 4.3769045,8.6759466 4.1140317,8.6847366 3.8489394,8.6127656 3.5894437,8.6559116 c -0.00819,0.00142 -0.00878,0.013384 -0.0028,0.017949 0.485215,0.3665292 1.3306738,0.2532586 1.7952366,-0.09263 0.010523,-0.00795 0.018045,-0.017515 0.0248,-0.027402 0.5371228,0.26988 1.0891172,0.4987694 1.6747913,0.6351394 -0.5598113,0.2730221 -1.095497,0.6088327 -1.6023282,0.986256 -0.2591095,-0.110862 -0.7091974,-0.126685 -0.9270035,0.04051 -0.00955,0.0073 -0.00463,0.02487 0.00588,0.02791 0.1397356,0.04063 0.2938504,0.0132 0.4381213,0.01997 0.1047058,0.005 0.2090248,0.02538 0.3132475,0.04012 -0.1681075,0.129799 -0.3332234,0.263146 -0.4943828,0.400695 -0.093801,0.08015 -0.1852846,0.162472 -0.2755144,0.246324 -0.069868,-0.01795 -0.1571062,-0.0068 -0.2134639,-0.003 -0.1381913,0.0096 -0.2683734,0.037 -0.3888086,0.111365 -0.022678,0.01389 -0.014282,0.04891 0.011098,0.05169 0.1068285,0.01182 0.2118229,0.0071 0.318941,0.0052 0.030784,-6.12e-4 0.06427,0.0013 0.097564,0.0023 -0.2048748,0.198028 -0.4052143,0.40133 -0.6087382,0.602462 -0.1125203,0.111236 -0.3215451,0.255436 -0.471124,0.414099 0.4050213,-0.878669 0.9154233,-1.825328 1.6398679,-2.3906223 0.024899,0.00193 0.049506,0.00477 0.074597,0.00619 0.1474558,0.00835 0.1542111,-0.2355409 0.00715,-0.2454279 C 3.8213333,9.4242653 2.9347645,8.6315026 2.1253013,7.7681112 1.6972158,7.3116731 1.266332,6.8867602 0.7287162,6.6449807 Z m 2.4466293,5.7307483 c 0.5164815,-0.257704 0.9270034,-0.717296 1.3528692,-1.136727 0.00176,0.07747 -0.011289,0.167593 -0.01708,0.226451 -0.010609,0.111174 -0.043426,0.218096 -0.048155,0.329471 -0.0028,0.06811 0.095249,0.109521 0.1263219,0.0427 0.062148,-0.134243 0.071991,-0.30105 0.075175,-0.449897 0.00152,-0.07036 0.00946,-0.18511 -0.00415,-0.277437 0.064753,-0.06137 0.1300855,-0.121565 0.196479,-0.179123 0.1947423,-0.168378 0.3938269,-0.326517 0.5968684,-0.477108 0.017175,0.137671 0.063402,0.27527 0.068903,0.416437 0.00744,0.194442 -0.0083,0.394164 -0.066104,0.5788 -0.014187,0.04566 0.048733,0.07719 0.071702,0.0361 0.1052846,-0.188577 0.1840303,-0.383371 0.1926191,-0.606908 0.00666,-0.170345 -0.00646,-0.3962 -0.1028709,-0.542608 C 6.089626,9.9989326 6.58121,9.7002406 7.0875587,9.4169082 6.7003903,10.305334 6.1778295,11.198769 5.3782091,11.689373 c -0.6697277,0.410813 -1.4462837,0.560064 -2.2032497,0.687383 9.68e-5,-3.05e-4 1.93e-4,-7.12e-4 3.887e-4,-10e-4 z M 7.6077073,9.2017557 c 0.3102558,0.044647 0.6211871,0.043942 0.9318288,0.020047 0.2831385,0.2799866 0.7311032,0.6252907 1.1349663,0.5326508 0.023933,-0.00544 0.020364,-0.037199 0.00165,-0.046571 C 9.4839157,9.6129637 9.2817429,9.5598208 9.0959755,9.44525 8.9800758,9.3738047 8.8735371,9.2890357 8.7691214,9.2007393 c 0.3126682,-0.032956 0.625047,-0.079528 0.935785,-0.1146815 0.1367444,-0.01543 0.2731025,-0.026929 0.4093636,-0.036494 0.02316,0.2710061 0.417277,0.5414285 0.633346,0.5663926 0.01216,0.00142 0.02336,-0.015781 0.01592,-0.027092 -0.07595,-0.1167275 -0.200435,-0.1925066 -0.294622,-0.2919495 -0.05144,-0.054131 -0.100845,-0.1105899 -0.140218,-0.1753935 -0.0165,-0.0272 -0.02934,-0.055229 -0.04304,-0.082118 0.684107,-0.03732 1.364451,-0.01169 2.051933,0.024168 0.0015,0.00111 0.0028,0.00212 0.0044,0.00324 C 10.829256,9.8252003 9.0028486,10.524033 7.6077115,9.2017542 Z M 12.308538,3.0153658 c -0.01621,-5.09e-4 -0.03195,9.163e-4 -0.04816,6.109e-4 -0.0025,-3.055e-4 -0.0046,-0.00184 -0.0077,-9.163e-4 -10e-4,3.054e-4 -0.0022,7.127e-4 -0.003,9.926e-4 C 10.455785,2.9898498 9.0232043,4.076799 7.9305059,5.5102416 8.0943673,4.6215332 7.8914225,3.6406079 7.5069562,2.847644 6.979378,1.7589798 6.0359691,0.99746001 5.2986897,0.08365662 5.2305589,-6.9914954e-4 5.1167823,0.07891967 5.1314507,0.17708285 5.3131649,1.3830576 4.9423055,2.4365468 4.7847169,3.6079526 4.6564652,4.5623718 4.837504,5.4764777 5.0846472,6.3889708 4.4858486,5.9791856 3.7580263,5.9495552 3.0496011,5.9780769 2.0692319,6.0173822 1.1059436,6.194358 0.16330656,6.4771565 0.06892707,6.5054765 0.03939729,6.6825531 0.15558643,6.7052296 1.2655586,6.9229215 1.8832715,7.9539563 2.7015165,8.6810887 3.2986743,9.2118142 3.948426,9.6012516 4.7018214,9.7183315 3.8580997,10.263984 3.3111229,11.589991 2.9249198,12.453695 c -0.037057,0.08288 0.014377,0.174174 0.1046089,0.15956 0.9554717,-0.154712 1.9670114,-0.325218 2.7627712,-0.955114 0.7224182,-0.571866 1.2031938,-1.467034 1.5603499,-2.3434168 0.3345741,0.9233468 0.7931542,1.7860738 1.455741,2.4982108 0.096117,0.103298 0.2441511,-0.04063 0.155369,-0.151488 C 8.4385929,11.00584 8.04052,10.293624 7.7270795,9.5424747 9.062289,10.789277 11.162668,9.8919108 12.571314,9.1742218 c 0.0662,-0.033782 0.06263,-0.1320461 0.0067,-0.1740526 -0.775029,-0.5825286 -1.56085,-1.1319192 -2.520472,-1.1447187 0.494093,-0.537851 0.830212,-1.20283 1.048887,-1.9239355 0.309773,-1.022045 0.377228,-2.108692 1.243338,-2.7968412 0.04594,-0.036584 0.01076,-0.1178159 -0.04121,-0.1193279"
       style="fill:#6f3718;fill-opacity:1;fill-rule:nonzero;stroke:none;stroke-width:0.00986198"
       id="path52" />
  </g>
</svg>
