<?xml version="1.0" encoding="UTF-8" standalone="no"?>
<!-- Created with Inkscape (http://www.inkscape.org/) -->

<svg
   width="48"
   height="48"
   viewBox="0 0 48 48"
   version="1.1"
   id="svg1"
   inkscape:version="1.3 (0e150ed, 2023-07-21)"
   sodipodi:docname="leaf4.svg"
   xmlns:inkscape="http://www.inkscape.org/namespaces/inkscape"
   xmlns:sodipodi="http://sodipodi.sourceforge.net/DTD/sodipodi-0.dtd"
   xmlns="http://www.w3.org/2000/svg"
   xmlns:svg="http://www.w3.org/2000/svg">
  <sodipodi:namedview
     id="namedview1"
     pagecolor="#505050"
     bordercolor="#ffffff"
     borderopacity="1"
     inkscape:showpageshadow="0"
     inkscape:pageopacity="0"
     inkscape:pagecheckerboard="1"
     inkscape:deskcolor="#505050"
     inkscape:document-units="px"
     inkscape:zoom="67.083333"
     inkscape:cx="10.069565"
     inkscape:cy="45.696894"
     inkscape:window-width="1920"
     inkscape:window-height="1011"
     inkscape:window-x="0"
     inkscape:window-y="0"
     inkscape:window-maximized="1"
     inkscape:current-layer="layer1" />
  <defs
     id="defs1" />
  <g
     inkscape:label="Layer 1"
     inkscape:groupmode="layer"
     id="layer1">
    <path
       d="m 9.9828735,18.712554 c 0.058013,0.847746 0.1442905,1.697307 0.2486085,2.547324 1.047083,-1.531938 2.06833,-3.090226 2.772235,-4.787988 0.755576,-1.823151 0.694643,-3.498652 0.904742,-5.328618 C 12.527947,9.0734281 10.789147,7.2598172 9.4944292,5.1613525 10.1413,9.6108787 9.6806421,14.287561 9.9828735,18.712554"
       style="fill:#d9cd21;fill-opacity:1;fill-rule:nonzero;stroke:none;stroke-width:0.0470599"
       id="path62" />
    <path
       d="m 31.881431,42.703378 c -0.116505,-0.09996 -0.257383,-0.191719 -0.398749,-0.281219 -0.241785,0.01544 -0.409474,-0.123572 -0.487469,-0.308023 -0.0043,-0.0031 -0.01024,-0.0068 -0.01511,-0.0099 -0.07068,-0.04724 -0.06824,-0.13175 -0.02925,-0.195807 -0.0073,-0.212165 0.09603,-0.42251 0.352927,-0.487476 4.598292,-1.157586 7.793162,-3.511828 9.790322,-7.228551 -4.009919,2.335162 -9.626532,1.366116 -13.729069,-0.306205 -0.100421,-0.04134 -0.161352,-0.112215 -0.196449,-0.192629 -3.005246,1.517401 -6.098724,2.857166 -9.372075,3.856651 3.812492,1.936275 8.197762,2.807644 12.534771,2.409667 0.15599,-0.01454 0.212536,0.218979 0.05655,0.253507 -4.919048,1.088075 -9.488579,0.311657 -13.701771,-2.31608 -0.0048,-0.0036 -0.0064,-0.0081 -0.01121,-0.01136 -1.19186,0.32983 -2.41492,0.600145 -3.661864,0.827302 3.930948,6.246781 12.896472,5.286367 19.475351,4.937911 0.566438,-0.487023 0.370963,-0.804131 -0.6069,-0.947695"
       style="fill:#d9cd21;fill-opacity:1;fill-rule:nonzero;stroke:none;stroke-width:0.0470599"
       id="path64" />
    <path
       d="M 11.035319,37.109441 C 10.81352,32.269662 9.7293891,27.454416 9.1005546,22.619179 5.6868107,21.94498 4.9658448,18.462683 3.3732843,16.003949 2.757124,18.963788 2.6737667,21.989048 3.601907,25.140607 c 0.00245,0.0018 0.0039,0.0036 0.00585,0.0054 C 4.143972,25.62487 3.3835207,26.436724 2.8438929,25.95561 2.7298252,25.854297 2.614295,25.761619 2.5002274,25.663941 c 0.6025113,0.92407 1.0470828,1.977617 1.5316267,2.917135 1.7388008,3.370081 3.4103312,6.695187 7.0034649,8.528333"
       style="fill:#d9cd21;fill-opacity:1;fill-rule:nonzero;stroke:none;stroke-width:0.0470599"
       id="path66" />
    <path
       d="M 8.9494394,21.377091 C 8.8777814,20.73106 8.8095359,20.085029 8.7627387,19.438089 8.3610645,13.920477 8.7988114,8.3519817 8.1319543,2.8598109 6.56133,6.8854643 4.6309538,10.861598 3.6097068,14.948584 c 0.9686002,0.815034 1.4492444,1.92946 2.0293324,3.027986 0.8301589,1.5701 1.9839974,2.418299 3.3104002,3.400521"
       style="fill:#d9cd21;fill-opacity:1;fill-rule:nonzero;stroke:none;stroke-width:0.0470599"
       id="path68" />
    <path
       d="m 1.2913051,25.234649 c -0.054108,2.177515 -0.57277553,4.320956 -0.00146,6.52255 1.0222219,3.936608 4.185407,6.797861 8.1787503,8.149438 0.502578,-0.527456 0.9958966,-1.060363 1.4784906,-1.600084 C 5.2222531,35.720157 4.423292,29.815471 1.2913051,25.234649"
       style="fill:#d9cd21;fill-opacity:1;fill-rule:nonzero;stroke:none;stroke-width:0.0470599"
       id="path70" />
    <path
       d="m 11.969796,39.124767 c -0.355853,0.392525 -0.717555,0.780962 -1.085593,1.163492 2.994033,3.585881 7.2082,6.076415 12.136509,6.515281 2.904339,0.258049 6.056311,-0.283037 8.349365,-2.058486 0.272981,-0.146289 0.497706,-0.335736 0.684406,-0.560166 -6.593989,1.648241 -16.683131,1.165309 -20.084687,-5.060121"
       style="fill:#d9cd21;fill-opacity:1;fill-rule:nonzero;stroke:none;stroke-width:0.0470599"
       id="path72" />
    <path
       d="m 23.037774,23.626387 c -0.039,0.01636 -0.07556,0.01681 -0.113093,0.02226 -0.363164,0.608323 -0.728279,1.216191 -1.100705,1.821335 -2.58261,4.195565 -5.334857,8.374777 -8.562876,12.184177 3.588745,-0.769603 6.988352,-1.843595 10.253417,-3.21925 1.332741,-4.37502 6.011466,-7.446619 10.121314,-10.06618 -0.632247,0.165825 -1.133852,0.28758 -1.19576,0.257141 -0.06825,-0.03407 -0.580576,-0.0945 -0.646384,-0.114486 -0.123818,-0.03815 -0.176464,-0.160826 -0.173538,-0.28031 -0.08531,-0.137202 -0.109681,-0.302571 -0.0019,-0.470213 1.650082,-2.561862 1.844583,-5.54169 1.981561,-8.512887 -2.008858,3.856649 -6.434099,6.647485 -10.561985,8.378411"
       style="fill:#d9cd21;fill-opacity:1;fill-rule:nonzero;stroke:none;stroke-width:0.0470599"
       id="path74" />
    <path
       d="m 10.483991,22.500148 c -0.02243,0.03044 -0.05168,0.04679 -0.07848,0.0677 0.43726,3.065238 1.05927,6.139564 1.472156,9.207076 2.197021,-3.175183 3.533173,-6.349456 4.115211,-10.169307 0.03948,-0.261683 0.487469,-0.237605 0.494293,0.02454 0.106755,4.085168 -1.439007,8.290729 -4.362356,11.362328 -0.02828,0.02908 -0.0585,0.04316 -0.08775,0.0636 0.139416,1.234364 0.235448,2.467819 0.261771,3.698096 3.644317,-4.31505 6.750467,-8.970835 9.710865,-13.789262 -2.403221,-3.975225 -0.155015,-10.261986 2.579197,-14.1967782 -2.891178,1.3365842 -5.496211,3.1688222 -7.673732,5.7942882 0.03851,0.133567 0.08579,0.261229 0.119916,0.397523 0.17939,0.726898 -1.004673,1.115334 -1.185524,0.382075 -0.244221,-0.989036 -0.615185,-1.890844 -1.063657,-2.737681 0.302231,3.425963 -2.489014,7.438442 -4.301911,9.895812"
       style="fill:#d9cd21;fill-opacity:1;fill-rule:nonzero;stroke:none;stroke-width:0.0470599"
       id="path76" />
    <path
       d="m 24.574275,33.981053 c 2.645005,-1.176667 5.211041,-2.545507 7.723942,-4.121059 3.753997,-2.353333 7.7956,-5.31817 12.275925,-6.536179 -2.711301,0.07314 -5.434302,0.126299 -8.120741,0.353 -0.212049,0.01772 -0.705367,0.136747 -1.274731,0.283945 -1.373199,1.325682 -2.920425,2.424206 -4.499337,3.583154 -2.59577,1.905836 -4.489587,3.878002 -6.105058,6.437139"
       style="fill:#d9cd21;fill-opacity:1;fill-rule:nonzero;stroke:none;stroke-width:0.0470599"
       id="path78" />
    <path
       d="M 22.656573,21.906364 C 22.841324,21.602429 23.026561,21.29895 23.210337,20.994106 26.269691,15.916268 29.346594,9.1102273 34.852065,5.7483229 31.690831,6.3452883 28.645126,7.0889959 25.832919,8.2288635 23.410686,12.088693 21.075712,17.495454 22.656573,21.906364"
       style="fill:#d9cd21;fill-opacity:1;fill-rule:nonzero;stroke:none;stroke-width:0.0470599"
       id="path80" />
    <path
       d="m 41.556224,33.263242 c 0.171102,-0.373445 0.335865,-0.755521 0.486006,-1.154406 1.124103,-2.989825 1.884065,-5.962383 3.78666,-8.523337 -6.153321,2.896235 -11.819658,6.578884 -17.775551,9.663658 4.76452,1.390193 8.878268,1.908562 13.502885,0.01408"
       style="fill:#d9cd21;fill-opacity:1;fill-rule:nonzero;stroke:none;stroke-width:0.0470599"
       id="path82" />
    <path
       d="m 23.813337,22.150329 c 4.331159,-2.39831 7.93404,-4.975165 9.908776,-9.232517 C 33.891265,10.473163 34.27539,8.1121051 35.677839,6.0799703 30.485808,10.628082 27.216843,16.376939 23.813337,22.150329"
       style="fill:#d9cd21;fill-opacity:1;fill-rule:nonzero;stroke:none;stroke-width:0.0470599"
       id="path84" />
    <path
       d="m 18.086066,17.973844 c -0.735103,0 -0.736566,1.064451 0,1.064451 0.735103,0 0.736565,-1.064451 0,-1.064451"
       style="fill:#bab41a;fill-opacity:1;fill-rule:nonzero;stroke:none;stroke-width:0.0470599"
       id="path86" />
    <path
       d="m 18.304452,16.386025 c 0.0024,0.02544 0.0043,0.05043 0.0068,0.07542 0.06434,0.703274 1.110453,0.704637 1.174311,0 0.0024,-0.02499 0.0048,-0.04997 0.0073,-0.07542 0.06484,-0.711906 -1.253281,-0.713269 -1.188449,0"
       style="fill:#bab41a;fill-opacity:1;fill-rule:nonzero;stroke:none;stroke-width:0.0470599"
       id="path88" />
    <path
       d="m 19.223331,20.87235 c -0.705368,0 -0.706831,1.022202 0,1.022202 0.705854,0 0.706829,-1.022202 0,-1.022202"
       style="fill:#bab41a;fill-opacity:1;fill-rule:nonzero;stroke:none;stroke-width:0.0470599"
       id="path90" />
    <path
       d="m 21.236576,32.763044 c -0.201812,-0.3003 -0.535728,-0.457037 -0.916441,-0.409335 -0.542553,0.06815 -0.912055,0.571069 -0.764839,1.069904 0.136005,0.459764 0.64541,0.701911 1.131416,0.598328 0.568875,-0.120392 0.85502,-0.804586 0.549864,-1.258897"
       style="fill:#bab41a;fill-opacity:1;fill-rule:nonzero;stroke:none;stroke-width:0.0470599"
       id="path92" />
    <path
       d="m 22.067223,29.904062 c -0.676606,0 -0.677582,0.979496 0,0.979496 0.676119,0 0.677581,-0.979496 0,-0.979496"
       style="fill:#bab41a;fill-opacity:1;fill-rule:nonzero;stroke:none;stroke-width:0.0470599"
       id="path94" />
    <path
       d="m 24.585487,27.536646 c -0.808224,0 -0.809686,1.171669 0,1.171669 0.80871,0 0.810172,-1.171669 0,-1.171669"
       style="fill:#bab41a;fill-opacity:1;fill-rule:nonzero;stroke:none;stroke-width:0.0470599"
       id="path96" />
    <path
       d="m 35.960083,31.936197 c -0.409475,0 -0.801886,0.335736 -0.782388,0.72917 0.01901,0.395251 0.343666,0.72917 0.782388,0.72917 0.409473,0 0.801398,-0.335282 0.782387,-0.72917 -0.01901,-0.394797 -0.344154,-0.72917 -0.782387,-0.72917"
       style="fill:#bab41a;fill-opacity:1;fill-rule:nonzero;stroke:none;stroke-width:0.0470599"
       id="path98" />
    <path
       d="m 38.478346,29.626023 c -0.388513,0 -0.760452,0.318472 -0.742416,0.692371 0.01804,0.374807 0.326605,0.691917 0.742416,0.691917 0.388513,0 0.760939,-0.318474 0.742414,-0.691917 -0.01754,-0.375262 -0.325628,-0.692371 -0.742414,-0.692371"
       style="fill:#bab41a;fill-opacity:1;fill-rule:nonzero;stroke:none;stroke-width:0.0470599"
       id="path100" />
    <path
       d="m 40.131352,31.658613 c -0.0097,-0.02316 -0.01853,-0.04543 -0.02779,-0.0686 -0.238372,-0.594239 -1.061707,-0.595147 -1.300079,0 -0.0092,0.02317 -0.01852,0.04544 -0.02778,0.0686 -0.162816,0.4057 0.252507,0.828664 0.677581,0.828664 0.426534,0 0.840395,-0.423873 0.678068,-0.828664"
       style="fill:#bab41a;fill-opacity:1;fill-rule:nonzero;stroke:none;stroke-width:0.0470599"
       id="path102" />
    <path
       d="m 31.085395,37.165776 c -1.000287,0 -1.001748,1.448345 0,1.448345 0.999798,0 1.001261,-1.448345 0,-1.448345"
       style="fill:#bab41a;fill-opacity:1;fill-rule:nonzero;stroke:none;stroke-width:0.0470599"
       id="path104" />
    <path
       d="m 27.872976,37.931745 c -0.145753,-0.30984 -0.518179,-0.505648 -0.882319,-0.404336 -0.193525,0.05362 -0.344152,0.125843 -0.480645,0.26668 -0.197911,0.204894 -0.273469,0.485204 -0.151114,0.744616 0.107731,0.228974 0.37925,0.444772 0.66832,0.419329 0.202787,-0.01817 0.372426,-0.03907 0.539627,-0.155373 0.299306,-0.207621 0.467482,-0.529729 0.306131,-0.870916"
       style="fill:#bab41a;fill-opacity:1;fill-rule:nonzero;stroke:none;stroke-width:0.0470599"
       id="path106" />
    <path
       d="m 6.955692,11.787485 c -0.383638,0 -0.7097544,0.303935 -0.7097544,0.661023 0,0.358906 0.3246542,0.661478 0.7097544,0.661478 0.3831506,0 0.7092671,-0.303935 0.7092671,-0.661478 0,-0.358452 -0.3246542,-0.661023 -0.7092671,-0.661023"
       style="fill:#bab41a;fill-opacity:1;fill-rule:nonzero;stroke:none;stroke-width:0.0470599"
       id="path108" />
    <path
       d="m 5.7370204,13.588376 c -0.8311344,0 -0.8321093,1.20347 0,1.20347 0.8306466,0 0.8321087,-1.20347 0,-1.20347"
       style="fill:#bab41a;fill-opacity:1;fill-rule:nonzero;stroke:none;stroke-width:0.0470599"
       id="path110" />
    <path
       d="m 7.1321558,27.364915 c -0.052647,-0.697822 -1.1128913,-0.699185 -1.1655381,0 l -0.00537,0.07587 c -0.053622,0.705546 1.2298837,0.706909 1.1767497,0 l -0.00585,-0.07587"
       style="fill:#bab41a;fill-opacity:1;fill-rule:nonzero;stroke:none;stroke-width:0.0470599"
       id="path112" />
    <path
       d="m 7.4431607,25.178768 c -0.8233347,0 -0.8247969,1.192568 0,1.192568 0.8233347,0 0.8243097,-1.192568 0,-1.192568"
       style="fill:#bab41a;fill-opacity:1;fill-rule:nonzero;stroke:none;stroke-width:0.0470599"
       id="path114" />
    <path
       d="m 28.485237,8.9003358 c -0.389,0 -0.719991,0.308477 -0.719991,0.6710179 0,0.363903 0.329527,0.6710183 0.719991,0.6710183 0.389,0 0.719991,-0.3084776 0.719991,-0.6710183 0,-0.3639039 -0.329529,-0.6710179 -0.719991,-0.6710179"
       style="fill:#bab41a;fill-opacity:1;fill-rule:nonzero;stroke:none;stroke-width:0.0470599"
       id="path116" />
    <path
       d="m 27.531261,11.26321 c -0.01171,-0.01864 -0.0234,-0.03771 -0.03461,-0.05679 -0.201324,-0.3321 -0.745826,-0.3321 -0.947152,0 l -0.03461,0.05679 c -0.218873,0.360722 0.05704,0.825483 0.507943,0.825483 0.450908,0 0.726816,-0.464761 0.50843,-0.825483"
       style="fill:#bab41a;fill-opacity:1;fill-rule:nonzero;stroke:none;stroke-width:0.0470599"
       id="path118" />
    <path
       d="m 32.48833,43.651071 c -6.578879,0.348457 -15.544403,1.308872 -19.475351,-4.93791 1.246944,-0.227156 2.470005,-0.497471 3.661864,-0.827302 0.0048,0.0031 0.0064,0.0077 0.01121,0.01136 4.213193,2.627737 8.782724,3.404155 13.701772,2.316079 0.155989,-0.03453 0.09945,-0.268044 -0.05655,-0.253506 -4.337008,0.397977 -8.722278,-0.473393 -12.534771,-2.409668 3.273352,-0.999485 6.366829,-2.339249 9.372075,-3.85665 0.03509,0.08042 0.09603,0.151287 0.196449,0.192629 4.102538,1.672321 9.719151,2.641365 13.72907,0.306206 -1.99716,3.716722 -5.19203,6.070962 -9.790323,7.228549 -0.256896,0.06497 -0.36024,0.275312 -0.352927,0.487476 -0.039,0.06406 -0.04143,0.14856 0.02925,0.195808 0.0048,0.0031 0.01072,0.0068 0.01511,0.0099 0.078,0.184449 0.245684,0.323469 0.487468,0.308023 0.141366,0.08949 0.282244,0.18127 0.398749,0.281219 0.977863,0.143561 1.173338,0.460671 0.606899,0.947693 z m -1.118253,1.093983 c -2.293054,1.775449 -5.445026,2.316535 -8.349365,2.058486 -4.928309,-0.438866 -9.142476,-2.9294 -12.136509,-6.515281 0.368038,-0.38253 0.72974,-0.770967 1.085593,-1.163492 3.401556,6.22543 13.490698,6.708362 20.084687,5.060121 -0.1867,0.22443 -0.411425,0.413877 -0.684406,0.560166 z M 9.4685933,39.906637 C 5.4752496,38.55506 2.3120648,35.693807 1.2898427,31.757199 c -0.57131313,-2.201594 -0.052647,-4.345035 0.00146,-6.52255 3.1319869,4.580822 3.9309479,10.485508 9.6557813,13.071904 -0.482594,0.539721 -0.9759127,1.072628 -1.4784931,1.600084 z M 2.8438932,25.955642 c 0.5396279,0.481115 1.3000792,-0.33074 0.7638635,-0.809584 -0.00194,-0.0018 -0.00341,-0.0036 -0.00585,-0.0054 C 2.6737665,21.989099 2.7571237,18.963839 3.373284,16.004 4.9658445,18.462734 5.6868105,21.945031 9.1005543,22.61923 9.7293902,27.454445 10.813521,32.269691 11.03532,37.10947 7.4421858,35.276295 5.7706553,31.951189 4.0318544,28.581108 3.5473107,27.64159 3.1027392,26.588043 2.5002278,25.663973 c 0.1140677,0.09768 0.2295977,0.190356 0.3436654,0.291669 z M 8.1319543,2.8598109 C 8.7988114,8.3519817 8.3610645,13.920477 8.7627387,19.438089 8.8095361,20.085029 8.8777814,20.73106 8.9494394,21.377091 7.6230366,20.394869 6.4691981,19.54667 5.6390392,17.97657 5.0589512,16.878044 4.578307,15.763618 3.6097068,14.948584 4.6309538,10.861598 6.56133,6.8854643 8.1319543,2.8598109 Z m 5.7765047,8.2834611 c -0.210099,1.829966 -0.149166,3.505467 -0.904742,5.328618 -0.703905,1.697762 -1.725152,3.25605 -2.772235,4.787988 C 10.127164,20.409861 10.040882,19.5603 9.9828735,18.712554 9.6806421,14.287561 10.1413,9.6108787 9.4944292,5.1613525 10.789147,7.2598172 12.527947,9.0734281 13.908459,11.143272 Z m 1.9411,4.198745 c 0.180851,0.733259 1.364914,0.344823 1.185524,-0.382075 -0.03413,-0.136294 -0.08141,-0.263956 -0.119916,-0.397523 2.177521,-2.625466 4.782554,-4.457704 7.673732,-5.7942882 -2.734212,3.9347922 -4.982418,10.2215532 -2.579197,14.1967782 -2.960398,4.818427 -6.066548,9.474212 -9.710865,13.789262 -0.02632,-1.230277 -0.122355,-2.463732 -0.261771,-3.698096 0.02925,-0.02044 0.05947,-0.03453 0.08775,-0.0636 2.923349,-3.0716 4.469111,-7.27716 4.362356,-11.362328 -0.0068,-0.262138 -0.454808,-0.286216 -0.494293,-0.02454 -0.582038,3.819851 -1.91819,6.994124 -4.115211,10.169307 -0.412886,-3.067512 -1.034896,-6.141838 -1.472156,-9.207076 0.02682,-0.02089 0.05605,-0.03725 0.07848,-0.0677 1.812897,-2.45737 4.604142,-6.469849 4.301912,-9.895812 0.448471,0.846837 0.819435,1.748645 1.063656,2.737681 z M 34.852065,5.7483229 C 29.346594,9.1102273 26.269691,15.916268 23.210337,20.994106 c -0.183776,0.304844 -0.369013,0.608323 -0.553764,0.912258 -1.580861,-4.41091 0.754113,-9.817671 3.176346,-13.6775005 2.812207,-1.1398676 5.857912,-1.8835752 9.019146,-2.4805406 z m -1.129952,7.1694891 c -1.974736,4.257352 -5.577617,6.834207 -9.908776,9.232517 3.403506,-5.77339 6.672471,-11.522247 11.864502,-16.0703587 -1.402449,2.0321348 -1.786574,4.3931927 -1.955726,6.8378417 z m -2.103915,10.843051 c -0.10773,0.167641 -0.08336,0.333011 0.0019,0.470212 -0.0029,0.119484 0.04972,0.242148 0.173541,0.280311 0.0658,0.01999 0.578136,0.08042 0.646382,0.114486 0.06191,0.03044 0.563514,-0.09132 1.195761,-0.257141 -4.10985,2.61956 -8.788573,5.69116 -10.121313,10.066179 -3.265065,1.375655 -6.664673,2.449648 -10.253418,3.219251 3.228018,-3.809401 5.980266,-7.988613 8.562877,-12.184178 0.372426,-0.605144 0.737539,-1.213012 1.100703,-1.821335 0.03754,-0.0054 0.07409,-0.0059 0.113093,-0.02226 4.127886,-1.730928 8.553127,-4.521764 10.561985,-8.378413 -0.136979,2.971197 -0.331478,5.951026 -1.98156,8.512887 z m 4.835203,-0.08404 c 2.686439,-0.226701 5.40944,-0.279855 8.120741,-0.353 -4.480325,1.218009 -8.521928,4.182846 -12.275925,6.536179 -2.512901,1.575552 -5.078937,2.944392 -7.723942,4.121059 1.615471,-2.559137 3.509288,-4.531303 6.105058,-6.437139 1.578912,-1.158948 3.126138,-2.257472 4.499337,-3.583154 0.569364,-0.147198 1.062682,-0.266226 1.274731,-0.283945 z m 9.375489,-0.09132 c -1.902595,2.560954 -2.662557,5.533512 -3.78666,8.523337 -0.150141,0.398885 -0.314904,0.780961 -0.486006,1.154406 -4.624617,1.894477 -8.738365,1.376108 -13.502885,-0.01409 5.955893,-3.084775 11.62223,-6.767424 17.775551,-9.663659 z M 34.102826,42.904639 c -0.569363,-0.23488 -1.114841,-0.457038 -1.670555,-0.658752 3.455178,-0.730079 6.536468,-2.650453 8.563364,-5.390859 3.164647,-4.278707 2.988183,-9.869916 6.829435,-13.808798 0.36853,-0.377532 0.01318,-0.964048 -0.505016,-0.942241 -4.21563,0.178999 -10.069642,-0.545628 -13.997178,1.267984 C 36.929658,17.789847 32.703304,9.9325312 38.10982,5.0591326 38.460309,4.7429316 38.121519,4.0728224 37.626737,4.1573243 29.99249,5.4593808 20.98163,7.1407873 16.631946,13.705588 14.778591,8.8594478 9.830783,5.9650296 8.8538954,0.82131524 8.7451898,0.25160871 7.9901008,0.23434477 7.8048625,0.76906955 5.1817933,8.3324464 -0.10626756,16.424188 2.8287818,24.493667 2.2506436,24.01664 1.6637314,23.56142 1.0212476,23.123009 c -0.37681339,-0.25714 -1.03392116,-0.05951 -0.9632383,0.447952 0.55912652,4.0252 -1.01539729,7.236272 1.1967357,11.105188 1.684692,2.946664 4.5095735,4.77754 7.860921,5.600752 -0.9169288,0.948602 -1.8640807,1.878577 -2.8541293,2.783111 -0.5566897,0.508829 0.3387907,1.203926 0.896455,0.735077 1.002723,-0.844112 1.9576743,-1.730019 2.8785023,-2.644093 2.975023,3.621317 7.207227,6.103672 12.131148,6.70518 5.088199,0.621497 8.528264,-1.077169 12.067288,-4.340034 0.191575,-0.176727 0.105781,-0.513372 -0.132104,-0.611503"
       style="fill:#6f3718;fill-opacity:1;fill-rule:nonzero;stroke:none;stroke-width:0.0470599"
       id="path120" />
  </g>
</svg>
