<?xml version="1.0" encoding="UTF-8" standalone="no"?>
<!-- Created with Inkscape (http://www.inkscape.org/) -->

<svg
   width="48"
   height="48"
   viewBox="0 0 48 48"
   version="1.1"
   id="svg1"
   inkscape:version="1.3 (0e150ed, 2023-07-21)"
   sodipodi:docname="leaf5.svg"
   xmlns:inkscape="http://www.inkscape.org/namespaces/inkscape"
   xmlns:sodipodi="http://sodipodi.sourceforge.net/DTD/sodipodi-0.dtd"
   xmlns="http://www.w3.org/2000/svg"
   xmlns:svg="http://www.w3.org/2000/svg">
  <sodipodi:namedview
     id="namedview1"
     pagecolor="#505050"
     bordercolor="#ffffff"
     borderopacity="1"
     inkscape:showpageshadow="0"
     inkscape:pageopacity="0"
     inkscape:pagecheckerboard="1"
     inkscape:deskcolor="#505050"
     inkscape:document-units="px"
     inkscape:zoom="8.3854167"
     inkscape:cx="12.462112"
     inkscape:cy="19.021118"
     inkscape:window-width="1920"
     inkscape:window-height="1011"
     inkscape:window-x="0"
     inkscape:window-y="0"
     inkscape:window-maximized="1"
     inkscape:current-layer="layer1" />
  <defs
     id="defs1" />
  <g
     inkscape:label="Layer 1"
     inkscape:groupmode="layer"
     id="layer1">
    <path
       d="M 32.220821,2.869735 C 30.898931,2.2905276 29.697697,2.2249721 28.073791,2.6437593 27.343035,2.8311728 26.456717,2.8450552 25.518797,2.8604799 23.331079,2.8951876 21.065199,2.9283527 20.650119,5.2228126 20.621273,5.3793759 20.50518,5.4919782 20.346584,5.5174294 20.170535,5.5459657 19.99221,5.4634419 19.911772,5.3153624 19.681846,4.8958035 19.570297,4.4453947 19.578644,3.976476 18.74848,3.84922 18.200602,4.4199435 17.620853,5.0230594 c -0.25421,0.2637668 -0.516766,0.5375599 -0.803606,0.7427118 -0.381693,0.2745643 -0.718616,0.3948791 -1.076026,0.5221349 -0.176808,0.064013 -0.360447,0.1295697 -0.558503,0.217492 -2.73332,1.2231993 -1.922885,3.3688112 -1.067679,5.6409079 0.08043,0.212093 0.160113,0.424186 0.236756,0.634737 0.382452,0.380225 0.707233,0.778189 0.969031,1.183865 0.230685,0.35863 0.08955,0.760452 -0.151008,0.991054 -0.296704,0.289218 -0.713304,0.340121 -1.013042,0.121857 -0.421155,-0.306956 -0.819541,-0.644762 -1.20503,-0.971772 -0.92426,-0.785131 -1.798436,-1.527071 -2.9769052,-1.875675 -1.3810792,-0.409533 -2.7682277,-0.286904 -3.9095141,0.344748 -0.2139912,0.30927 -0.3733464,0.622397 -0.4697183,0.934752 -0.29291,0.953263 -0.1092721,1.875676 0.08423,2.853618 0.036424,0.182786 0.072848,0.365571 0.1062367,0.549128 0.09106,0.500541 -0.2094382,0.863798 -0.5706432,0.986427 -0.2686273,0.567638 -0.6184498,1.10057 -0.9553721,1.614993 -0.1798437,0.274564 -0.3627228,0.554528 -0.5296663,0.830634 -0.3718287,0.618541 -0.7163393,1.227827 -0.8453411,1.888016 -0.1426609,0.725743 0.090302,1.244022 0.3589284,1.844824 0.05843,0.130341 0.1183782,0.265309 0.1768084,0.405677 0.146455,0.351689 0.073607,0.710319 -0.1813614,0.937066 0.069813,0.737313 -0.2792509,1.750733 -0.4499885,2.248188 l -0.034147,0.100262 c -0.7565577,2.221966 -1.3249244,4.507174 0.6943331,5.910845 3.2994107,0.930125 7.6634646,-0.392566 11.1715566,-1.455345 0.890112,-0.269937 1.730141,-0.524449 2.49277,-0.724974 0.399146,-0.104889 0.800568,-0.212864 1.205787,-0.320839 2.382739,-0.640906 4.839844,-1.299552 7.302261,-1.539411 -6.532804,-2.40475 -13.190055,-3.41817 -20.3268895,-3.09656 -0.2542096,0.0108 -0.4059763,-0.196668 -0.4249473,-0.407219 -0.020489,-0.239858 0.1198959,-0.437298 0.3399577,-0.467376 7.1216571,-0.968687 14.4611011,-0.04705 21.2746731,2.663119 -1.149634,-1.095944 -2.281056,-2.215796 -3.380606,-3.303255 -2.549684,-2.524295 -5.187391,-5.133426 -8.074755,-7.471851 -0.183637,-0.149622 -0.188949,-0.375597 -0.0994,-0.522906 7.39e-4,-0.0023 0.0015,-0.0039 0.0029,-0.0054 0.106998,-0.170446 0.313401,-0.222892 0.500832,-0.128027 3.671997,1.861021 7.442645,5.001543 10.937075,9.106896 -1.583686,-4.797163 -2.879016,-9.777883 -4.133369,-14.602039 -0.282286,-1.086688 -0.564572,-2.1726049 -0.849894,-3.2546659 -0.02201,-0.08638 -0.0077,-0.1712171 0.0349,-0.2414006 0.03719,-0.062472 0.09713,-0.1126022 0.173014,-0.1403671 0.158596,-0.057072 0.320987,0.00926 0.387764,0.158877 2.428269,5.4473246 4.132611,11.3304046 5.781558,17.0191296 l 0.302774,1.044269 c 0.197297,-1.535554 0.620726,-3.070338 1.032773,-4.561931 0.102443,-0.367885 0.202609,-0.733457 0.298981,-1.095172 0.177568,-0.665587 0.353617,-1.34043 0.530425,-2.019899 1.088965,-4.174754 2.214316,-8.4914293 4.071943,-12.3337868 0.12369,-0.45735 0.475788,-1.7376217 0.110031,-2.2489591 C 33.925855,3.4690164 33.198132,3.2183601 32.716273,3.052542 32.515941,2.9831261 32.339891,2.922201 32.220754,2.8697565"
       style="fill:#fbda5a;fill-opacity:1;fill-rule:nonzero;stroke:none;stroke-width:0.0765014"
       id="path54" />
    <path
       d="m 34.111836,3.7304477 c 0.365757,0.5113375 0.01366,1.7916092 -0.110032,2.2489592 -1.857626,3.8423574 -2.982977,8.1590331 -4.071903,12.3337971 -0.176809,0.67947 -0.352859,1.354313 -0.530426,2.019899 -0.09637,0.361715 -0.196538,0.727287 -0.298981,1.095172 -0.412047,1.491594 -0.835476,3.026377 -1.032772,4.561932 L 27.764946,24.945938 C 26.116002,19.257213 24.411658,13.374133 21.98339,7.9268081 21.916617,7.777186 21.754222,7.7108587 21.595625,7.7679311 c -0.07588,0.027765 -0.135831,0.077896 -0.173014,0.140367 -0.0425,0.070184 -0.05692,0.1550209 -0.0349,0.2414007 0.285323,1.0820609 0.567608,2.1679772 0.849894,3.2546662 1.254351,4.824156 2.549681,9.804876 4.133367,14.602039 -3.494432,-4.105354 -7.265077,-7.245875 -10.937076,-9.106897 -0.187432,-0.09486 -0.393835,-0.04242 -0.50083,0.128027 -0.0015,0.0016 -0.0022,0.0031 -0.0029,0.0054 -0.08955,0.147309 -0.08423,0.373285 0.09942,0.522907 2.887364,2.338424 5.525072,4.947555 8.074754,7.47185 1.099552,1.08746 2.230973,2.207312 3.380606,3.303256 -6.81357,-2.710167 -14.153015,-3.631807 -21.2746727,-2.66312 -0.220062,0.03008 -0.3604463,0.227519 -0.3399577,0.467377 0.018971,0.210551 0.1707376,0.418016 0.424947,0.407218 7.1368344,-0.32161 13.7940854,0.691811 20.3268894,3.096561 -2.462418,0.239858 -4.919522,0.898504 -7.302261,1.539411 -0.405218,0.107975 -0.80664,0.215949 -1.205787,0.320839 -0.762629,0.200524 -1.602659,0.455036 -2.49277,0.724973 -3.50817,1.062783 -7.8722255,2.385473 -11.1716361,1.455348 C 1.4303803,32.27589 1.998747,29.990682 2.7553046,27.768716 l 0.034147,-0.100262 C 2.9601776,27.170988 3.3092414,26.157568 3.2394285,25.420255 3.4943968,25.193508 3.567245,24.834878 3.4207899,24.483189 3.3623597,24.342821 3.3024118,24.207853 3.2439816,24.077512 2.9753544,23.47671 2.7423922,22.958431 2.8850531,22.232688 3.0140549,21.572499 3.3585655,20.963213 3.7303942,20.344672 3.8973376,20.068566 4.0802167,19.788602 4.2600604,19.514038 4.5969827,18.999615 4.9468052,18.466683 5.2154325,17.899045 5.5766375,17.776416 5.8771358,17.413159 5.7860757,16.912618 5.7526868,16.729061 5.716263,16.546276 5.679839,16.36349 5.4863363,15.385548 5.3026984,14.463135 5.5956084,13.509872 5.6919803,13.197517 5.8513355,12.88439 6.0653267,12.57512 c 1.1412864,-0.631652 2.5284349,-0.754281 3.9095141,-0.344748 1.1784692,0.348604 2.0526452,1.090544 2.9769052,1.875675 0.385489,0.32701 0.783875,0.664816 1.20503,0.971772 0.299738,0.218264 0.716338,0.167361 1.013042,-0.121857 0.24055,-0.230602 0.381693,-0.632424 0.151008,-0.991054 -0.261798,-0.405676 -0.586579,-0.80364 -0.969031,-1.183865 -0.07664,-0.210551 -0.156319,-0.422644 -0.236756,-0.634737 -0.855206,-2.2720967 -1.665641,-4.4177086 1.067679,-5.6409079 0.198056,-0.087922 0.381695,-0.1534784 0.558503,-0.217492 0.35741,-0.1272558 0.694333,-0.2475706 1.076026,-0.5221349 0.28684,-0.2051519 0.549396,-0.478945 0.803606,-0.7427118 0.579749,-0.6031159 1.127627,-1.1738394 1.957791,-1.0465834 -0.0084,0.4689187 0.103202,0.9193275 0.333128,1.3388864 0.08043,0.1480797 0.258763,0.2306032 0.434812,0.202067 0.158596,-0.025451 0.274698,-0.1380535 0.303535,-0.2946168 0.41508,-2.2944629 2.68096,-2.3276264 4.868678,-2.3623327 0.93792,-0.015422 1.824238,-0.029308 2.554994,-0.2167206 1.623906,-0.4187872 2.82514,-0.3532317 4.14703,0.2259757 0.119136,0.052444 0.295186,0.1133736 0.495519,0.1827856 0.481859,0.1658181 1.20958,0.4164743 1.395496,0.6779271 z M 27.397671,0.85677755 C 26.536394,1.0742696 25.723683,1.2794213 24.795629,1.2778791 24.493613,1.2771267 24.18932,1.2532001 23.866816,1.2277421 23.105705,1.1668122 22.318795,1.1051133 21.578931,1.3742791 21.012081,1.5802023 20.527187,1.9164658 20.172053,2.3514497 19.162803,1.9056693 18.237026,2.0483498 17.188317,2.8049441 16.860501,3.0409457 16.584285,3.2661507 16.340699,3.4659038 15.697207,3.9918947 15.189547,4.4068262 14.163604,4.7022141 l -0.06374,0.01851 C 13.605105,4.8634113 13.212789,4.9767848 12.773423,5.3122776 10.726089,6.8725123 11.393104,9.6397501 11.930358,11.071957 10.391442,10.320762 8.7971328,10.090159 7.5033203,10.439534 6.1776372,10.424108 5.0128268,11.12903 4.2600635,12.354543 3.3828512,13.824542 3.3115207,15.730295 4.069596,17.243484 c -1.2718059,1.170754 -2.4442047,2.893723 -2.8714281,4.22721 -0.38321127,1.199291 -0.34830496,2.864415 0.616932,3.730526 -0.03263,0.647078 -0.4287412,1.462287 -0.7800814,2.184175 -0.22082079,0.452723 -0.42798243,0.880765 -0.54180761,1.24865 -0.36348148,1.173069 -0.47958311,2.198057 -0.35589314,3.130496 0.23296212,1.75459 1.32871855,3.586303 3.25236305,3.725899 0.07209,0.0047 0.1434196,-0.0015 0.2177853,-0.01928 2.2104838,0.752738 4.8906856,0.174302 7.2574889,-0.337806 l 0.594168,-0.127257 C 16.998611,33.833802 22.61702,32.717806 28.05103,31.637288 l 0.73986,-0.146538 c 5.289833,5.043962 11.469778,10.83912 17.92518,15.867656 0.235997,0.183558 0.547118,0.144995 0.756557,-0.0964 0.02657,-0.03007 0.05084,-0.06324 0.07209,-0.09872 0.132796,-0.219034 0.153285,-0.515964 -0.05995,-0.738084 C 41.874703,40.579134 35.670474,35.19968 29.794823,30.191196 29.733353,30.0462 29.638503,29.918174 29.51785,29.81714 c 0.07967,-4.986889 1.82803,-9.865805 3.519471,-14.585842 1.101828,-3.075737 2.242355,-6.2579064 2.8904,-9.3930294 C 36.452832,4.7361552 36.763196,3.5738844 35.483802,2.5273007 33.939575,1.2647681 31.225226,0.16496876 29.022329,0.50277439 28.454722,0.58992605 27.916708,0.72566581 27.397666,0.85677755"
       style="fill:#6f3718;fill-opacity:1;fill-rule:nonzero;stroke:none;stroke-width:0.0765014"
       id="path56" />
  </g>
</svg>
