<?xml version="1.0" encoding="UTF-8" standalone="no"?>
<!-- Created with Inkscape (http://www.inkscape.org/) -->

<svg
   width="48"
   height="48"
   viewBox="0 0 48 48"
   version="1.1"
   id="svg1"
   inkscape:version="1.3 (0e150ed, 2023-07-21)"
   sodipodi:docname="leaf6.svg"
   xmlns:inkscape="http://www.inkscape.org/namespaces/inkscape"
   xmlns:sodipodi="http://sodipodi.sourceforge.net/DTD/sodipodi-0.dtd"
   xmlns="http://www.w3.org/2000/svg"
   xmlns:svg="http://www.w3.org/2000/svg">
  <sodipodi:namedview
     id="namedview1"
     pagecolor="#505050"
     bordercolor="#ffffff"
     borderopacity="1"
     inkscape:showpageshadow="0"
     inkscape:pageopacity="0"
     inkscape:pagecheckerboard="1"
     inkscape:deskcolor="#505050"
     inkscape:document-units="px"
     inkscape:zoom="8"
     inkscape:cx="16.6875"
     inkscape:cy="20.4375"
     inkscape:window-width="1920"
     inkscape:window-height="1011"
     inkscape:window-x="0"
     inkscape:window-y="0"
     inkscape:window-maximized="1"
     inkscape:current-layer="layer1" />
  <defs
     id="defs1" />
  <g
     inkscape:label="Layer 1"
     inkscape:groupmode="layer"
     id="layer1">
    <path
       d="m 31.62884,14.895233 c 0.02972,-0.822342 -0.340543,-1.685085 -0.959745,-2.270565 -0.287399,-0.271725 -0.646123,-0.494253 -1.052748,-0.56984 -0.285301,-0.05279 -1.02163,-0.04953 -1.159386,0.259019 -0.01398,0.03161 -0.01888,0.06582 -0.03077,0.09807 -0.05384,0.142053 -0.231107,0.202653 -0.389491,0.234257 -0.742273,0.147592 -0.42096,-1.387948 -0.434596,-1.761325 C 27.58148,10.336837 27.547564,9.7891505 27.495468,9.2430949 27.319253,7.3879357 26.978359,5.4650094 26.088541,3.7792717 25.272495,2.2336328 23.885498,1.0170609 21.958665,0.95059581 19.286413,0.85839167 17.533349,3.4697534 16.983025,5.5666618 c -0.55347,2.1099406 -0.143699,4.2736404 0.815696,6.2154622 0.185306,0.375333 -0.26677,0.842544 -0.671297,0.574077 -1.612512,-1.070283 -4.040719,-2.127208 -4.907811,0.498814 -0.313273,0.948105 0.08601,2.160443 0.320264,3.104311 0.557666,2.24841 1.635588,4.230959 3.112441,6.065266 0.271316,0.336561 -0.01958,0.748384 -0.456622,0.663021 -1.824739,-0.355457 -4.455734,1.122089 -4.022887,3.038824 0.15279,0.676706 0.464314,1.36905 0.787725,1.992323 0.858351,1.653483 2.134515,3.01113 3.660317,4.155699 0.303133,0.22774 0.201739,0.741215 -0.247191,0.714173 -6.3951537,-0.386736 -2.07263,6.831829 0.108736,9.823182 0.275861,-0.671853 0.545779,-1.344354 0.813599,-2.016856 -1.364972,-1.718253 -2.233112,-3.883875 -2.407929,-6.003264 -0.02203,-0.267914 0.419561,-0.272997 0.484592,-0.03652 0.522003,1.907874 1.236655,3.558425 2.242902,5.227936 1.135611,-2.901722 2.170527,-5.827783 3.032375,-8.832037 -2.721551,-1.274892 -4.727051,-3.817182 -6.022095,-6.326565 -0.05908,-0.114032 0.106289,-0.231324 0.198942,-0.13065 1.93837,2.103751 3.448089,4.293515 6.030835,5.745647 0.264323,-0.959182 0.513962,-1.924881 0.738427,-2.903286 0.30628,-1.33647 0.568155,-2.680108 0.810452,-4.026677 -3.220478,-2.809454 -6.136075,-6.339272 -7.474125,-10.305674 -0.07063,-0.20982 0.277959,-0.314079 0.380752,-0.12902 2.012143,3.624953 4.076381,6.852421 7.224835,9.697061 0.364319,-2.125579 0.662556,-4.26126 0.885972,-6.405409 0.379703,-3.636683 0.240899,-7.3326653 0.689479,-10.9527316 0.01119,-0.089598 0.16118,-0.1111007 0.177614,-0.013683 0.794368,4.7102242 0.387394,9.8309676 -0.418163,14.7650246 2.897067,-1.423786 4.592442,-3.521672 6.510883,-5.973063 0.08391,-0.107516 0.269218,-0.03095 0.226913,0.100346 -0.946109,2.938149 -4.000512,5.261494 -6.854923,6.565058 -0.356627,2.082247 -0.775488,4.126701 -1.200992,6.086117 -0.09475,0.436258 -0.192299,0.873494 -0.292294,1.311382 3.555427,-0.733396 6.730802,-1.581152 9.967014,-3.206289 0.09615,-0.04822 0.182509,0.07396 0.107687,0.142053 -2.630646,2.388833 -6.719615,3.093883 -10.20966,3.639614 -0.811151,3.471499 -1.797468,6.987013 -3.039368,10.407389 2.942519,-0.688791 5.351497,-1.981961 7.980744,-3.426599 0.131812,-0.0723 0.236702,0.09937 0.144748,0.191544 -2.163535,2.177677 -5.343105,3.390044 -8.415688,4.012407 -0.340194,0.903728 -0.698219,1.799444 -1.076173,2.684992 3.009648,-0.145958 5.946923,-0.902589 8.507992,-2.431218 1.858654,-1.109417 3.243903,-2.447514 3.105098,-4.584758 -0.137406,-2.115512 -2.063539,-2.777882 -4.060997,-3.142789 -0.356278,-0.06516 -0.39229,-0.609915 -0.06713,-0.7347 2.323317,-0.890763 4.917251,-1.745686 6.861915,-3.278293 1.562514,-1.231233 3.706819,-4.636266 0.262575,-5.873039 -1.221621,-0.438864 -2.775393,0.15248 -3.92499,0.536608 -0.40103,0.134561 -0.704513,-0.449941 -0.38215,-0.68485 1.534543,-1.119156 2.754416,-2.439661 3.59144,-4.087277 0.477599,-0.940286 0.977576,-2.073126 1.015336,-3.124512"
       style="fill:#bab41a;fill-opacity:1;fill-rule:nonzero;stroke:none;stroke-width:0.033751"
       id="path122" />
    <path
       d="m 19.545842,9.0036238 c -0.328657,0.067117 -0.580393,0.4007453 -0.490886,0.7138482 0.08951,0.314081 0.413267,0.52944 0.765698,0.457436 C 20.14896,10.108118 20.401046,9.7744882 20.31154,9.4613863 20.22203,9.1473066 19.898272,8.9319464 19.545842,9.0036238"
       style="fill:#a09920;fill-opacity:1;fill-rule:nonzero;stroke:none;stroke-width:0.033751"
       id="path124" />
    <path
       d="m 19.481859,7.4071585 c -0.07587,-0.3016995 -0.333901,-0.5310693 -0.65871,-0.587434 -0.312923,-0.05441 -0.679689,0.068419 -0.846464,0.3355832 -0.146847,0.2352343 -0.174468,0.5294404 -0.03601,0.7754259 0.17132,0.3039804 0.552072,0.4616714 0.909398,0.3945558 l 0.05699,-0.010749 c 0.403478,-0.076239 0.682486,-0.4808948 0.588085,-0.854598 l -0.01329,-0.052781"
       style="fill:#a09920;fill-opacity:1;fill-rule:nonzero;stroke:none;stroke-width:0.033751"
       id="path126" />
    <path
       d="m 19.947571,4.6126921 c -0.403827,0.082104 -0.713603,0.4919719 -0.603468,0.8770785 0.110134,0.3860842 0.508368,0.6506415 0.941214,0.5626728 0.404178,-0.082104 0.713603,-0.4922979 0.603818,-0.8774046 -0.110134,-0.386084 -0.508018,-0.650641 -0.941564,-0.5623467"
       style="fill:#a09920;fill-opacity:1;fill-rule:nonzero;stroke:none;stroke-width:0.033751"
       id="path128" />
    <path
       d="m 21.190519,13.473402 c -0.345438,0.07038 -0.610111,0.420945 -0.516409,0.750013 0.0944,0.330044 0.434945,0.556481 0.804858,0.480894 0.345438,-0.07038 0.610111,-0.420946 0.516409,-0.750013 -0.0944,-0.330045 -0.434595,-0.556483 -0.804858,-0.480894"
       style="fill:#a09920;fill-opacity:1;fill-rule:nonzero;stroke:none;stroke-width:0.033751"
       id="path130" />
    <path
       d="m 18.690987,14.514688 c -0.881078,0.179521 -0.583189,1.455389 0.298937,1.275544 0.881077,-0.179196 0.583189,-1.45539 -0.298937,-1.275544"
       style="fill:#a09920;fill-opacity:1;fill-rule:nonzero;stroke:none;stroke-width:0.033751"
       id="path132" />
    <path
       d="m 18.743082,23.386474 c -0.393338,0.08014 -0.694723,0.479266 -0.588084,0.854598 0.107338,0.375985 0.495082,0.633699 0.91709,0.547687 0.393338,-0.08014 0.695072,-0.479266 0.588084,-0.854273 -0.107338,-0.37631 -0.495081,-0.634024 -0.91709,-0.548012"
       style="fill:#a09920;fill-opacity:1;fill-rule:nonzero;stroke:none;stroke-width:0.033751"
       id="path134" />
    <path
       d="m 18.30604,21.176511 c -0.02622,-0.06387 -0.07762,-0.126089 -0.129714,-0.173983 -0.274463,-0.24794 -0.728288,-0.236211 -0.943662,0.07688 -0.214676,0.311475 -0.03811,0.70212 0.318865,0.83114 0.06783,0.02476 0.149993,0.0417 0.223067,0.03779 0.456622,-0.02736 0.695073,-0.374029 0.531444,-0.771843"
       style="fill:#a09920;fill-opacity:1;fill-rule:nonzero;stroke:none;stroke-width:0.033751"
       id="path136" />
    <path
       d="m 15.407924,18.066335 c -0.597524,0.121527 -0.395435,0.987202 0.203137,0.865024 0.597525,-0.121528 0.395437,-0.986877 -0.203137,-0.865024"
       style="fill:#a09920;fill-opacity:1;fill-rule:nonzero;stroke:none;stroke-width:0.033751"
       id="path138" />
    <path
       d="m 24.512742,24.080449 c -0.345439,0.07005 -0.610112,0.420619 -0.51641,0.749686 0.0944,0.330045 0.434944,0.556157 0.804857,0.480895 0.345438,-0.07038 0.610111,-0.42062 0.516409,-0.750013 -0.0944,-0.33037 -0.434595,-0.556156 -0.804856,-0.480568"
       style="fill:#a09920;fill-opacity:1;fill-rule:nonzero;stroke:none;stroke-width:0.033751"
       id="path140" />
    <path
       d="m 27.527635,24.218265 c -0.664654,0.135211 -0.440189,1.097979 0.225863,0.962442 0.664305,-0.135537 0.43949,-1.097978 -0.225863,-0.962442"
       style="fill:#a09920;fill-opacity:1;fill-rule:nonzero;stroke:none;stroke-width:0.033751"
       id="path142" />
    <path
       d="m 15.962793,34.922762 c -0.01014,0.0077 -0.02028,0.01593 -0.03042,0.02408 -0.318167,0.251851 -0.24894,0.743887 0.08846,0.945465 0.337397,0.201741 0.846463,0.05512 0.959396,-0.319326 0.0035,-0.01195 0.0073,-0.02378 0.01049,-0.03574 0.17237,-0.571828 -0.541583,-0.999322 -1.027924,-0.614476"
       style="fill:#a09920;fill-opacity:1;fill-rule:nonzero;stroke:none;stroke-width:0.033751"
       id="path144" />
    <path
       d="m 21.457291,35.214361 c -0.767796,0.15639 -0.508018,1.268344 0.260476,1.111564 0.767447,-0.15629 0.508018,-1.267984 -0.260476,-1.111564"
       style="fill:#a09920;fill-opacity:1;fill-rule:nonzero;stroke:none;stroke-width:0.033751"
       id="path146" />
    <path
       d="m 22.553043,33.318119 c -0.01678,-0.01922 -0.03392,-0.03779 -0.05104,-0.05701 -0.231108,-0.256738 -0.68738,-0.198092 -0.872686,0.07102 -0.184956,0.269085 -0.05175,0.679898 0.295091,0.768224 0.02553,0.0068 0.05104,0.01336 0.07657,0.01987 0.51571,0.131726 0.896112,-0.42 0.552072,-0.802109"
       style="fill:#a09920;fill-opacity:1;fill-rule:nonzero;stroke:none;stroke-width:0.033751"
       id="path148" />
    <path
       d="m 25.275643,33.809179 c -0.02622,-0.0055 -0.05245,-0.01051 -0.07832,-0.01602 -0.496132,-0.101725 -0.824437,0.373637 -0.517808,0.752651 0.01608,0.01948 0.03217,0.03933 0.04825,0.05929 0.207332,0.255695 0.658361,0.178185 0.827234,-0.06718 0.169922,-0.246637 0.05594,-0.660024 -0.279358,-0.728738"
       style="fill:#a09920;fill-opacity:1;fill-rule:nonzero;stroke:none;stroke-width:0.033751"
       id="path150" />
    <path
       d="m 16.561716,32.651188 c -0.551373,0.112404 -0.365017,0.910962 0.187055,0.798232 0.551023,-0.111752 0.365017,-0.910637 -0.187055,-0.798232"
       style="fill:#a09920;fill-opacity:1;fill-rule:nonzero;stroke:none;stroke-width:0.033751"
       id="path152" />
    <path
       d="m 12.162273,26.795418 c 0.02238,0.113056 0.06853,0.199394 0.154538,0.282802 0.221668,0.215033 0.606615,0.136513 0.711855,-0.145312 0.04056,-0.109145 0.04405,-0.205258 0.01398,-0.317013 -0.140903,-0.524552 -0.987367,-0.35285 -0.880379,0.179523"
       style="fill:#a09920;fill-opacity:1;fill-rule:nonzero;stroke:none;stroke-width:0.033751"
       id="path154" />
    <path
       d="m 26.066514,14.183992 c -0.01084,-0.0081 -0.02168,-0.01596 -0.03251,-0.02411 -0.219221,-0.159648 -0.566408,-0.118921 -0.778636,0.02085 -0.217821,0.14303 -0.355927,0.417686 -0.284252,0.66856 0.06293,0.219922 0.231108,0.409542 0.46816,0.481546 0.272715,0.08243 0.665703,-0.01499 0.806256,-0.268467 0.0063,-0.0114 0.01259,-0.02313 0.01888,-0.03453 0.174466,-0.314405 0.10384,-0.62425 -0.197893,-0.843845"
       style="fill:#a09920;fill-opacity:1;fill-rule:nonzero;stroke:none;stroke-width:0.033751"
       id="path156" />
    <path
       d="m 25.068659,11.69709 c -0.685282,0.139445 -0.453475,1.131861 0.232507,0.992414 0.685282,-0.139772 0.453825,-1.132187 -0.232507,-0.992414"
       style="fill:#a09920;fill-opacity:1;fill-rule:nonzero;stroke:none;stroke-width:0.033751"
       id="path158" />
    <path
       d="m 27.022064,22.107022 c -0.322363,0.234909 -0.01888,0.819411 0.38215,0.68485 1.149597,-0.384128 2.703369,-0.975472 3.92499,-0.536608 3.444244,1.236773 1.299939,4.641806 -0.262575,5.873039 -1.944664,1.532607 -4.538598,2.38753 -6.861915,3.278293 -0.32516,0.124785 -0.289148,0.669538 0.06713,0.734701 1.997458,0.364906 3.923591,1.027276 4.060997,3.142788 0.138805,2.137244 -1.246444,3.475341 -3.105098,4.584758 -2.561069,1.528629 -5.498344,2.28526 -8.507992,2.431218 0.377954,-0.885548 0.735979,-1.781264 1.076173,-2.684992 3.072583,-0.622363 6.252153,-1.83473 8.415688,-4.012407 0.09195,-0.09218 -0.01293,-0.26384 -0.144748,-0.191544 -2.629247,1.444638 -5.038225,2.737808 -7.980744,3.426599 1.2419,-3.420376 2.228217,-6.93589 3.039368,-10.407389 3.490045,-0.545731 7.579014,-1.250781 10.20966,-3.639615 0.07482,-0.0681 -0.01154,-0.190273 -0.107687,-0.142053 -3.236212,1.625137 -6.411587,2.472892 -9.967014,3.206289 0.09999,-0.437888 0.197542,-0.875124 0.292294,-1.311382 0.425504,-1.959417 0.844365,-4.00387 1.200992,-6.086117 2.854411,-1.303564 5.908814,-3.62691 6.854923,-6.565058 0.0423,-0.131302 -0.143001,-0.207867 -0.226913,-0.100346 -1.918441,2.451391 -3.613816,4.549277 -6.510883,5.973062 0.805557,-4.934056 1.212531,-10.0548 0.418163,-14.7650246 -0.01644,-0.097417 -0.166427,-0.075913 -0.177614,0.013683 -0.44858,3.6200669 -0.309776,7.3160486 -0.689479,10.9527316 -0.223416,2.14415 -0.521653,4.279831 -0.885972,6.40541 -3.148454,-2.84464 -5.212692,-6.072108 -7.224835,-9.697061 -0.102793,-0.185059 -0.451378,-0.08079 -0.380752,0.12902 1.33805,3.966402 4.253647,7.49622 7.474125,10.305674 -0.242297,1.346569 -0.504172,2.690207 -0.810452,4.026677 -0.224465,0.978405 -0.474104,1.944104 -0.738427,2.903286 -2.582746,-1.452132 -4.092465,-3.641896 -6.030835,-5.745647 -0.09265,-0.10067 -0.25803,0.01662 -0.198942,0.13065 1.295044,2.509383 3.300544,5.051672 6.022095,6.326565 -0.861848,3.004254 -1.896764,5.930315 -3.032375,8.832038 -1.006247,-1.669512 -1.720899,-3.320063 -2.242902,-5.227937 -0.06503,-0.236472 -0.506619,-0.231389 -0.484592,0.03652 0.174817,2.119389 1.042957,4.285012 2.407929,6.003265 -0.26782,0.672502 -0.537738,1.345003 -0.813599,2.016856 C 13.30103,39.420461 8.9785063,32.201895 15.37366,32.58863 c 0.44893,0.02703 0.550324,-0.486432 0.247191,-0.714173 -1.525802,-1.144568 -2.801966,-2.502215 -3.660317,-4.155698 -0.323411,-0.623273 -0.634935,-1.315618 -0.787725,-1.992323 -0.432847,-1.916735 2.198148,-3.394282 4.022887,-3.038824 0.437043,0.08537 0.727938,-0.32646 0.456622,-0.663021 -1.476853,-1.834307 -2.554775,-3.816857 -3.112441,-6.065266 -0.234255,-0.94387 -0.633537,-2.156206 -0.320264,-3.104311 0.867092,-2.626022 3.295299,-1.569097 4.907811,-0.498813 0.404527,0.268466 0.856603,-0.198745 0.671297,-0.574078 -0.959395,-1.9418208 -1.369166,-4.105521 -0.815696,-6.2154616 0.550324,-2.0969084 2.303388,-4.70827015 4.97564,-4.61606601 1.926833,0.0664648 3.31383,1.28303691 4.129876,2.82867601 0.889818,1.6857375 1.230712,3.6086638 1.406927,5.4638224 0.0521,0.5460556 0.08601,1.0937422 0.106639,1.6417532 0.01364,0.373377 -0.307678,1.908917 0.434595,1.761325 0.158384,-0.03161 0.335648,-0.0922 0.389491,-0.234258 0.01189,-0.03226 0.01679,-0.06647 0.03077,-0.09807 0.137756,-0.308542 0.874085,-0.3118 1.159386,-0.259019 0.406624,0.07559 0.765349,0.298115 1.052748,0.56984 0.619202,0.58548 0.989464,1.448222 0.959745,2.270565 -0.03776,1.051386 -0.537737,2.184226 -1.015337,3.124512 -0.837023,1.647617 -2.056896,2.968121 -3.59144,4.087277 z m 5.465477,-8.636228 C 32.12567,11.489222 29.982414,10.698809 28.453814,11.70556 28.394027,7.4270327 27.352817,-0.64815053 21.150311,0.09306559 15.865945,0.72448403 15.18311,6.9871903 16.473608,10.971838 14.360071,9.9937585 11.750054,9.7966435 11.289936,12.633465 c -0.502074,3.09584 1.195398,6.558214 3.098456,9.13667 -2.064589,-0.159647 -4.063446,0.424529 -4.20295,2.773289 -0.16223,2.737775 1.951307,5.438734 4.106101,7.278905 -5.9790894,0.442774 -1.941517,8.067004 0.979675,11.099311 -0.633537,1.534626 -1.282807,3.069484 -1.938021,4.614146 -0.154889,0.365916 0.474453,0.651259 0.674444,0.297429 0.860448,-1.524167 1.641181,-3.10294 2.357581,-4.717096 4.294204,-0.144335 9.710733,-1.506481 12.174953,-5.02421 2.158639,-3.081569 0.201738,-5.444305 -2.78938,-6.407398 3.32397,-1.238075 7.89893,-3.014713 8.167448,-6.631196 0.235304,-3.161979 -2.433452,-3.839011 -5.009554,-3.449668 2.241852,-2.11157 4.109946,-5.223375 3.578852,-8.132853"
       style="fill:#6f3718;fill-opacity:1;fill-rule:nonzero;stroke:none;stroke-width:0.033751"
       id="path160" />
  </g>
</svg>
