<?xml version="1.0" encoding="UTF-8" standalone="no"?>
<!-- Created with Inkscape (http://www.inkscape.org/) -->

<svg
   width="48"
   height="48"
   viewBox="0 0 48 48"
   version="1.1"
   id="svg1"
   inkscape:version="1.3 (0e150ed, 2023-07-21)"
   sodipodi:docname="leaf7.svg"
   xmlns:inkscape="http://www.inkscape.org/namespaces/inkscape"
   xmlns:sodipodi="http://sodipodi.sourceforge.net/DTD/sodipodi-0.dtd"
   xmlns="http://www.w3.org/2000/svg"
   xmlns:svg="http://www.w3.org/2000/svg">
  <sodipodi:namedview
     id="namedview1"
     pagecolor="#505050"
     bordercolor="#ffffff"
     borderopacity="1"
     inkscape:showpageshadow="0"
     inkscape:pageopacity="0"
     inkscape:pagecheckerboard="1"
     inkscape:deskcolor="#505050"
     inkscape:document-units="px"
     inkscape:zoom="11.85877"
     inkscape:cx="32.84489"
     inkscape:cy="22.641471"
     inkscape:window-width="1920"
     inkscape:window-height="1011"
     inkscape:window-x="0"
     inkscape:window-y="0"
     inkscape:window-maximized="1"
     inkscape:current-layer="layer1" />
  <defs
     id="defs1" />
  <g
     inkscape:label="Layer 1"
     inkscape:groupmode="layer"
     id="layer1">
    <path
       d="m 34.073272,43.529079 c 0.103121,0.419799 0.286218,0.808458 0.367216,1.233016 0.04935,0.259716 -0.292004,0.481336 -0.445493,0.245065 -0.308338,-0.475112 -0.440047,-1.108836 -0.536701,-1.677355 -0.0456,-0.269239 -0.140556,-0.704424 -0.142938,-1.067441 -0.276009,-0.19378 -0.553379,-0.382798 -0.83347,-0.560826 -0.820538,-0.521265 -1.652306,-1.000404 -2.493603,-1.447675 0.01464,0.539215 -0.07929,1.096745 -0.01872,1.641455 0.08304,0.750946 0.255587,1.506653 0.575838,2.178106 0.07929,0.165938 -0.137151,0.327851 -0.246058,0.18462 -0.499265,-0.655702 -0.903918,-1.35243 -1.063192,-2.204845 -0.122179,-0.649108 -0.201817,-1.523868 0.07317,-2.147336 -1.947711,-0.990146 -3.948176,-1.820581 -5.994923,-2.582881 1.948733,3.159827 4.403197,6.252255 7.65948,7.62117 2.72741,1.146194 5.70258,1.220924 8.593007,1.223855 -10e-4,-0.0012 -0.0018,-0.0025 -0.0024,-0.0038 -2.06955,-0.656802 -3.85969,-2.156496 -5.683862,-3.492809 0.03778,0.298546 0.137494,0.635921 0.192627,0.857907"
       style="fill:#a09920;fill-opacity:1;fill-rule:nonzero;stroke:none;stroke-width:0.0353083"
       id="path26" />
    <path
       d="m 13.878734,40.277307 c -0.09223,-0.0059 -0.09699,-0.129675 -0.03233,-0.177663 0.660922,-0.487564 1.383104,-0.821276 2.009312,-1.37954 0.390699,-0.348364 0.738857,-0.742152 1.076806,-1.148028 -1.182649,0.07437 -2.371764,0.09597 -3.548286,0.160812 -0.517644,0.0282 -1.031883,0.07179 -1.544761,0.122348 0.06875,1.054254 -1.243909,2.344779 -2.0341565,2.578854 -0.04425,0.01319 -0.095983,-0.04543 -0.074873,-0.09415 0.216451,-0.496356 0.6364185,-0.866701 0.9308045,-1.308476 0.159956,-0.240668 0.312082,-0.489029 0.42133,-0.762666 0.04628,-0.115389 0.07759,-0.230411 0.113669,-0.34287 -2.5677934,0.295982 -5.0852192,0.830435 -7.623745,1.408845 -0.00477,0.0052 -0.00919,0.01028 -0.014293,0.01539 6.0629905,1.938902 13.259279,3.448117 17.697872,-2.519144 -1.129216,0.37071 -2.286681,0.56742 -3.457077,0.674751 -0.894049,1.255725 -2.363937,2.867508 -3.920269,2.771533"
       style="fill:#a09920;fill-opacity:1;fill-rule:nonzero;stroke:none;stroke-width:0.0353083"
       id="path28" />
    <path
       d="m 3.8835649,19.325223 c 0.8259827,1.323127 1.3705113,2.819522 1.9514558,4.283314 1.5073243,3.797215 3.3539575,7.012357 6.3393383,9.606962 0.225639,0.176197 0.235509,0.633724 -0.106864,0.675117 -3.285552,0.399648 -5.7226589,2.519143 -8.0083193,4.926195 2.3203741,-0.876956 4.6849908,-1.274407 7.0676453,-1.534124 -0.29949,-0.267409 -0.593877,-0.539581 -0.927059,-0.763033 -0.4812279,-0.323089 -1.0560468,-0.510642 -1.5046026,-0.878056 -0.099037,-0.08095 -0.09291,-0.305139 0.055808,-0.317594 1.0819118,-0.09047 2.4609316,0.926043 3.1007526,1.884321 1.838806,-0.181326 3.686462,-0.306239 5.531393,-0.521265 -1.172778,-1.068906 -2.632798,-1.869303 -4.09724,-2.234518 -0.138174,-0.03444 -0.08916,-0.281696 0.0473,-0.265212 1.893599,0.227848 3.441762,0.99491 4.857197,2.400458 0.870905,-0.116487 1.740792,-0.263014 2.608634,-0.448369 -1.737729,-1.124218 -3.088841,-3.029785 -4.329686,-5.002022 -1.763933,0.602953 -3.691224,0.716511 -5.396962,-0.182791 -0.0599,-0.03149 -0.05138,-0.138466 0.02349,-0.132607 1.699952,0.134438 3.325711,0.156051 4.949088,-0.365947 C 15.223035,29.124499 14.435171,27.801738 13.597616,26.708656 13.10686,26.068339 12.600108,25.440842 12.07872,24.827265 10.478146,25.59506 8.8894829,25.504947 7.3331506,24.648869 7.1980393,24.574869 7.3100056,24.332741 7.4461403,24.390618 8.776492,24.955475 10.304918,24.891004 11.61553,24.291708 10.349162,22.851361 8.9909023,21.508086 7.5216948,20.330752 5.6614476,18.840219 3.6402246,17.898058 1.595518,16.871279 c 0.6803211,0.849482 1.6560487,1.441081 2.2880426,2.45394"
       style="fill:#a09920;fill-opacity:1;fill-rule:nonzero;stroke:none;stroke-width:0.0353083"
       id="path30" />
    <path
       d="m 23.336521,16.195434 c 1.190819,-1.229718 2.299615,-2.680689 2.945222,-4.350351 0.04798,-0.12308 0.220193,-0.16301 0.277028,-0.02088 0.291664,0.727135 -0.395803,1.770763 -0.725244,2.364193 -0.592855,1.065975 -1.350431,2.026817 -2.243459,2.79681 -0.08883,0.07618 -0.183437,0.09781 -0.270562,0.08278 -0.02893,2.224992 -0.01838,4.451086 -0.03063,6.676445 0.757576,-0.556798 1.537273,-1.062679 2.23427,-1.726439 0.804202,-0.765964 1.487926,-1.647682 2.24448,-2.46493 0.0776,-0.08388 0.209645,0.01685 0.174591,0.127111 -0.705506,2.191292 -2.663087,4.21811 -4.66253,4.951105 -0.0051,0.512107 -0.0055,1.024216 -0.01565,1.536322 -0.06432,3.164957 -0.251504,6.415631 -0.757235,9.583152 2.078399,-0.917251 4.059123,-2.252834 6.009218,-3.739704 -0.296768,-0.884649 0.0072,-2.128654 0.229382,-2.977769 0.319231,-1.217997 0.889625,-2.16382 1.617932,-3.120266 0.149065,-0.195978 0.449577,0.004 0.3097,0.224184 -0.562906,0.886115 -0.955308,1.970039 -1.208173,3.0144 -0.135791,0.561927 -0.211005,1.129714 -0.247761,1.709224 -0.01362,0.210631 -0.01156,0.418697 -0.0194,0.624565 1.408968,-1.100408 2.807046,-2.261258 4.219078,-3.381813 -0.0047,-2.097518 0.901196,-4.100158 2.269324,-5.515597 0.208963,-0.216125 0.463871,0.131508 0.288601,0.355692 -1.0295,1.317999 -1.558034,2.857618 -1.753043,4.528379 3.162691,-2.45504 6.422719,-4.602741 10.066298,-5.304966 -5.214886,-0.494158 -11.292509,-0.360452 -15.329511,3.000849 -0.0028,0.02344 -0.0051,0.04652 -0.0078,0.06997 -0.04697,0.398915 -0.447535,0.489395 -0.672834,0.320891 -0.0024,-0.0022 -0.0051,-0.0036 -0.0075,-0.0059 -0.09767,-0.07729 -0.163698,-0.199274 -0.142598,-0.37657 0.593269,-5.029874 0.442503,-9.315385 -1.24962,-14.080769 -0.971338,-2.7352645 -1.81842,-5.2983662 -2.143436,-8.1050669 -0.589452,3.488412 -1.153721,6.9251728 -1.31844,10.5073609 -0.04153,0.898936 -0.06262,1.798238 -0.07963,2.697541"
       style="fill:#a09920;fill-opacity:1;fill-rule:nonzero;stroke:none;stroke-width:0.0353083"
       id="path32" />
    <path
       d="m 11.500163,22.955399 c 0.214749,0.226383 0.425414,0.456427 0.635398,0.688305 0.218492,-1.49383 -0.384574,-2.808899 -0.921616,-4.172321 -0.06024,-0.152753 0.115714,-0.292685 0.220875,-0.16594 0.968922,1.171473 1.556673,3.288404 1.153041,4.848903 1.528084,1.74622 2.925482,3.632373 4.233372,5.58373 0.163358,-1.024948 0.255248,-2.033044 0.104481,-3.088031 -0.16472,-1.150959 -0.623485,-2.142939 -1.017588,-3.207082 -0.08339,-0.226015 0.157913,-0.40551 0.315826,-0.237005 1.639713,1.751348 2.011354,5.109354 1.158486,7.368413 -0.0018,0.0044 -0.0047,0.007 -0.0068,0.01136 1.198645,1.881757 2.344198,3.8822 4.183004,4.981509 0.631313,-3.555082 0.879414,-7.218958 0.971984,-10.937049 -2.136255,-0.835562 -3.001035,-3.611125 -3.291338,-5.882276 -0.02961,-0.230411 0.267501,-0.361918 0.361432,-0.135169 0.827685,1.998977 1.406245,3.786591 2.949646,5.18518 0.001,-0.05348 0.0028,-0.106597 0.0037,-0.16008 0.04016,-2.230488 0.0044,-4.569405 0.01498,-6.936896 -0.737837,-0.291585 -1.267051,-0.964505 -1.656389,-1.731933 -0.439026,-0.865235 -0.95871,-2.179205 -0.727627,-3.180343 0.01191,-0.05128 0.08134,-0.06667 0.110948,-0.02491 0.42133,0.593063 0.630973,1.379175 0.929784,2.058321 0.363133,0.824208 0.796713,1.419835 1.350772,1.998977 0.04663,-4.575998 0.325356,-9.2183008 1.721391,-13.3539901 -1.800008,2.9459 -3.888958,5.7317211 -5.137629,9.0171951 -1.52264,4.006746 -1.253439,7.86477 -0.590815,12.010349 0.0102,0.01063 0.02076,0.02052 0.03131,0.03114 0.348838,0.359356 -0.206241,0.905164 -0.550656,0.545809 C 15.383289,21.283907 12.38974,18.836927 8.9020336,17.469476 7.3518267,16.861393 5.7240257,16.450755 4.0792077,16.354781 3.8243002,16.34013 2.4599148,16.229502 1.6611589,16.30423 c 3.6993936,0.901865 7.2047987,3.878169 9.8389571,6.65117"
       style="fill:#a09920;fill-opacity:1;fill-rule:nonzero;stroke:none;stroke-width:0.0353083"
       id="path34" />
    <path
       d="m 36.76767,28.81936 c 0.935568,-0.01503 1.855822,-0.394521 2.789689,-0.289023 0.04356,0.0047 0.0701,0.07034 0.03233,0.104037 -1.37017,1.215796 -4.01454,1.372946 -5.576315,0.312466 -0.09393,0.07692 -0.187184,0.152021 -0.280434,0.230046 -1.302785,1.082825 -2.598424,2.175906 -3.928096,3.205616 1.036307,0.373275 2.072953,0.511009 3.176646,0.359721 0.983215,-0.134803 1.928993,-0.580974 2.919356,-0.581707 0.03131,0 0.04084,0.04543 0.02076,0.06667 -1.59683,1.717647 -4.808191,1.825343 -6.734802,0.796 -0.0439,-0.02344 -0.07725,-0.05532 -0.107884,-0.08865 -1.845273,1.379539 -3.769161,2.611455 -5.871385,3.51039 2.239376,0.68794 4.424979,1.632664 6.526522,2.755783 0.901194,-0.591963 2.567453,-0.941061 3.473753,-0.439211 0.03948,0.02161 0.03096,0.09231 -0.0058,0.110629 -0.497222,0.245796 -1.086676,0.238836 -1.619293,0.357888 -0.387296,0.08608 -0.763702,0.231145 -1.14317,0.354591 0.699039,0.38976 1.390591,0.795636 2.068529,1.220194 0.394783,0.246896 0.78276,0.504416 1.165972,0.768528 0.250143,-0.113923 0.580946,-0.127844 0.792631,-0.148724 0.520026,-0.05238 1.020311,-0.0304 1.511067,0.177663 0.09256,0.03883 0.08067,0.178396 -0.01192,0.205502 -0.390701,0.113558 -0.784803,0.162645 -1.184012,0.224551 -0.11503,0.01758 -0.238911,0.04579 -0.36177,0.07071 0.875329,0.628962 1.737046,1.2799 2.609314,1.921318 0.482249,0.354228 1.342265,0.773655 1.989573,1.286496 -2.008972,-3.110741 -4.448462,-6.414897 -7.467536,-8.119357 -0.09121,0.02381 -0.181396,0.05019 -0.273966,0.0718 -0.544188,0.126743 -0.708228,-0.804427 -0.166762,-0.937032 4.365764,-1.06964 7.212969,-4.679668 9.733798,-8.510583 1.332734,-2.025719 2.693718,-3.931653 4.557025,-5.204228 -4.015899,1.057183 -7.354201,3.105614 -10.691484,5.77055 0.664325,0.234808 1.305849,0.449835 2.057639,0.43738"
       style="fill:#a09920;fill-opacity:1;fill-rule:nonzero;stroke:none;stroke-width:0.0353083"
       id="path36" />
    <path
       d="m 7.5216993,20.330756 c 1.4692071,1.177335 2.8274667,2.520609 4.0938367,3.960958 -1.310613,0.59929 -2.8390382,0.663761 -4.1693902,0.09891 -0.136132,-0.05788 -0.2481009,0.184255 -0.1129896,0.258251 1.5563323,0.856077 3.1449948,0.94619 4.7455698,0.178395 0.521387,0.613577 1.028139,1.241074 1.518895,1.881391 0.837555,1.093082 1.625419,2.415843 2.447318,3.747396 -1.623377,0.521998 -3.249137,0.500385 -4.949088,0.365948 -0.07487,-0.0059 -0.08339,0.1011 -0.02348,0.132606 1.705736,0.899302 3.633028,0.785744 5.396962,0.182791 1.240845,1.972237 2.591957,3.877804 4.329686,5.002022 -0.867843,0.185357 -1.737729,0.331882 -2.608634,0.44837 -1.415434,-1.405549 -2.963599,-2.172611 -4.857198,-2.400459 -0.136473,-0.01649 -0.185481,0.230779 -0.0473,0.265212 1.464444,0.365215 2.924462,1.165612 4.09724,2.234518 -1.844931,0.215026 -3.692586,0.339939 -5.531393,0.521265 -0.63982,-0.958278 -2.018841,-1.9748 -3.1007514,-1.884321 -0.1487248,0.01245 -0.1548508,0.236639 -0.055819,0.317594 0.4485566,0.367414 1.0233745,0.554967 1.5046024,0.878056 0.333183,0.223452 0.62757,0.495624 0.92706,0.763033 -2.3826647,0.259716 -4.7472817,0.657167 -7.0676557,1.534124 2.2856605,-2.407053 4.7227675,-4.526548 8.0083207,-4.926196 0.342371,-0.04139 0.332502,-0.49892 0.106863,-0.675117 C 9.1889782,30.620894 7.342345,27.405752 5.8350207,23.608537 5.2540762,22.144745 4.7095476,20.64835 3.8835649,19.325223 3.2515711,18.312364 2.2758434,17.720766 1.5955223,16.871283 c 2.0447067,1.026779 4.0659297,1.96894 5.926177,3.459473 z M 4.0792551,16.35478 c 1.644818,0.09597 3.272619,0.506612 4.8228259,1.114695 3.487707,1.367451 6.481255,3.814431 9.148085,6.602084 0.344415,0.359355 0.899495,-0.186454 0.550655,-0.545809 -0.01054,-0.01063 -0.0211,-0.02051 -0.03131,-0.03113 C 17.906889,19.349039 17.637687,15.491015 19.160327,11.484269 20.409,8.1987955 22.497949,5.4129745 24.297958,2.4670743 22.901922,6.6027637 22.623191,11.245066 22.576565,15.821065 22.022508,15.241922 21.588926,14.646295 21.225793,13.822087 20.926983,13.142941 20.71734,12.35683 20.29601,11.763768 c -0.02961,-0.04176 -0.09903,-0.02638 -0.110947,0.02491 -0.231085,1.001136 0.288601,2.315107 0.727626,3.180341 0.389339,0.767429 0.918553,1.440348 1.65639,1.731934 -0.01054,2.36749 0.02519,4.706407 -0.01499,6.936896 -0.001,0.05348 -0.0028,0.106597 -0.0037,0.160079 -1.543397,-1.398589 -2.12196,-3.186203 -2.949643,-5.185181 -0.09393,-0.226749 -0.39104,-0.09524 -0.361432,0.13517 0.290303,2.27115 1.155082,5.046713 3.291338,5.882277 -0.09256,3.71809 -0.34067,7.381968 -0.971984,10.937048 -1.838807,-1.099309 -2.984359,-3.099752 -4.183003,-4.981509 0.0021,-0.0044 0.0051,-0.007 0.0068,-0.01136 0.852869,-2.25906 0.481228,-5.617066 -1.158484,-7.368413 -0.157913,-0.168506 -0.399208,0.01099 -0.315827,0.237004 0.394101,1.064143 0.852868,2.056123 1.017588,3.207082 0.150767,1.054987 0.05888,2.063083 -0.104481,3.088031 -1.307892,-1.951357 -2.705289,-3.837509 -4.233373,-5.58373 0.403632,-1.560499 -0.18412,-3.67743 -1.15304,-4.848903 -0.105163,-0.126745 -0.281113,0.01319 -0.220874,0.165941 0.537041,1.363421 1.140106,2.67849 0.921615,4.17232 -0.209968,-0.231881 -0.420633,-0.461926 -0.635381,-0.688308 -2.634159,-2.773001 -6.1395637,-5.749305 -9.8389573,-6.65117 0.7987558,-0.07473 2.1631413,0.0359 2.4180487,0.05054 z M 26.878002,11.095605 c 1.692124,4.765383 1.84289,9.050895 1.249694,14.080758 -0.0211,0.177296 0.04493,0.299279 0.142598,0.37657 0.0024,0.0022 0.0051,0.0036 0.0075,0.0059 0.2253,0.168504 0.625868,0.07802 0.672834,-0.320892 0.0028,-0.02344 0.0051,-0.04652 0.0078,-0.06997 4.037001,-3.361301 10.114626,-3.495006 15.32951,-3.000849 -3.643578,0.702226 -6.903604,2.849926 -10.066297,5.304966 0.19501,-1.670761 0.723543,-3.21038 1.753042,-4.528379 0.175271,-0.224184 -0.07963,-0.571817 -0.288599,-0.355691 -1.368129,1.415439 -2.274089,3.418079 -2.269325,5.515596 -1.412031,1.120555 -2.810109,2.281405 -4.219079,3.381814 0.0078,-0.205868 0.0058,-0.413935 0.0194,-0.624566 0.03676,-0.57951 0.111968,-1.147297 0.247761,-1.709223 0.252866,-1.044362 0.645267,-2.128286 1.208173,-3.014401 0.139875,-0.220155 -0.160636,-0.420163 -0.3097,-0.224184 -0.728307,0.956446 -1.298702,1.902269 -1.617933,3.120266 -0.222235,0.849115 -0.526151,2.09312 -0.229382,2.977769 -1.950094,1.48687 -3.930819,2.822452 -6.009217,3.739704 0.505731,-3.167521 0.692912,-6.418194 0.757235,-9.583152 0.0102,-0.512106 0.01054,-1.024214 0.01565,-1.536321 1.999441,-0.732996 3.957024,-2.759814 4.662528,-4.951106 0.03506,-0.11026 -0.09699,-0.210997 -0.174588,-0.127111 -0.756555,0.817248 -1.44028,1.698966 -2.244481,2.46493 -0.696997,0.663762 -1.476695,1.169642 -2.234271,1.726439 0.01225,-2.225359 0.0018,-4.451453 0.03063,-6.676445 0.08713,0.01503 0.181738,-0.0066 0.270564,-0.08278 0.893028,-0.769993 1.650603,-1.730836 2.243459,-2.796811 0.329439,-0.593429 1.016908,-1.637058 0.725245,-2.364193 -0.05684,-0.142131 -0.229043,-0.102201 -0.277029,0.02088 -0.645608,1.669661 -1.754405,3.120633 -2.945221,4.35035 0.01702,-0.899302 0.03813,-1.798604 0.07963,-2.697539 0.164721,-3.5821891 0.728988,-7.0189501 1.318442,-10.5073621 0.325015,2.8067007 1.172098,5.3698024 2.143401,8.1050721 z M 40.84449,27.815658 c -2.52083,3.830915 -5.368036,7.440943 -9.733797,8.510583 -0.541465,0.132605 -0.377426,1.063775 0.166762,0.937032 0.09257,-0.0216 0.182758,-0.04798 0.273968,-0.0718 3.019071,1.70446 5.458561,5.008616 7.467532,8.119357 -0.647308,-0.512841 -1.507323,-0.932268 -1.989572,-1.286496 -0.872267,-0.641418 -1.733984,-1.292356 -2.609314,-1.921318 0.122859,-0.02491 0.246739,-0.05312 0.36177,-0.07071 0.399209,-0.06191 0.793311,-0.110994 1.184011,-0.224551 0.09256,-0.02711 0.104482,-0.166673 0.01192,-0.205502 -0.490757,-0.208066 -0.991043,-0.230045 -1.511067,-0.177663 -0.211686,0.02088 -0.542489,0.0348 -0.792631,0.148724 -0.383213,-0.264112 -0.771189,-0.521632 -1.165973,-0.768528 -0.677938,-0.424558 -1.369489,-0.830434 -2.068528,-1.220194 0.379468,-0.123446 0.755874,-0.268507 1.14317,-0.354591 0.532618,-0.119052 1.12207,-0.112092 1.619292,-0.357888 0.03676,-0.01833 0.04526,-0.08902 0.0058,-0.110629 -0.9063,-0.50185 -2.572558,-0.152752 -3.473754,0.439211 -2.101541,-1.123119 -4.287144,-2.067843 -6.526519,-2.755783 2.102221,-0.898934 4.02611,-2.130851 5.871383,-3.51039 0.03063,0.03333 0.06398,0.06521 0.107885,0.08865 1.926612,1.029343 5.137971,0.921647 6.734802,-0.796001 0.02009,-0.02124 0.01055,-0.06667 -0.02076,-0.06667 -0.990362,7.25e-4 -1.936141,0.446904 -2.919355,0.581707 -1.103694,0.151288 -2.140341,0.01355 -3.176647,-0.359721 1.329671,-1.02971 2.62531,-2.122791 3.928096,-3.205616 0.09325,-0.07802 0.186501,-0.15312 0.280432,-0.230046 1.561778,1.06048 4.206146,0.90333 5.576318,-0.312466 0.03778,-0.0337 0.01122,-0.09927 -0.03233,-0.104037 -0.933867,-0.105498 -1.854122,0.274003 -2.78969,0.289023 -0.75179,0.01245 -1.393313,-0.202572 -2.057639,-0.43738 3.337281,-2.664936 6.675589,-4.713366 10.691488,-5.77055 -1.863312,1.272575 -3.224291,3.178509 -4.557029,5.204228 z m -1.277602,18.352349 c -2.890427,-0.0029 -5.865597,-0.07766 -8.593007,-1.223855 -3.256284,-1.368915 -5.710748,-4.461343 -7.65948,-7.62117 2.046747,0.7623 4.04721,1.592735 5.994922,2.582881 -0.274987,0.623468 -0.195348,1.498228 -0.07317,2.147336 0.159274,0.852415 0.563928,1.549143 1.063192,2.204845 0.108907,0.143231 0.325357,-0.01868 0.246059,-0.18462 -0.320251,-0.671453 -0.492798,-1.42716 -0.575839,-2.178106 -0.06058,-0.54471 0.03336,-1.10224 0.01872,-1.641455 0.841297,0.447271 1.673065,0.92641 2.493603,1.447675 0.280091,0.178028 0.557461,0.367046 0.83347,0.560826 0.0024,0.363017 0.09733,0.798202 0.142938,1.067441 0.09665,0.568519 0.228362,1.202243 0.536702,1.677355 0.153488,0.236271 0.494841,0.01463 0.445492,-0.245065 -0.081,-0.424558 -0.264095,-0.813217 -0.367216,-1.233016 -0.05513,-0.221985 -0.154851,-0.559361 -0.192627,-0.857907 1.824171,1.336314 3.614311,2.836006 5.68386,3.492809 7.03e-4,0.0012 0.0013,0.0025 0.0024,0.0038 z M 3.5582091,39.350165 c 0.0051,-0.0052 0.00952,-0.01028 0.014293,-0.01539 2.5385259,-0.57841 5.0559516,-1.112863 7.6237459,-1.408846 -0.03608,0.11246 -0.06739,0.227482 -0.113669,0.342871 -0.109247,0.273637 -0.261375,0.521998 -0.42133,0.762666 -0.294386,0.441775 -0.7143539,0.81212 -0.9308049,1.308476 -0.02111,0.04872 0.030623,0.107329 0.074873,0.09415 0.7902479,-0.234074 2.1029039,-1.5246 2.0341569,-2.578852 0.512878,-0.05056 1.027117,-0.09415 1.54476,-0.12235 1.176524,-0.06484 2.365637,-0.08645 3.548286,-0.160811 -0.337949,0.405876 -0.686107,0.799664 -1.076806,1.148028 -0.626208,0.558264 -1.348389,0.891977 -2.009311,1.379541 -0.06467,0.04798 -0.0599,0.171801 0.03233,0.177662 1.556331,0.09597 3.026219,-1.515809 3.920268,-2.771534 1.170396,-0.107331 2.32786,-0.304042 3.457077,-0.674752 -4.438597,5.967258 -11.6348856,4.458043 -17.6978752,2.519141 z M 0.1446932,16.598745 c 3.6163527,2.084329 4.4869187,6.209762 6.2232851,9.931516 1.2251902,2.626107 2.8557144,4.960996 5.0021797,6.707949 -3.5649632,0.664494 -6.1763203,3.275583 -8.7291399,6.007556 -0.1837786,0.197076 -0.1412373,0.576579 0.1249014,0.663761 5.6522105,1.84879 13.9818025,3.94484 18.2403585,-1.69457 -0.738518,3.082535 -1.813621,6.070196 -3.394117,8.921953 -0.267159,0.482068 0.366196,0.939595 0.664666,0.481339 2.059681,-3.156899 3.274661,-6.760333 3.993098,-10.517255 1.829278,3.133088 4.129912,6.25885 7.144901,7.988953 3.321287,1.905932 7.183359,1.911425 10.827959,1.892015 0.344074,-0.0021 0.483269,-0.385367 0.298469,-0.678786 -1.930355,-3.065681 -4.722767,-7.802127 -8.1744,-9.353469 2.737619,-0.932637 4.933773,-2.843699 6.853578,-5.262106 2.630756,-3.314047 4.341255,-7.665861 8.348647,-9.212075 0.419291,-0.161909 0.208624,-0.822374 -0.15859,-0.870363 -3.669788,-0.480237 -7.356588,-0.541412 -11.027734,-0.06337 -2.653216,0.345068 -5.345232,0.925311 -7.34025,2.881429 0.399207,-3.658748 0.551334,-7.281963 -0.470677,-10.860489 C 27.317369,9.1702559 25.335964,5.3668134 25.323712,0.62377503 25.323023,0.23804599 24.853715,0.00580249 24.648156,0.37284953 22.425456,4.3510239 19.348528,7.8771659 18.005924,12.39199 c -0.97811,3.288772 -1.174481,7.181228 -0.05718,10.485384 -4.885105,-4.79762 -10.8374877,-8.048659 -17.49945892,-6.797697 -0.004082,-3.64e-4 -0.008174,-0.0011 -0.0119133,-0.0018 -0.0122525,-0.0015 -0.0187173,0.0059 -0.0282475,0.0084 -0.0598986,0.01136 -0.11911583,0.01649 -0.17935434,0.02857 -0.19228667,0.03883 -0.27736951,0.373274 -0.0850827,0.483901"
       style="fill:#6f3718;fill-opacity:1;fill-rule:nonzero;stroke:none;stroke-width:0.0353083"
       id="path38" />
  </g>
</svg>
