<?xml version="1.0" encoding="UTF-8" standalone="no"?>
<!-- Created with Inkscape (http://www.inkscape.org/) -->

<svg
   width="48"
   height="48"
   viewBox="0 0 48 48"
   version="1.1"
   id="svg1"
   inkscape:version="1.3 (0e150ed, 2023-07-21)"
   sodipodi:docname="leaf8.svg"
   xmlns:inkscape="http://www.inkscape.org/namespaces/inkscape"
   xmlns:sodipodi="http://sodipodi.sourceforge.net/DTD/sodipodi-0.dtd"
   xmlns="http://www.w3.org/2000/svg"
   xmlns:svg="http://www.w3.org/2000/svg">
  <sodipodi:namedview
     id="namedview1"
     pagecolor="#505050"
     bordercolor="#ffffff"
     borderopacity="1"
     inkscape:showpageshadow="0"
     inkscape:pageopacity="0"
     inkscape:pagecheckerboard="1"
     inkscape:deskcolor="#505050"
     inkscape:document-units="px"
     inkscape:zoom="16.770833"
     inkscape:cx="32.765217"
     inkscape:cy="17.08323"
     inkscape:window-width="1920"
     inkscape:window-height="1011"
     inkscape:window-x="0"
     inkscape:window-y="0"
     inkscape:window-maximized="1"
     inkscape:current-layer="layer1" />
  <defs
     id="defs1" />
  <g
     inkscape:label="Layer 1"
     inkscape:groupmode="layer"
     id="layer1">
    <path
       d="m 21.035294,13.376929 c -0.689507,5.080427 -2.656852,9.823498 -2.407967,15.016707 0.17831,-0.124948 0.359431,-0.250224 0.533994,-0.375172 2.427014,-1.732823 4.842476,-3.493266 7.19267,-5.343803 0.512759,-4.350801 3.864114,-8.188988 5.931074,-11.811805 0.0534,-0.09371 0.168003,3.21e-4 0.144585,0.08746 -1.096405,4.052571 -4.02681,7.06479 -5.272483,11.082178 1.164793,-0.934476 2.314284,-1.890323 3.436918,-2.881353 3.604299,-3.182542 7.597382,-6.798455 9.95757,-11.1709565 -2.24527,0.9502579 -4.899933,1.0018812 -6.495981,3.1236855 -0.202042,0.268636 -0.658279,0.17131 -0.697002,-0.189066 -0.08463,-0.788483 -0.169566,-1.5769672 -0.254506,-2.365451 -2.462926,2.693932 -5.322444,5.061685 -7.324451,8.132432 -0.0062,0.06445 -0.0072,0.128236 -0.01342,0.192682 -0.05621,0.548454 -0.849392,0.441262 -0.804425,-0.103904 0.435626,-5.310922 -1.122634,-10.552137 -4.359383,-14.5435494 0.93121,3.6192007 0.935269,7.4465371 0.432815,11.1499124"
       style="fill:#e9411f;fill-opacity:1;fill-rule:nonzero;stroke:none;stroke-width:0.0320436"
       id="path256" />
    <path
       d="m 32.998616,29.550714 c -4.066467,-0.0078 -8.111076,0.554044 -11.731301,-1.808449 -0.644227,0.465594 -1.288766,0.9302 -1.937053,1.390204 3.329183,1.541786 6.037247,4.198892 8.059864,7.366308 1.254104,1.962989 2.983805,4.630945 3.665505,7.249908 0.170815,-3.707319 0.825971,-7.573785 -1.010215,-10.864834 -0.04591,-0.08187 -0.04965,-0.162103 -0.03778,-0.238386 -0.189864,-0.138758 -0.06838,-0.478746 0.176124,-0.459676 1.940801,0.153554 3.746383,1.451692 5.414255,2.424309 1.535466,0.895347 3.040015,1.844618 4.530823,2.818879 -0.232332,-0.650383 -0.603005,-1.175821 -1.09453,-1.792995 -0.123346,-0.154869 -0.106796,-0.318616 -0.02498,-0.442577 0.0044,-0.103904 0.05059,-0.208793 0.158953,-0.293955 1.734072,-1.363243 3.719212,-1.776555 5.773371,-1.947207 -1.33436,-0.30382 -2.575972,-1.018321 -3.85787,-1.580914 -2.647168,-1.161353 -5.221892,-1.815024 -8.085159,-1.820615"
       style="fill:#e9411f;fill-opacity:1;fill-rule:nonzero;stroke:none;stroke-width:0.0320436"
       id="path258" />
    <path
       d="m 20.020706,15.424423 c 0.887803,-4.573405 0.892487,-9.0724973 -0.0509,-13.6011837 -0.38535,3.0427983 -2.365497,5.6472941 -2.397973,8.8058337 -0.0044,0.412984 -0.520878,0.456386 -0.734475,0.214383 -0.793184,-0.8989634 -1.616344,-1.4115766 -2.663721,-1.6746242 0.95463,2.8366352 1.603853,5.9803782 1.17947,8.9718822 0.06277,0.09371 0.128345,0.183146 0.188614,0.280803 0.313527,0.50801 -0.395654,1.093947 -0.707619,0.581992 -1.54983,-2.54005 -3.975595,-3.688251 -6.5534405,-4.548744 2.3789245,1.424072 4.4280845,3.578099 5.7877385,6.029699 1.709715,3.083899 1.954227,6.331545 1.819324,9.776478 0.7529,-0.503735 1.491746,-1.000895 2.205611,-1.49378 -0.766327,-4.558278 1.073295,-8.943933 1.927372,-13.342739"
       style="fill:#e9411f;fill-opacity:1;fill-rule:nonzero;stroke:none;stroke-width:0.0320436"
       id="path260" />
    <path
       d="m 7.3072937,14.502442 c 0.6667111,1.421441 1.1351263,2.911605 1.3406041,4.509287 0.2195308,1.704874 0.302909,3.100997 1.2094481,4.601024 0.4559241,0.754945 0.9555671,1.47964 1.4186731,2.229654 0.04185,-0.01184 0.08244,-0.02631 0.124599,-0.03749 0.343505,-0.09206 0.428131,0.43633 0.158324,0.586925 -2.1928073,1.222512 -4.0948852,2.344408 -5.7455804,4.175875 2.9813067,-0.575746 6.1402984,0.284748 9.2040464,0.274883 0.08806,-0.05885 0.174562,-0.116398 0.262312,-0.175255 0.0091,-3.777026 -0.323519,-7.328493 -2.349258,-10.58962 C 11.45027,17.695178 9.5116556,15.993591 7.3072937,14.502442"
       style="fill:#e9411f;fill-opacity:1;fill-rule:nonzero;stroke:none;stroke-width:0.0320436"
       id="path262" />
    <path
       d="m 18.5961,29.678293 c -0.0069,-0.0029 -0.0097,-0.0086 -0.01593,-0.01151 -0.939328,0.663865 -1.879906,1.325428 -2.818923,1.989624 0.571156,2.002445 1.591051,3.820759 2.171573,5.829783 0.409083,1.418153 0.671396,2.863265 0.832531,4.327782 1.044253,-1.831465 2.036981,-3.733297 2.536936,-5.802162 -0.01905,-0.08122 0.0065,-0.167364 0.05965,-0.235757 9.43e-4,-0.0046 0.0025,-0.0086 0.0035,-0.01316 0.11804,-0.53563 0.924027,-0.447508 0.819101,0.105877 -0.0041,0.02038 -0.0103,0.04011 -0.01436,0.0605 1.750624,0.91935 2.856708,2.591672 4.029932,4.230785 1.460518,2.041575 3.269537,3.753028 4.829673,5.69267 -0.0032,-0.09075 -0.0021,-0.18249 -0.0038,-0.27324 -0.526813,-3.162813 -2.720557,-6.594593 -4.411849,-8.990294 -2.134724,-3.023728 -4.728808,-5.399702 -8.018019,-6.910908"
       style="fill:#e9411f;fill-opacity:1;fill-rule:nonzero;stroke:none;stroke-width:0.0320436"
       id="path264" />
    <path
       d="m 33.221896,25.143358 c -0.02403,0.0072 -0.04653,0.01744 -0.07089,0.02434 -0.121164,0.03518 -0.218593,0.01086 -0.289792,-0.04701 -0.0097,-3.21e-4 -0.01904,-0.0016 -0.02844,-0.0019 -0.319148,-0.01119 -0.310716,-0.501435 -0.03623,-0.58265 0.0509,-0.08549 0.12772,-0.157171 0.239205,-0.189722 3.810712,-1.119268 6.031624,-4.95614 9.453555,-6.828379 -0.623928,-0.379445 -1.252856,-0.6323 -1.98046,-0.858848 -0.194549,-0.06083 -0.226711,-0.262719 -0.161449,-0.424821 -0.01778,-0.07858 -0.01844,-0.164404 0.02466,-0.260088 1.150739,-2.528541 0.721046,-5.232337 0.577401,-7.9282425 -1.454588,4.0302115 -5.000803,7.3745285 -7.963059,10.1927495 -0.722922,0.687539 -1.460831,1.356338 -2.207173,2.014613 3.318252,0.181831 6.056295,-0.863782 9.138469,-2.167181 0.04778,-0.02006 0.08057,0.0444 0.04434,0.07891 -2.603764,2.467712 -6.496605,3.093107 -9.86982,2.752789 -0.02124,-0.0019 -0.0356,-0.01216 -0.05402,-0.01743 -2.551302,2.199732 -5.216896,4.252815 -7.924336,6.233561 -0.03716,0.02696 -0.07463,0.05327 -0.111483,0.08023 4.054601,2.445682 8.711273,1.139982 13.145291,1.576311 4.042111,0.397858 7.284481,2.923111 11.078643,4.080848 0.02218,-0.0013 0.04403,-0.0026 0.06589,-0.0036 -1.66879,-1.655874 -3.097142,-3.568556 -4.996722,-4.964021 -2.476982,-1.819958 -5.115717,-2.60055 -8.073604,-2.760351"
       style="fill:#e9411f;fill-opacity:1;fill-rule:nonzero;stroke:none;stroke-width:0.0320436"
       id="path266" />
    <path
       d="m 47.810842,33.032144 -0.06932,0.592514 c 0.149577,-0.151911 0.198295,-0.390625 0.06932,-0.592514"
       style="fill:#e9411f;fill-opacity:1;fill-rule:nonzero;stroke:none;stroke-width:0.0320436"
       id="path268" />
    <path
       d="m 21.785695,20.131652 c -0.836589,-0.108179 -0.997725,1.260654 -0.159574,1.369161 0.83659,0.108178 0.997724,-1.260654 0.159574,-1.369161"
       style="fill:#d43722;fill-opacity:1;fill-rule:nonzero;stroke:none;stroke-width:0.0320436"
       id="path270" />
    <path
       d="m 23.01669,17.551159 c -0.01686,3.3e-4 -0.03341,6.66e-4 -0.05059,9.79e-4 -0.187678,0.0036 -0.347252,0.217013 -0.368487,0.39786 -0.02123,0.181831 0.08463,0.428438 0.266373,0.48006 0.01624,0.0043 0.03217,0.0092 0.04872,0.0138 0.272619,0.07694 0.570218,-0.04769 0.608316,-0.374514 0.03778,-0.323876 -0.222029,-0.523464 -0.504327,-0.518203"
       style="fill:#d43722;fill-opacity:1;fill-rule:nonzero;stroke:none;stroke-width:0.0320436"
       id="path272" />
    <path
       d="m 21.883437,17.044136 c -0.279487,-0.03618 -0.451864,0.212411 -0.44718,0.482691 3.05e-4,0.01776 6.28e-4,0.03551 9.43e-4,0.05327 0.0065,0.401147 0.657655,0.48565 0.756333,0.09799 0.0044,-0.01744 0.0091,-0.03421 0.01312,-0.05162 0.06651,-0.260745 -0.0409,-0.545824 -0.323206,-0.582321"
       style="fill:#d43722;fill-opacity:1;fill-rule:nonzero;stroke:none;stroke-width:0.0320436"
       id="path274" />
    <path
       d="m 23.021373,14.032575 c -0.528372,-0.06839 -0.629862,0.796046 -0.100553,0.864438 0.52806,0.06807 0.62955,-0.796046 0.100553,-0.864438"
       style="fill:#d43722;fill-opacity:1;fill-rule:nonzero;stroke:none;stroke-width:0.0320436"
       id="path276" />
    <path
       d="m 28.582087,26.065339 c -0.271681,-0.03518 -0.561161,0.182818 -0.583021,0.479732 -0.02186,0.297901 0.164569,0.576403 0.455612,0.614216 0.27168,0.03518 0.561161,-0.182818 0.583021,-0.479733 0.02217,-0.298229 -0.164258,-0.576402 -0.455612,-0.614215"
       style="fill:#d43722;fill-opacity:1;fill-rule:nonzero;stroke:none;stroke-width:0.0320436"
       id="path278" />
    <path
       d="m 30.867016,25.286061 c -0.09618,-0.133167 -0.272931,-0.189392 -0.422823,-0.142045 -0.164882,0.05227 -0.247323,0.179202 -0.287919,0.349525 -0.05028,0.213068 0.05152,0.40016 0.202668,0.533657 0.197671,0.174926 0.468415,0.0513 0.571466,-0.162762 0.09462,-0.196627 0.05965,-0.406736 -0.06339,-0.578375"
       style="fill:#d43722;fill-opacity:1;fill-rule:nonzero;stroke:none;stroke-width:0.0320436"
       id="path280" />
    <path
       d="m 31.258298,27.035326 c -0.51432,-0.06675 -0.612998,0.774674 -0.09837,0.841422 0.514321,0.06642 0.613311,-0.775003 0.09837,-0.841422"
       style="fill:#d43722;fill-opacity:1;fill-rule:nonzero;stroke:none;stroke-width:0.0320436"
       id="path282" />
    <path
       d="m 39.097696,15.424094 c -0.05996,-0.481047 -0.727919,-0.567853 -0.896546,-0.116069 -0.04497,0.120673 -0.0509,0.221616 -0.04997,0.346564 0.0019,0.26206 0.131469,0.506037 0.401588,0.540891 0.273867,0.03551 0.451239,-0.167364 0.514006,-0.422519 0.02934,-0.12166 0.04684,-0.221618 0.03092,-0.348867"
       style="fill:#d43722;fill-opacity:1;fill-rule:nonzero;stroke:none;stroke-width:0.0320436"
       id="path284" />
    <path
       d="m 36.136689,17.128968 c -0.296666,-0.03847 -0.52213,0.233455 -0.496211,0.535302 l 0.0047,0.05262 c 0.0381,0.445535 0.693881,0.530697 0.833467,0.107848 0.0053,-0.01677 0.01093,-0.03321 0.01624,-0.04998 0.09462,-0.286393 -0.05995,-0.60731 -0.358183,-0.645782"
       style="fill:#d43722;fill-opacity:1;fill-rule:nonzero;stroke:none;stroke-width:0.0320436"
       id="path286" />
    <path
       d="m 38.227379,17.491645 c -0.0056,-0.01447 -0.01153,-0.02927 -0.0175,-0.04373 -0.107111,-0.273569 -0.478718,-0.321575 -0.645788,-0.08352 l -0.02686,0.03814 c -0.180809,0.257457 -0.03498,0.63789 0.271055,0.677676 0.306342,0.03945 0.53524,-0.29264 0.419074,-0.588569"
       style="fill:#d43722;fill-opacity:1;fill-rule:nonzero;stroke:none;stroke-width:0.0320436"
       id="path288" />
    <path
       d="m 33.94419,12.40497 -0.0059,0.05459 c -0.05995,0.511955 0.695442,0.610269 0.755398,0.09765 l 0.0062,-0.05459 c 0.05965,-0.511627 -0.69575,-0.610271 -0.755709,-0.09765"
       style="fill:#d43722;fill-opacity:1;fill-rule:nonzero;stroke:none;stroke-width:0.0320436"
       id="path290" />
    <path
       d="m 36.821823,32.377814 c 0.05184,-0.45573 -0.486214,-0.8115 -0.835654,-0.497817 -0.336634,0.302177 -0.205165,0.913104 0.256692,0.974261 0.0084,9.8e-4 0.01716,0.0023 0.02592,0.0032 0.263874,0.03518 0.518379,-0.173612 0.549921,-0.452441 0.0012,-0.0092 0.0022,-0.01809 0.0032,-0.0273"
       style="fill:#d43722;fill-opacity:1;fill-rule:nonzero;stroke:none;stroke-width:0.0320436"
       id="path292" />
    <path
       d="m 38.72234,31.946417 c -0.0062,-0.01119 -0.01282,-0.02236 -0.01904,-0.03354 -0.129282,-0.227208 -0.472785,-0.233455 -0.653592,-0.08451 -0.179251,0.147635 -0.259193,0.500118 -0.08025,0.688198 0.0084,0.0092 0.0175,0.01841 0.02623,0.02763 0.175813,0.18512 0.434067,0.259101 0.647039,0.08352 0.216409,-0.177886 0.207977,-0.455729 0.07963,-0.681292"
       style="fill:#d43722;fill-opacity:1;fill-rule:nonzero;stroke:none;stroke-width:0.0320436"
       id="path294" />
    <path
       d="m 37.052908,27.256286 c -0.551483,-0.07103 -0.657655,0.831229 -0.10524,0.902909 0.551482,0.07103 0.657969,-0.83123 0.10524,-0.902909"
       style="fill:#d43722;fill-opacity:1;fill-rule:nonzero;stroke:none;stroke-width:0.0320436"
       id="path296" />
    <path
       d="m 11.851233,21.253549 c 0.0015,-0.315328 -0.165506,-0.646768 -0.500267,-0.674059 -0.340694,-0.02795 -0.563659,0.196299 -0.640168,0.526753 -0.03435,0.147963 -0.01062,0.325848 0.05715,0.460989 0.195486,0.391283 0.642354,0.448824 0.922153,0.119358 0.09556,-0.113439 0.160199,-0.280474 0.161135,-0.433041"
       style="fill:#d43722;fill-opacity:1;fill-rule:nonzero;stroke:none;stroke-width:0.0320436"
       id="path298" />
    <path
       d="m 12.273744,23.458541 c -0.271681,-0.03518 -0.561474,0.182818 -0.583021,0.479732 -0.02217,0.297903 0.164257,0.576403 0.455612,0.614216 0.271681,0.03486 0.560849,-0.182818 0.583021,-0.479733 0.02186,-0.2979 -0.16457,-0.57673 -0.455612,-0.614215"
       style="fill:#d43722;fill-opacity:1;fill-rule:nonzero;stroke:none;stroke-width:0.0320436"
       id="path300" />
    <path
       d="m 12.313716,27.612385 c -0.268246,-0.03453 -0.553668,0.180188 -0.575215,0.473157 -0.02155,0.293954 0.162072,0.568181 0.449054,0.605337 0.268246,0.03486 0.553668,-0.180188 0.575214,-0.472827 0.02186,-0.293956 -0.162072,-0.568512 -0.449053,-0.605667"
       style="fill:#d43722;fill-opacity:1;fill-rule:nonzero;stroke:none;stroke-width:0.0320436"
       id="path302" />
    <path
       d="m 13.911636,27.849457 c -0.556166,-0.072 -0.663277,0.838133 -0.106175,0.910144 0.556166,0.072 0.663277,-0.838465 0.106175,-0.910144"
       style="fill:#d43722;fill-opacity:1;fill-rule:nonzero;stroke:none;stroke-width:0.0320436"
       id="path304" />
    <path
       d="m 19.992601,31.862241 c -0.270119,-0.03518 -0.557726,0.181504 -0.579273,0.476444 -0.02186,0.2956 0.163321,0.572128 0.452489,0.609613 0.269807,0.03485 0.557102,-0.181504 0.578961,-0.476444 0.02186,-0.295929 -0.163321,-0.572129 -0.452177,-0.609613"
       style="fill:#d43722;fill-opacity:1;fill-rule:nonzero;stroke:none;stroke-width:0.0320436"
       id="path306" />
    <path
       d="m 19.74559,34.935619 c -0.09431,-0.260746 -0.376605,-0.352154 -0.610188,-0.274555 -0.240141,0.08023 -0.36068,0.369253 -0.294477,0.613557 0.07807,0.290009 0.385037,0.450468 0.652034,0.329466 0.246074,-0.111794 0.345378,-0.410682 0.252631,-0.668468"
       style="fill:#d43722;fill-opacity:1;fill-rule:nonzero;stroke:none;stroke-width:0.0320436"
       id="path308" />
    <path
       d="m 28.051217,32.845709 c -0.05434,-0.09766 -0.100869,-0.177228 -0.189866,-0.244305 -0.332574,-0.250224 -0.726042,0.107191 -0.59957,0.492884 0.02249,0.06839 0.05589,0.12725 0.102738,0.180188 0.136778,0.153883 0.340383,0.217014 0.520566,0.100615 0.15364,-0.0993 0.269182,-0.344592 0.166132,-0.529383"
       style="fill:#d43722;fill-opacity:1;fill-rule:nonzero;stroke:none;stroke-width:0.0320436"
       id="path310" />
    <path
       d="m 28.427509,35.120738 c -0.509634,-0.06609 -0.607377,0.76777 -0.09712,0.83386 0.509635,0.06576 0.607378,-0.767769 0.09712,-0.83386"
       style="fill:#d43722;fill-opacity:1;fill-rule:nonzero;stroke:none;stroke-width:0.0320436"
       id="path312" />
    <path
       d="m 17.843825,13.942152 c -0.100553,-0.03189 -0.184243,-0.05623 -0.290417,-0.03879 -0.04185,0.0075 -0.08306,0.01906 -0.123038,0.03453 -0.08119,0.06741 -0.107735,0.08221 -0.07994,0.04373 -0.231085,0.07333 -0.277927,0.478089 -0.0712,0.60764 -0.01811,-0.04406 0.0047,-0.02335 0.06776,0.0628 0.03529,0.02532 0.07244,0.04702 0.111484,0.06478 0.0993,0.04406 0.185804,0.04208 0.290417,0.0365 0.389409,-0.02006 0.468103,-0.692143 0.09493,-0.811172"
       style="fill:#d43722;fill-opacity:1;fill-rule:nonzero;stroke:none;stroke-width:0.0320436"
       id="path314" />
    <path
       d="m 19.563845,12.470732 c -0.03591,-0.03354 -0.07089,-0.06707 -0.106486,-0.100615 -0.252007,-0.239044 -0.683886,0.116398 -0.524312,0.431726 0.02217,0.04406 0.04466,0.08845 0.06714,0.132511 0.110234,0.218657 0.369111,0.315328 0.566782,0.152897 0.196422,-0.161776 0.17144,-0.45047 -0.0032,-0.616518"
       style="fill:#d43722;fill-opacity:1;fill-rule:nonzero;stroke:none;stroke-width:0.0320436"
       id="path316" />
    <path
       d="m 46.22635,32.871356 c -3.794163,-1.157736 -7.036532,-3.682988 -11.078644,-4.080847 -4.434018,-0.436331 -9.090689,0.86937 -13.145292,-1.576312 0.03685,-0.02696 0.07432,-0.05327 0.111483,-0.08023 2.707441,-1.980745 5.373035,-4.033828 7.924336,-6.23356 0.01843,0.0052 0.03279,0.01545 0.05402,0.01744 3.373214,0.340318 7.266057,-0.285076 9.869819,-2.752787 0.03623,-0.03453 0.0035,-0.09897 -0.04434,-0.07892 -3.082173,1.303398 -5.820216,2.349011 -9.138469,2.167179 0.746343,-0.658276 1.48425,-1.327073 2.207173,-2.014612 2.962257,-2.818222 6.50847,-6.162538 7.963058,-10.1927502 0.143646,2.6959052 0.573339,5.3997002 -0.577401,7.9282412 -0.04309,0.09568 -0.04247,0.181504 -0.02466,0.260089 -0.06526,0.162103 -0.0331,0.363991 0.16145,0.424821 0.727603,0.22655 1.35653,0.479403 1.980459,0.858849 -3.42193,1.872238 -5.642842,5.709109 -9.453555,6.828374 -0.111485,0.03255 -0.188304,0.104233 -0.239205,0.189724 -0.27449,0.08122 -0.282922,0.57147 0.03623,0.58265 0.0094,3.2e-4 0.01872,0.0016 0.02844,0.0019 0.0712,0.05788 0.168628,0.0822 0.289792,0.04702 0.02435,-0.0069 0.04684,-0.01709 0.07089,-0.02434 2.957886,0.159802 5.596622,0.940394 8.073603,2.760351 1.89958,1.395465 3.327933,3.308147 4.99674,4.964029 -0.02183,9.79e-4 -0.04372,0.0023 -0.06589,0.0036 z m -7.058078,2.028094 c -0.108362,0.08516 -0.154579,0.190051 -0.158952,0.293955 -0.08181,0.123961 -0.09837,0.287708 0.02498,0.442577 0.491525,0.617174 0.862198,1.142612 1.09453,1.792995 -1.490808,-0.974261 -2.995357,-1.923532 -4.530823,-2.818879 -1.667872,-0.972617 -3.473454,-2.270755 -5.414255,-2.424309 -0.244513,-0.01906 -0.365988,0.320918 -0.176124,0.459676 -0.01187,0.07629 -0.0081,0.156513 0.03778,0.238386 1.836186,3.291049 1.181031,7.157515 1.010216,10.864834 -0.681694,-2.618963 -2.411395,-5.286919 -3.665499,-7.249908 -2.022617,-3.167416 -4.730681,-5.824522 -8.059864,-7.366308 0.648287,-0.460004 1.292826,-0.92461 1.937053,-1.390204 3.620225,2.362493 7.664834,1.800558 11.731301,1.808449 2.863267,0.0056 5.437991,0.659262 8.085159,1.820615 1.281897,0.562593 2.523509,1.277094 3.857869,1.580914 -2.054159,0.170652 -4.039299,0.583964 -5.773372,1.947207 z m -8.13856,10.953284 c -1.560134,-1.939642 -3.369155,-3.651095 -4.829672,-5.69267 -1.173225,-1.639112 -2.279309,-3.311434 -4.029933,-4.230784 0.0041,-0.02038 0.0103,-0.04011 0.01436,-0.0605 0.104925,-0.553386 -0.701061,-0.641506 -0.819102,-0.105876 -9.43e-4,0.0046 -0.0025,0.0086 -0.0035,0.01315 -0.05309,0.06839 -0.0787,0.15454 -0.05965,0.235757 -0.499955,2.068865 -1.492684,3.970696 -2.536937,5.802161 -0.161134,-1.464517 -0.423447,-2.909629 -0.832529,-4.327782 -0.580523,-2.009023 -1.600419,-3.827336 -2.171573,-5.829783 0.939017,-0.664194 1.879594,-1.325759 2.818923,-1.989623 0.0062,0.0029 0.0091,0.0086 0.01593,0.01151 3.289212,1.511205 5.883295,3.887179 8.018019,6.910906 1.691291,2.395702 3.885036,5.827481 4.411846,8.990294 0.0015,0.09075 6.29e-4,0.182489 0.0038,0.27324 z M 14.068399,20.484464 c -1.359654,-2.4516 -3.408814,-4.605627 -5.7877385,-6.029699 2.5778455,0.860493 5.0036105,2.008694 6.5534405,4.548744 0.311965,0.511955 1.021146,-0.07398 0.707619,-0.581992 -0.06027,-0.09766 -0.125847,-0.187093 -0.188614,-0.280803 0.424383,-2.991504 -0.22484,-6.135247 -1.17947,-8.9718822 1.047377,0.2630476 1.870537,0.7756608 2.663721,1.6746242 0.213597,0.242003 0.730103,0.198601 0.734475,-0.214383 0.03247,-3.1585396 2.012623,-5.7630354 2.397973,-8.8058337 0.943388,4.5286864 0.938704,9.0277787 0.0509,13.6011837 -0.854077,4.398806 -2.6937,8.784461 -1.927373,13.342739 -0.713865,0.492885 -1.452711,0.990045 -2.205611,1.49378 0.134903,-3.444933 -0.109609,-6.692579 -1.819324,-9.776478 z m 0.949009,10.358141 c -3.063748,0.0099 -6.2227397,-0.85063 -9.2040464,-0.274884 1.6506952,-1.831467 3.5527731,-2.953363 5.7455804,-4.175875 0.269807,-0.150594 0.185181,-0.678991 -0.158324,-0.586924 -0.04216,0.01119 -0.08276,0.02564 -0.124599,0.0375 C 10.812913,25.092395 10.31327,24.367699 9.8573459,23.612754 8.9508068,22.112727 8.8674286,20.716604 8.6478978,19.01173 8.44242,17.414048 7.9740048,15.923885 7.3072937,14.502443 c 2.2043619,1.49115 4.1429763,3.192736 5.6231683,5.575286 2.025739,3.261127 2.358314,6.812594 2.349258,10.589622 -0.08775,0.05885 -0.17425,0.116399 -0.262312,0.175254 z m 9.944454,-14.072039 c -0.04497,0.545166 0.748215,0.652358 0.804425,0.103904 0.0062,-0.06445 0.0072,-0.128235 0.01343,-0.192682 2.002007,-3.070747 4.861526,-5.4385 7.324452,-8.132432 0.08494,0.7884838 0.169878,1.576968 0.254506,2.365451 0.03872,0.360376 0.494959,0.457702 0.697002,0.189066 1.596048,-2.1218043 4.250711,-2.1734274 6.495981,-3.1236853 -2.360188,4.3725023 -6.353271,7.9884143 -9.957569,11.1709563 -1.122635,0.99103 -2.272126,1.946877 -3.436918,2.881353 1.245672,-4.017388 4.176078,-7.029607 5.272482,-11.082178 0.0234,-0.08713 -0.09119,-0.181173 -0.144585,-0.08746 -2.06696,3.622817 -5.418315,7.461004 -5.931073,11.811806 -2.350195,1.850536 -4.765656,3.610979 -7.192671,5.343802 -0.174563,0.124948 -0.355683,0.250224 -0.533994,0.375173 -0.248884,-5.19321 1.71846,-9.93628 2.407967,-15.016708 0.502453,-3.7033751 0.498394,-7.5307116 -0.432817,-11.1499123 3.23675,3.9914125 4.795011,9.2326273 4.359385,14.5435493 z m 15.50673,9.473974 c -1.71284,-1.003525 -3.60867,-1.698956 -5.551348,-1.820287 3.118712,-1.701257 5.238446,-4.982443 8.53484,-6.474248 0.262623,-0.119029 0.32664,-0.528396 0.08244,-0.708583 -0.745093,-0.550098 -1.482691,-0.918364 -2.33427,-1.114992 1.221314,-2.890231 0.533057,-5.88305 0.520566,-8.9498515 C 41.719563,6.8895281 41.459444,6.5564448 41.15591,6.7310421 38.822892,8.0735695 35.997725,8.0515391 34.03319,9.9408758 33.943254,9.1579814 33.853318,8.3757447 33.763696,7.5928505 33.721538,7.2282016 33.294032,7.1680292 33.087304,7.409704 c -1.719396,2.0109957 -3.580878,3.83194 -5.428932,5.705493 -0.692005,0.701679 -1.322493,1.406645 -1.802774,2.223078 C 25.921489,12.50986 25.385621,9.7297804 24.40195,7.0733326 23.500719,4.6408035 22.311881,1.9751491 20.038819,0.71482415 20.037876,0.65300818 20.042319,0.59250719 20.03976,0.53003356 20.02071,0.0710163 19.278113,0.07594844 19.265308,0.53989792 19.175688,3.8049712 17.178675,6.4725984 16.814248,9.6386999 15.892408,8.8225964 14.864705,8.34944 13.587804,8.1695815 c -0.32102,-0.045375 -0.538052,0.3015181 -0.429068,0.6030356 1.038008,2.8787219 1.313748,5.6469659 1.613222,8.5838869 -2.114114,-2.538076 -5.2693582,-3.542917 -8.3843192,-4.305096 -0.355371,-0.0868 -0.4852784,0.378788 -0.3400696,0.633286 0.8312809,1.456624 1.4261683,2.977695 1.7562446,4.645743 0.2432637,1.227443 0.1754998,2.532816 0.5396144,3.731652 0.4474927,1.47142 1.4580202,2.757722 2.3904788,3.953929 -2.5303788,0.896661 -4.6910217,2.89878 -6.3642011,5.025187 -0.276677,0.352155 0.1255354,0.751658 0.4730994,0.63756 2.7767654,-0.910799 5.9204557,0.254499 8.7902797,0.09272 -5.4539143,3.682008 -11.1551517,7.898982 -13.58247919,13.877387 -0.18705364,0.460334 0.45873468,0.872658 0.7347872,0.444221 2.73054849,-4.240318 5.75682289,-7.589568 9.71586799,-10.606719 1.57044,-1.197194 3.172732,-2.347368 4.781582,-3.488662 0.27293,1.663772 1.099214,3.149331 1.606664,4.750631 0.666711,2.102734 1.032074,4.256431 1.180718,6.46241 0.02374,0.355444 0.550545,0.511956 0.732914,0.198931 1.246296,-2.13923 2.582841,-4.358362 3.207395,-6.801742 1.725017,1.370804 2.767084,3.19438 4.094574,5.017955 1.557948,2.140543 3.521544,3.915128 5.140387,6.00734 0.266997,0.344922 0.877809,0.118043 0.787563,-0.355773 -0.855015,-4.493832 1.202576,-9.783054 -0.875,-14.119057 3.277656,1.496737 6.425409,3.691209 9.392349,5.692012 0.343816,0.23181 0.786626,-0.01874 0.744468,-0.462634 -0.117416,-1.233035 -0.479033,-2.253328 -1.333735,-3.014193 2.259325,-1.421769 4.817807,-1.642729 7.418136,-1.598011 0.148019,0.0026 0.272306,-0.05952 0.362242,-0.150923 l 0.06932,-0.592514 c -0.02623,-0.04077 -0.05746,-0.08089 -0.09899,-0.117385 -2.509145,-2.214857 -4.32441,-4.960412 -7.243259,-6.670219"
       style="fill:#6f3718;fill-opacity:1;fill-rule:nonzero;stroke:none;stroke-width:0.0320436"
       id="path318" />
  </g>
</svg>
