<?xml version="1.0" encoding="UTF-8" standalone="no"?>
<!-- Created with Inkscape (http://www.inkscape.org/) -->

<svg
   width="48"
   height="48"
   viewBox="0 0 48 48"
   version="1.1"
   id="svg1"
   inkscape:version="1.3 (0e150ed, 2023-07-21)"
   sodipodi:docname="leaf9.svg"
   xmlns:inkscape="http://www.inkscape.org/namespaces/inkscape"
   xmlns:sodipodi="http://sodipodi.sourceforge.net/DTD/sodipodi-0.dtd"
   xmlns="http://www.w3.org/2000/svg"
   xmlns:svg="http://www.w3.org/2000/svg">
  <sodipodi:namedview
     id="namedview1"
     pagecolor="#505050"
     bordercolor="#ffffff"
     borderopacity="1"
     inkscape:showpageshadow="0"
     inkscape:pageopacity="0"
     inkscape:pagecheckerboard="1"
     inkscape:deskcolor="#505050"
     inkscape:document-units="px"
     inkscape:zoom="11.85877"
     inkscape:cx="48.951114"
     inkscape:cy="28.628601"
     inkscape:window-width="1920"
     inkscape:window-height="1011"
     inkscape:window-x="0"
     inkscape:window-y="0"
     inkscape:window-maximized="1"
     inkscape:current-layer="layer1" />
  <defs
     id="defs1" />
  <g
     inkscape:label="Layer 1"
     inkscape:groupmode="layer"
     id="layer1">
    <path
       d="m 28.749452,17.287797 c -1.206648,-1.282934 -1.877797,-2.728365 -2.54163,-4.339738 -0.09221,-0.224131 0.25711,-0.371971 0.353969,-0.149564 0.626598,1.44155 1.35471,2.769958 2.335722,3.993628 0.355522,-1.18962 0.708607,-2.379884 1.001403,-3.582865 -1.455115,-1.109233 -2.36786,-2.992151 -2.587291,-4.7401574 -0.0173,-0.1368494 0.204359,-0.2083987 0.248246,-0.068317 0.524418,1.6749494 1.371776,2.9404274 2.469595,4.2503024 0.0062,-0.02693 0.01285,-0.05366 0.01884,-0.0806 0.246251,-1.102337 0.383894,-2.242388 0.508681,-3.3886897 -0.982785,-1.1611717 -1.571924,-2.4859156 -1.641521,-4.0020331 -0.0088,-0.1915892 0.272184,-0.2368463 0.307425,-0.042457 0.225194,1.2432814 0.674474,2.4253573 1.396822,3.4647653 0.220983,-2.0622218 0.450611,-4.1294001 1.23901,-6.0217996 0.03989,-0.095902 0.202807,-0.057541 0.182416,0.046765 -0.402956,2.0626534 -0.623937,4.1522452 -0.899224,6.2325696 0.718582,-0.3379208 1.361358,-0.9282046 1.858072,-1.5077127 0.501366,-0.5851117 0.797265,-1.2732372 1.245214,-1.8857184 0.01441,-0.019611 0.04056,-0.00409 0.04035,0.01595 -0.0077,1.4637483 -1.671,3.5417023 -3.204136,3.8319953 -0.147394,1.0764763 -0.320501,2.1484263 -0.540376,3.2132653 0.905208,-0.352361 1.748798,-0.752779 2.493312,-1.385734 0.760251,-0.646101 1.284225,-1.4221558 1.8727,-2.205968 0.01684,-0.02263 0.0605,-0.00798 0.05386,0.021119 -0.470558,2.063729 -2.451199,3.427697 -4.381749,4.095995 -0.05386,0.01875 -0.102622,0.01616 -0.14806,0.006 -0.0086,0.03836 -0.01507,0.07694 -0.02394,0.115298 -0.28792,1.258366 -0.617732,2.510268 -0.972589,3.756566 1.602733,-0.198702 3.273068,-1.179059 4.240337,-2.417599 0.03369,-0.04289 0.113263,-0.0024 0.08645,0.04764 -0.85844,1.596717 -2.617214,2.668666 -4.464201,2.841506 -0.319616,1.102768 -0.655854,2.201656 -0.999852,3.296666 4.072772,-1.360303 6.79571,-5.148981 7.684738,-9.168039 0.472546,-2.1370457 0.276609,-4.2568087 -0.819658,-6.1828277 -0.85822,-1.5079282 -1.766752,-2.7964663 -2.227115,-4.4496488 -2.909344,2.7178051 -6.24137,4.815586 -7.069445,8.9736491 -0.454155,2.2803174 -0.1157,4.6709774 0.774437,6.8131534 0.494716,1.190266 1.137273,2.237216 1.308827,3.426405 0.244699,-0.945876 0.520207,-1.885288 0.800369,-2.823837"
       style="fill:#db3322;fill-opacity:1;fill-rule:nonzero;stroke:none;stroke-width:0.0218556"
       id="path14" />
    <path
       d="m 25.210629,27.729937 c 0.637014,0.995442 0.675581,2.36609 0.591577,3.497952 -0.0057,0.07888 -0.140081,0.08017 -0.14407,5.3e-4 -0.05164,-1.072163 -0.2017,-2.145192 -0.639454,-3.128784 -0.402954,0.794588 -0.772441,1.598012 -1.087625,2.414584 0.697304,1.113758 1.302624,2.644099 0.876395,3.951819 -0.0073,0.02243 -0.03901,0.01443 -0.04322,-0.0052 -0.264869,-1.238755 -0.370595,-2.365662 -1.009161,-3.476187 -0.02504,0.07047 -0.05497,0.13965 -0.07892,0.210552 -0.291466,0.863338 -0.726338,1.651029 -1.215292,2.410921 0.0098,0.0073 0.02061,0.0112 0.0297,0.02113 0.910305,0.975185 0.771997,2.463071 0.41714,3.632216 -0.02261,0.07457 -0.148947,0.0403 -0.13454,-0.03449 0.19926,-1.030575 0.212116,-2.441308 -0.52996,-3.286109 -0.905651,1.354269 -1.948724,2.638282 -2.625414,4.121426 -0.06428,0.14073 -0.280827,0.05431 -0.227189,-0.0903 0.535278,-1.447368 1.474178,-2.679446 2.334392,-3.951818 -1.210418,0.18577 -2.306907,0.620671 -3.205465,1.482497 -0.129886,0.124352 -0.352421,-0.08965 -0.227632,-0.215726 1.004284,-1.016349 2.284963,-1.727965 3.762465,-1.769343 8.78e-4,0 0.0016,5.31e-4 0.0022,5.31e-4 0.502475,-0.777564 0.954193,-1.581417 1.246546,-2.469322 0.01618,-0.04979 0.03679,-0.09914 0.05342,-0.148918 -1.30905,0.140729 -2.679495,0.371541 -3.776207,1.10406 -0.148726,0.09935 -0.311193,-0.09806 -0.174215,-0.213785 1.104913,-0.933161 2.694125,-1.339615 4.136828,-1.407071 0.303658,-0.822604 0.655855,-1.636371 1.043517,-2.441518 -0.968821,0.373477 -1.957369,0.705581 -2.920649,1.095224 -0.08489,0.03427 -0.162024,-0.08318 -0.08423,-0.136849 0.982563,-0.67972 2.107645,-1.260952 3.289469,-1.53185 0.404507,-0.810106 0.829849,-1.613529 1.256077,-2.410271 -0.826302,0.733166 -1.78803,1.267849 -2.76217,1.881839 -1.388622,0.875405 -2.649575,1.948 -3.612633,3.265847 -2.308458,3.158093 -2.089248,6.949791 -1.295972,10.561963 0.702844,-0.789632 1.597414,-1.314184 2.537864,-1.844339 1.447578,-0.816138 2.702103,-1.731847 3.64344,-3.102708 2.115847,-3.081801 1.804875,-6.507774 1.627779,-9.98073 -0.353971,0.662911 -0.709938,1.326036 -1.05482,1.992181"
       style="fill:#f1492b;fill-opacity:1;fill-rule:nonzero;stroke:none;stroke-width:0.0218556"
       id="path16" />
    <path
       d="m 12.149299,30.09689 c 4.379842,-0.42585 7.957232,-3.453342 11.377918,-5.957361 -0.255117,0.0077 -0.512006,0.01229 -0.770668,0.01595 -1.148578,0.01702 -2.292722,0.07306 -3.436644,0.141374 0.006,1.446293 -1.360029,3.477481 -2.784114,3.839969 -0.104396,0.02651 -0.192391,-0.122194 -0.119911,-0.197623 0.500258,-0.519813 1.072994,-0.923679 1.501662,-1.515901 0.448835,-0.620671 0.805688,-1.33789 0.89213,-2.095626 -0.553675,0.03491 -1.107351,0.07155 -1.661691,0.109047 -1.001625,0.06789 -2.001477,0.131894 -3.00022,0.199995 0.07949,1.990025 -1.495411,4.324434 -3.439946,4.941014 -0.07999,0.02542 -0.163022,-0.08125 -0.08163,-0.132539 1.573252,-0.992428 3.141231,-2.839569 3.054124,-4.776148 -1.337931,0.09374 -2.672403,0.201502 -4.0035073,0.338568 C 9.4539571,26.794617 8.1087342,28.177332 6.3551262,28.664602 6.2110553,28.704682 6.111314,28.506418 6.2593741,28.45017 7.8335823,27.852346 8.8236372,26.605188 9.191084,25.057174 7.4867481,25.243591 5.7883746,25.486256 4.097714,25.834952 3.954663,25.864266 3.8875704,25.634096 4.0274968,25.593365 5.6675992,25.114284 7.3641555,24.827009 9.0787094,24.62917 8.2964491,23.757214 6.8474287,23.271884 5.7101114,23.362398 c -0.1888435,0.01509 -0.2299595,-0.253224 -0.04147,-0.284474 1.3364454,-0.220467 3.2399316,0.258397 3.9637659,1.471292 0.00386,0.0066 0.00346,0.01271 0.00641,0.01919 1.3180047,-0.137927 2.6440107,-0.230381 3.9609947,-0.321541 -0.77663,-1.224963 -2.047468,-2.015888 -3.494161,-2.332258 -0.1392158,-0.03039 -0.1136824,-0.216372 0.02824,-0.212708 1.716726,0.04396 3.201321,1.060743 4.017427,2.506604 0.561411,-0.03922 1.120871,-0.07931 1.67654,-0.124348 0.970595,-0.07888 1.942298,-0.167023 2.914443,-0.242882 -0.799924,-1.235955 -2.082599,-1.862874 -3.479863,-2.322128 -0.09265,-0.03039 -0.04366,-0.151935 0.04056,-0.149565 1.675433,0.04871 3.231398,0.963981 3.993644,2.43247 0.771111,-0.05582 1.542665,-0.104307 2.314886,-0.128445 0.598005,-0.01875 1.187143,-0.02198 1.768968,-0.04137 -1.629775,-1.41375 -3.31097,-2.247345 -5.564239,-2.5663 -2.124268,-0.300423 -4.383211,-0.455375 -6.522021,-0.275208 -4.5439486,0.382532 -7.6327165,3.030726 -10.63821185,6.078264 1.63456115,0.44783 3.08453485,1.340474 4.65054055,1.974509 2.153704,0.872171 4.492948,1.482066 6.8427443,1.253409"
       style="fill:#db3322;fill-opacity:1;fill-rule:nonzero;stroke:none;stroke-width:0.0218556"
       id="path18" />
    <path
       d="M 30.810774,24.711925 C 30.219861,24.54512 29.563119,24.384348 28.942286,24.1572 c 1.874693,2.685046 3.641003,5.539056 7.307051,5.944863 3.393423,0.375634 6.084223,-1.671716 9.248682,-2.33549 0.425122,-0.09741 0.853566,-0.166159 1.28467,-0.229088 0.05542,-0.0082 0.111045,-0.01615 0.166458,-0.02415 0.440857,-0.06314 0.02593,-0.417228 -0.14806,-0.535112 -0.833174,-0.56507 -1.87004,-1.266987 -2.605467,-1.624736 -1.665458,-0.810536 -3.008641,-1.690466 -4.862723,-2.118038 -3.530622,-0.814416 -6.532395,-0.412919 -9.908306,0.615067 0.807018,0.281888 1.677428,0.465719 2.407756,0.660109 0.176874,0.04698 0.355301,0.09051 0.532397,0.136849 0.691762,-0.88466 2.423936,-1.41848 3.494494,-1.256201 0.0084,0.0013 0.01198,0.01207 0.0049,0.01746 -0.461249,0.351498 -1.087182,0.416151 -1.634651,0.595025 -0.5437,0.17758 -0.986331,0.438995 -1.430069,0.755581 1.070336,0.276499 2.144219,0.542871 3.22076,0.79157 0.355079,-0.478218 0.894125,-0.73252 1.433837,-0.974323 0.555449,-0.248915 1.140376,-0.501063 1.763647,-0.463133 0.03857,0.0024 0.04832,0.06249 0.01109,0.07457 -0.981675,0.313999 -2.101439,0.718513 -2.855262,1.444567 1.151237,0.260768 2.306906,0.482959 3.467895,0.669377 0.277946,-0.429944 0.852901,-0.644808 1.309271,-0.849543 0.29723,-0.133185 1.051053,-0.546751 1.398374,-0.348049 0.01595,0.009 0.0235,0.03664 0.01485,0.05215 -0.0029,0.0054 -0.006,0.01078 -0.0088,0.01616 -0.0084,0.01552 -0.02283,0.02133 -0.03989,0.01638 -0.0034,-0.0011 -0.0066,-0.002 -0.01,-0.0031 -0.0066,-0.002 -0.0096,-0.0095 -0.0094,-0.0153 -0.0051,0.107971 -1.069448,0.469167 -1.225709,0.548906 -0.378574,0.193098 -0.722793,0.401281 -1.060806,0.640498 1.495456,0.229518 3.000443,0.398265 4.518285,0.501493 0.03945,0.0029 0.03945,0.06443 4.87e-4,0.06766 -1.517398,0.127368 -3.021498,0.0528 -4.514294,-0.137279 0.311859,0.822604 1.055264,1.424956 1.871593,1.777317 0.08024,0.03448 0.03081,0.148269 -0.0512,0.121763 -1.022681,-0.330809 -1.915255,-0.899327 -2.202511,-1.949941 -1.206428,-0.169608 -2.405319,-0.410764 -3.597561,-0.680367 0.318508,1.251686 1.09782,2.806595 2.301366,3.425972 0.06671,0.03449 0.02726,0.138144 -0.04544,0.108188 -1.465089,-0.598691 -2.312669,-2.177521 -2.633838,-3.620149 -0.16978,-0.03922 -0.339563,-0.07866 -0.509124,-0.118746 -0.991871,-0.23426 -1.985074,-0.472616 -2.9734,-0.726272 -0.01751,0.53576 0.32006,1.254057 0.554562,1.714389 0.296342,0.581232 0.683782,0.970875 1.154341,1.416335 0.03147,0.02995 0.0062,0.08858 -0.04035,0.0694 -0.62548,-0.257966 -1.066559,-0.802778 -1.389277,-1.369355 C 32.38339,26.487 31.914163,25.636379 32.056461,25.048682 31.639985,24.939848 31.224396,24.828429 30.810801,24.711838"
       style="fill:#e9411f;fill-opacity:1;fill-rule:nonzero;stroke:none;stroke-width:0.0218556"
       id="path20" />
    <path
       d="m 20.314436,16.874448 c 1.338086,1.170439 2.712743,2.298421 4.12619,3.380716 C 23.538742,16.025121 21.691755,12.519624 17.819795,10.090819 16.024894,8.9647751 14.06646,8.1701873 12.070947,7.4516744 10.702872,6.9592327 9.2239074,6.4743336 8.0462278,5.6043172 c 0.2049354,2.4591922 1.0233019,4.9895038 1.9433157,7.2441758 0.8742005,2.141745 2.0995775,4.292326 4.2396945,5.442076 1.230232,0.660971 2.606441,0.894585 3.948296,1.252332 0.981676,0.261846 1.938528,0.618731 2.945915,0.777778 1.057925,0.16702 2.095677,0.153013 3.072478,0.38598 -0.547026,-0.415505 -1.090505,-0.835104 -1.623125,-1.267633 -0.889027,-0.72153 -1.748355,-1.47668 -2.598816,-2.241312 -0.316734,0.566362 -1.291318,0.817432 -1.878462,0.914196 -1.073661,0.176719 -2.068636,-0.0765 -3.091317,-0.366799 -0.163797,-0.04634 -0.08873,-0.314214 0.07602,-0.279948 0.842482,0.174779 1.744808,0.259044 2.605023,0.171115 0.768008,-0.07844 1.341632,-0.378436 2.004358,-0.694375 -0.468121,-0.422616 -0.934687,-0.846741 -1.401034,-1.270651 -0.494052,-0.448694 -0.992095,-0.895447 -1.491244,-1.341985 -1.357147,0.925402 -4.021018,0.695453 -5.271841,-0.281242 -0.04382,-0.03427 -0.01456,-0.100212 0.04017,-0.09611 1.762452,0.133833 3.176141,0.607741 4.904083,0.08449 -0.851349,-0.760538 -1.705089,-1.521506 -2.55349,-2.288077 -0.493432,0.328223 -1.078026,0.380161 -1.678802,0.379298 -0.710491,-6.35e-4 -1.596039,-0.01358 -2.187483,-0.438563 -0.056373,-0.04051 -0.03107,-0.129307 0.03688,-0.139436 0.547891,-0.08081 1.111186,0.07112 1.664883,0.09374 0.636106,0.02607 1.234731,-0.01078 1.827727,-0.20021 -1.469551,-1.33423 -2.916487,-2.6900074 -4.2895932,-4.104835 -0.051423,-0.053015 0.03387,-0.1342632 0.09014,-0.089868 1.455604,1.1475945 2.862355,2.3583336 4.249136,3.5936414 C 13.53363,10.34017 13.419617,9.8475125 13.249658,9.3570102 13.097608,8.9180148 12.833537,8.511346 12.833714,8.0430414 c 0,-0.040085 0.05187,-0.049568 0.07966,-0.032757 0.470824,0.2868449 0.677066,0.9023433 0.857754,1.3919837 0.218455,0.5922233 0.361485,1.2215149 0.399564,1.8495119 0.0016,0.02521 -0.004,0.04654 -0.0089,0.06811 0.857267,0.769804 1.709057,1.545643 2.559297,2.322344 -0.08511,-1.272376 -0.244034,-2.648626 -0.786183,-3.7878158 -0.05984,-0.1256428 0.117473,-0.2146486 0.20458,-0.1191775 0.476986,0.5228293 0.651865,1.2740983 0.796822,1.9460613 0.161138,0.745451 0.347544,1.587237 0.209458,2.348635 0.916068,0.835751 1.833467,1.668053 2.75951,2.486994 0.0013,-1.481636 -0.0747,-2.90336 -0.457702,-4.352884 -0.04477,-0.169393 0.229184,-0.232322 0.296122,-0.08146 0.65408,1.47668 0.957296,3.118441 0.60421,4.711494 -0.0071,0.03147 -0.01929,0.05754 -0.03346,0.08039"
       style="fill:#f1492b;fill-opacity:1;fill-rule:nonzero;stroke:none;stroke-width:0.0218556"
       id="path22" />
    <path
       d="m 46.949369,27.513348 c -0.05564,0.0079 -0.111045,0.01593 -0.16668,0.02415 -0.430883,0.06293 -0.859548,0.131678 -1.28467,0.229089 -3.164459,0.663772 -5.855259,2.711124 -9.248682,2.33549 -3.666048,-0.405807 -5.432358,-3.259817 -7.30683,-5.944863 0.620612,0.227148 1.277354,0.38792 1.868267,0.554725 0.413594,0.11659 0.829182,0.22801 1.245658,0.336842 -0.142297,0.587699 0.326931,1.438319 0.596453,1.911795 0.322719,0.566577 0.763797,1.111389 1.389287,1.369355 0.04655,0.01918 0.07182,-0.03944 0.04035,-0.0694 -0.470558,-0.445461 -0.857998,-0.835104 -1.154118,-1.416337 -0.234726,-0.46033 -0.572294,-1.178627 -0.554784,-1.714385 0.988327,0.253655 1.981528,0.492009 2.9734,0.72627 0.169783,0.04009 0.339344,0.07952 0.509125,0.118746 0.321167,1.442628 1.168747,3.02146 2.633836,3.620148 0.0727,0.02996 0.112375,-0.07371 0.04544,-0.108186 -1.203546,-0.619377 -1.982635,-2.174288 -2.301365,-3.425973 1.192464,0.269603 2.391132,0.510759 3.59756,0.680366 0.287254,1.050617 1.179829,1.619133 2.202511,1.949942 0.08223,0.02651 0.131437,-0.08728 0.0512,-0.121763 -0.816327,-0.352362 -1.559733,-0.954714 -1.87159,-1.777317 1.492795,0.19008 2.996894,0.264646 4.514293,0.137281 0.03901,-0.0033 0.03901,-0.06488 -4.88e-4,-0.06767 -1.517841,-0.103229 -3.022827,-0.271974 -4.518283,-0.501493 0.338012,-0.239216 0.682452,-0.4474 1.060804,-0.640497 0.156262,-0.07973 1.220614,-0.440936 1.22571,-0.548907 -1.65e-4,0.0057 0.0027,0.01337 0.0094,0.0153 0.0034,8.47e-4 0.0066,0.002 0.01019,0.0031 0.01684,0.005 0.03125,-8.47e-4 0.03967,-0.01638 0.0028,-0.0053 0.006,-0.01078 0.0088,-0.01616 0.0086,-0.01552 0.0012,-0.0431 -0.01485,-0.05215 -0.347322,-0.198701 -1.101145,0.214865 -1.398374,0.34805 -0.456372,0.204735 -1.031327,0.4196 -1.309049,0.849543 -1.161212,-0.186417 -2.316882,-0.408608 -3.468118,-0.669376 0.753823,-0.726056 1.873587,-1.130569 2.855262,-1.444568 0.03725,-0.01207 0.02748,-0.0722 -0.01109,-0.07457 -0.623272,-0.03793 -1.208201,0.214218 -1.763649,0.463133 -0.539712,0.241804 -1.078757,0.496106 -1.433615,0.974324 -1.076775,-0.248709 -2.150657,-0.51508 -3.220993,-0.791581 0.443737,-0.316585 0.886368,-0.577999 1.430069,-0.75558 0.547469,-0.178873 1.173401,-0.243526 1.63465,-0.595025 0.0071,-0.0054 0.0036,-0.01616 -0.0049,-0.01746 -1.070555,-0.162279 -2.802731,0.371541 -3.494493,1.256213 -0.177096,-0.04633 -0.355523,-0.08987 -0.532398,-0.13685 -0.730328,-0.194391 -1.600737,-0.378221 -2.407755,-0.660109 3.375912,-1.027985 6.377683,-1.429482 9.908306,-0.615067 1.854081,0.427572 3.197264,1.307503 4.862724,2.118039 0.735426,0.357748 1.772514,1.059665 2.605685,1.624734 0.173774,0.117884 0.588698,0.471969 0.148063,0.535113 z M 24.63767,35.718486 c -0.941337,1.370864 -2.195861,2.28657 -3.64344,3.102707 -0.940451,0.530156 -1.83502,1.05471 -2.537864,1.844342 -0.793276,-3.612175 -1.012485,-7.403872 1.295973,-10.561965 0.963279,-1.317847 2.22401,-2.390442 3.612632,-3.265848 0.974141,-0.61399 1.935868,-1.148672 2.76217,-1.881839 -0.426227,0.796742 -0.85157,1.600166 -1.256076,2.410271 -1.181824,0.270899 -2.306907,0.85213 -3.28947,1.53185 -0.0778,0.05366 -6.5e-4,0.171115 0.08422,0.13685 0.963281,-0.389643 1.951828,-0.721747 2.920871,-1.095225 -0.387884,0.805147 -0.73986,1.618915 -1.043738,2.441519 -1.442704,0.06745 -3.031694,0.473909 -4.136829,1.407071 -0.136978,0.115729 0.02571,0.313135 0.174215,0.213784 1.096711,-0.732518 2.467158,-0.963331 3.77643,-1.104059 -0.01685,0.04978 -0.03724,0.09913 -0.05364,0.148918 -0.292353,0.887902 -0.74407,1.691757 -1.246546,2.469321 -6.49e-4,0 -0.0013,-5.3e-4 -0.002,-5.3e-4 -1.477724,0.04137 -2.758402,0.752994 -3.762687,1.769345 -0.124787,0.126073 0.09775,0.340076 0.227632,0.215723 0.898558,-0.861826 1.995049,-1.296727 3.205466,-1.482497 -0.860215,1.272376 -1.79889,2.504451 -2.334392,3.951821 -0.05364,0.144605 0.162912,0.231026 0.227189,0.09031 0.67669,-1.483143 1.719764,-2.767156 2.625636,-4.121425 0.741855,0.844801 0.728999,2.255534 0.529959,3.286108 -0.01463,0.07478 0.111711,0.109049 0.134319,0.03449 0.354857,-1.169148 0.493165,-2.657033 -0.417141,-3.632218 -0.0092,-0.0099 -0.01995,-0.01379 -0.0297,-0.02113 0.488954,-0.759892 0.923825,-1.547582 1.215292,-2.41092 0.02394,-0.0709 0.05386,-0.140082 0.07891,-0.210552 0.638567,1.110525 0.744294,2.237432 1.009162,3.476186 0.0042,0.01962 0.0359,0.02758 0.04322,0.0052 0.42645,-1.30772 -0.17909,-2.838061 -0.876393,-3.95182 0.315182,-0.816572 0.684669,-1.619995 1.087623,-2.414584 0.437754,0.983593 0.588031,2.056621 0.639675,3.128785 0.0039,0.07953 0.138087,0.07823 0.14385,-5.3e-4 0.08401,-1.131863 0.04544,-2.50251 -0.591578,-3.497952 0.344884,-0.666145 0.70085,-1.329271 1.054821,-1.992182 0.177096,3.472957 0.488068,6.898929 -1.627779,9.980731 z M 12.149299,30.09689 C 9.7995036,30.325547 7.4602585,29.715652 5.3065545,28.843481 3.7405488,28.209447 2.2906639,27.316802 0.65601398,26.868972 3.6615092,23.821434 6.7502772,21.173239 11.294227,20.790708 c 2.138809,-0.180167 4.397973,-0.02521 6.522021,0.275208 2.253268,0.318955 3.934463,1.15255 5.564238,2.566301 -0.581824,0.01939 -1.170964,0.02262 -1.768968,0.04137 -0.772221,0.02413 -1.543775,0.07263 -2.314886,0.128445 -0.762025,-1.468489 -2.318211,-2.383763 -3.993645,-2.432469 -0.08401,-0.0024 -0.133209,0.119177 -0.04056,0.149564 1.397266,0.459254 2.67994,1.086173 3.479866,2.322128 -0.972146,0.07586 -1.943849,0.164003 -2.914443,0.242881 -0.55567,0.04504 -1.115131,0.08513 -1.676541,0.124348 -0.816106,-1.445861 -2.300523,-2.46264 -4.017427,-2.506604 -0.1419215,-0.0037 -0.1674549,0.182322 -0.02824,0.212708 1.446693,0.31637 2.717531,1.107295 3.494162,2.332259 -1.316985,0.09116 -2.642902,0.183614 -3.9609073,0.32154 -0.00315,-0.0064 -0.00264,-0.01251 -0.00651,-0.01919 -0.723657,-1.212893 -2.6273203,-1.691759 -3.963766,-1.471292 -0.1884889,0.03125 -0.1472847,0.299561 0.041559,0.284474 1.1372289,-0.09051 2.5864265,0.394816 3.3686868,1.266773 -1.7147314,0.197838 -3.4112873,0.485114 -5.0513899,0.964194 -0.1398375,0.04073 -0.072834,0.270897 0.070219,0.241588 1.6906602,-0.348696 3.3890339,-0.591362 5.0934587,-0.777779 -0.367536,1.548014 -1.3575021,2.795174 -2.9317975,3.393001 -0.1480607,0.05625 -0.04823,0.254517 0.095751,0.214432 1.7536084,-0.48727 3.0988315,-1.869985 3.3216751,-3.656999 1.3311031,-0.137065 2.6656651,-0.24482 4.0035071,-0.338568 0.08711,1.936579 -1.480871,3.783719 -3.054058,4.776147 -0.08137,0.05129 0.0016,0.157969 0.08157,0.132539 1.944535,-0.616577 3.51943,-2.950988 3.439946,-4.941013 0.998745,-0.06811 1.998595,-0.132108 3.00022,-0.199993 0.55434,-0.0375 1.108015,-0.07413 1.661692,-0.109049 -0.08622,0.757736 -0.443296,1.474956 -0.892132,2.095626 -0.428445,0.592221 -1.001403,0.996089 -1.501662,1.515902 -0.07248,0.07543 0.01552,0.224129 0.119912,0.197623 1.424086,-0.362491 2.790098,-2.393676 2.784114,-3.839969 1.143923,-0.06832 2.288067,-0.124349 3.436644,-0.141375 0.258662,-0.0037 0.515553,-0.0082 0.770668,-0.01595 -3.420684,2.504019 -6.998075,5.531513 -11.377917,5.957362 z m 7.594396,-18.014322 c -0.06671,-0.150857 -0.340894,-0.08793 -0.296121,0.08146 0.383007,1.449525 0.459032,2.871248 0.457702,4.352884 -0.926043,-0.818941 -1.843442,-1.651243 -2.759512,-2.486994 0.138088,-0.761398 -0.04832,-1.603184 -0.209456,-2.348634 -0.144958,-0.671963 -0.319837,-1.423233 -0.796822,-1.9460623 -0.08711,-0.095471 -0.264427,-0.00646 -0.204581,0.1191774 0.542149,1.1391899 0.701071,2.5154399 0.786184,3.7878159 -0.85024,-0.7767 -1.702032,-1.552539 -2.559298,-2.322343 0.0048,-0.02155 0.01048,-0.04289 0.0091,-0.06811 C 14.132671,10.62377 13.989799,9.9944783 13.771188,9.4022548 13.590678,8.9126146 13.384347,8.297116 12.913612,8.0102713 c -0.02797,-0.01681 -0.07983,-0.00732 -0.07983,0.032757 -8.9e-5,0.4683046 0.263982,0.8749733 0.415944,1.3139686 0.16996,0.4905024 0.283974,0.9831601 0.37957,1.4850851 -1.386869,-1.2353083 -2.793622,-2.4460472 -4.249225,-3.5936417 -0.05628,-0.044395 -0.141566,0.036853 -0.09014,0.089868 1.373105,1.4148277 2.820044,2.7706047 4.289588,4.1048317 -0.592995,0.189434 -1.191444,0.226287 -1.827728,0.20021 -0.553697,-0.02262 -1.116992,-0.174564 -1.664882,-0.09374 -0.06796,0.01014 -0.093252,0.09892 -0.03688,0.139436 0.591534,0.424986 1.476994,0.437917 2.187484,0.438563 0.600864,8.48e-4 1.185371,-0.05107 1.678891,-0.379298 0.848312,0.766572 1.702053,1.527539 2.553401,2.288077 -1.727854,0.52326 -3.141454,0.04936 -4.904083,-0.08449 -0.05472,-0.0041 -0.08398,0.06185 -0.04017,0.09611 1.250912,0.976695 3.914693,1.206645 5.27184,0.281243 0.499151,0.446537 0.997193,0.89329 1.491245,1.341984 0.466345,0.42391 0.932914,0.848035 1.401033,1.270652 -0.662726,0.315938 -1.236128,0.615929 -2.004357,0.694374 -0.860214,0.08793 -1.762541,0.0037 -2.605023,-0.171115 -0.164751,-0.03427 -0.239823,0.233613 -0.07603,0.279949 1.022682,0.290292 2.017658,0.543517 3.091317,0.366798 0.587366,-0.09677 1.561729,-0.347833 1.878462,-0.914196 0.850462,0.764632 1.709789,1.519782 2.598818,2.241312 0.532619,0.432529 1.076319,0.852129 1.623123,1.267633 -0.976853,-0.23295 -2.014606,-0.218943 -3.07253,-0.385963 C 20.116063,20.161632 19.159211,19.804747 18.177757,19.542901 16.83568,19.185154 15.459471,18.95154 14.229239,18.290569 12.089123,17.140819 10.863745,14.990238 9.9897215,12.848493 9.0695304,10.593821 8.2511638,8.0635094 8.0462285,5.6043172 c 1.1776796,0.8700164 2.6566435,1.3549155 4.0248965,1.8473572 1.995336,0.7185129 3.953769,1.5131007 5.748893,2.6391446 3.871737,2.428805 5.718726,5.934302 6.620609,10.164345 -1.413446,-1.082295 -2.788103,-2.210277 -4.125968,-3.380716 0.0142,-0.02284 0.02615,-0.04892 0.03325,-0.08039 0.353083,-1.593054 0.04986,-3.234815 -0.604211,-4.711494 z m 6.896561,4.602661 C 25.750119,14.543053 25.411664,12.152393 25.865819,9.8720752 26.693894,5.714012 30.02592,3.6162313 32.935264,0.89842623 c 0.460363,1.65318247 1.368895,2.94172067 2.227115,4.44964887 1.096267,1.9260189 1.292204,4.0457818 0.81965,6.1827859 -0.889027,4.019058 -3.611744,7.807736 -7.684738,9.16804 0.343998,-1.09501 0.680237,-2.193899 0.999852,-3.296668 1.846988,-0.172839 3.605761,-1.24479 4.464202,-2.841507 0.02704,-0.05 -0.05275,-0.09051 -0.08645,-0.04763 -0.967269,1.23854 -2.637604,2.218899 -4.240337,2.4176 0.354857,-1.246299 0.684668,-2.4982 0.97281,-3.756567 0.0086,-0.03836 0.01529,-0.07694 0.02371,-0.115298 0.04544,0.01014 0.09421,0.01271 0.148061,-0.006 1.930549,-0.668298 3.911191,-2.032265 4.381749,-4.0959953 0.0066,-0.029095 -0.03701,-0.043749 -0.05386,-0.021121 -0.588252,0.7838125 -1.112448,1.5598673 -1.872478,2.2059683 -0.744735,0.632955 -1.588326,1.033373 -2.493533,1.385733 0.220096,-1.064839 0.392981,-2.136789 0.540377,-3.2132644 1.533356,-0.2902928 3.196376,-2.3682468 3.204356,-3.8319954 0,-0.020043 -0.02615,-0.03556 -0.04035,-0.01595 -0.44816,0.612522 -0.744059,1.3006473 -1.245426,1.8857589 -0.496713,0.5795082 -1.13949,1.1697919 -1.85785,1.5077127 0.275066,-2.0803228 0.496047,-4.1699142 0.899003,-6.2325677 0.0204,-0.1043559 -0.142512,-0.1427162 -0.182408,-0.046814 -0.7884,1.8923992 -1.018027,3.9595778 -1.23901,6.0217994 -0.722348,-1.0394081 -1.171628,-2.221484 -1.3966,-3.4647652 -0.03546,-0.1943907 -0.316512,-0.1491334 -0.307647,0.042456 0.0696,1.5161177 0.658958,2.8408615 1.641521,4.002033 -0.124565,1.1463007 -0.26243,2.2863527 -0.508458,3.3886897 -0.0062,0.02693 -0.01285,0.05366 -0.01906,0.0806 -1.097819,-1.309875 -1.945177,-2.575353 -2.469596,-4.2503024 -0.04389,-0.1400818 -0.265533,-0.068532 -0.248245,0.068317 0.219431,1.7480064 1.132176,3.6309244 2.587291,4.7401574 -0.292796,1.202981 -0.645881,2.393245 -1.001403,3.582864 -0.981012,-1.223669 -1.709123,-2.552077 -2.335721,-3.993628 -0.09664,-0.222406 -0.446176,-0.07457 -0.35397,0.149565 0.663833,1.611373 1.335203,3.056804 2.54163,4.339738 -0.280162,0.938549 -0.55567,1.87796 -0.800369,2.823837 -0.171555,-1.189188 -0.814111,-2.236139 -1.308827,-3.426405 z m 21.258207,10.589118 c -1.343184,-1.266988 -2.906241,-1.806626 -4.476614,-2.746037 -1.391059,-0.832302 -2.702546,-1.384872 -4.299518,-1.750378 -3.503802,-0.802131 -6.952415,-0.533821 -10.280895,0.844371 -0.442852,-0.1959 -0.847579,-0.434039 -1.173845,-0.7364 -0.01751,-0.01616 -0.03547,-0.02284 -0.05342,-0.03233 0.173329,-0.544595 0.346435,-1.090052 0.519098,-1.636158 4.043958,-1.049967 6.753155,-4.588868 7.985958,-8.334013 0.613299,-1.86352 0.870631,-3.9059148 0.332693,-5.818141 C 35.773898,4.6545667 33.868618,2.8817757 33.325139,0.39198162 33.289235,0.22668438 33.063815,0.09026612 32.913761,0.2322882 30.068694,2.9240158 26.726693,4.8735253 25.631533,8.8244826 25.155878,10.540164 25.09825,12.348083 25.424515,14.094796 c 0.175766,0.942213 0.461691,1.865892 0.835833,2.750995 0.560546,1.326467 1.396822,2.535913 1.512522,3.974447 -0.148505,0.621318 -0.27972,1.246513 -0.386998,1.876667 -0.01529,-0.0077 -0.03169,-0.01272 -0.0492,-0.01358 C 26.929503,21.93593 26.011659,21.438531 25.295739,20.906004 25.18425,20.823039 25.075199,20.73726 24.964153,20.653642 24.528177,16.715616 22.590535,13.020039 19.357806,10.578304 15.870627,7.9445475 11.313622,7.3542638 7.8864866,4.7435675 7.7009452,4.6021927 7.373838,4.7657655 7.4296931,5.0060594 c 1.005105,4.3242219 1.6529141,9.7540126 5.3289599,12.8698666 1.767039,1.4978 4.137758,1.782273 6.316109,2.383548 1.816845,0.501709 3.953969,0.35193 5.755963,0.92648 0.05253,0.03922 0.104175,0.07953 0.156927,0.118531 0.56919,0.422618 1.55131,0.967859 2.093903,1.644347 -1.026227,0.441581 -2.066419,0.595457 -3.129662,0.657307 -2.757737,-3.415629 -8.351011,-3.5514 -12.418708,-3.289339 -4.9419398,0.318525 -8.2374827,3.182662 -11.48616944,6.533638 -0.1303952,0.134478 0.006406,0.318956 0.15306945,0.353005 2.36817029,0.548907 4.40947679,2.044119 6.74111939,2.749917 1.8798362,0.569165 3.8771686,0.82519 5.8322536,0.523691 4.165288,-0.642007 8.238503,-3.566269 11.273964,-6.359936 1.027337,-0.05948 2.011895,-0.225424 2.916882,-0.743511 -0.142963,0.274344 -0.286591,0.54912 -0.4331,0.824544 -1.328111,1.187248 -3.005538,1.890028 -4.439598,2.94603 -1.288436,0.948893 -2.427926,2.126013 -3.251568,3.482005 -2.044698,3.366493 -1.341854,6.921773 -0.726782,10.571446 0.03192,0.189218 0.283265,0.252796 0.40495,0.10129 1.154561,-1.435084 2.900477,-1.997568 4.359583,-3.057017 1.121315,-0.813985 2.021647,-1.888736 2.681048,-3.085466 1.811968,-3.288478 1.308607,-6.735357 1.165201,-10.290637 0.216771,-0.417444 0.425119,-0.836396 0.625046,-1.257289 0.889249,4.433485 1.918358,8.821498 2.601476,13.297439 0.569855,3.732861 0.834502,7.543307 1.366678,11.291036 0.199039,-0.039 0.397636,-0.07866 0.595789,-0.120686 0.05208,-0.0112 0.104396,-0.02219 0.156482,-0.0334 -0.339785,-3.852039 -1.013371,-7.734895 -1.600294,-11.516891 -0.673364,-4.340169 -1.38175,-8.790251 -2.763279,-12.98732 0.237828,0.167451 0.499816,0.307964 0.774659,0.430806 1.528702,3.065208 3.959953,6.221577 7.710006,6.576956 1.725304,0.163571 3.456371,-0.212065 5.060432,-0.811184 1.028445,-0.384255 2.005911,-0.893936 3.044772,-1.252332 1.168747,-0.40322 2.40554,-0.521535 3.569411,-0.934239 0.128777,-0.04568 0.114592,-0.197838 0.03325,-0.274345"
       style="fill:#6f3718;fill-opacity:1;fill-rule:nonzero;stroke:none;stroke-width:0.0218556"
       id="path24" />
  </g>
</svg>
