<?xml version="1.0" standalone="no"?>
<!DOCTYPE svg PUBLIC "-//W3C//DTD SVG 20010904//EN"
 "http://www.w3.org/TR/2001/REC-SVG-20010904/DTD/svg10.dtd">
<svg version="1.0" xmlns="http://www.w3.org/2000/svg"
 width="1024.000000pt" height="1024.000000pt" viewBox="0 0 1024.000000 1024.000000"
 preserveAspectRatio="xMidYMid meet">

<g transform="translate(0.000000,1024.000000) scale(0.100000,-0.100000)"
fill="#000000" stroke="none">
<path d="M5587 8419 c-61 -14 -112 -45 -151 -91 -68 -79 -66 -48 -66 -995 l0
-853 -1923 0 c-2113 0 -1982 4 -2060 -60 -20 -18 -49 -53 -65 -78 l-27 -47 0
-1190 0 -1190 27 -47 c16 -25 45 -60 65 -77 79 -65 -68 -61 2055 -61 l1928 0
0 -853 c0 -954 -3 -917 70 -999 55 -63 118 -91 200 -91 43 -1 79 6 107 19 29
14 480 457 1611 1584 1449 1445 1571 1569 1586 1614 20 63 20 139 0 202 -15
45 -136 169 -1581 1609 -1022 1019 -1579 1568 -1606 1582 -50 26 -118 35 -170
22z"/>
</g>
</svg>
