<?xml version="1.0" encoding="UTF-8" standalone="no" ?>
<!DOCTYPE svg PUBLIC "-//W3C//DTD SVG 1.1//EN" "http://www.w3.org/Graphics/SVG/1.1/DTD/svg11.dtd">
<svg xmlns="http://www.w3.org/2000/svg" xmlns:xlink="http://www.w3.org/1999/xlink" version="1.1" width="1024" height="768" viewBox="0 0 1024 768" xml:space="preserve">
<desc>Created with Fabric.js 5.3.0</desc>
<defs>
</defs>
<g transform="matrix(-1 0 0 -1 512 384)" id="e4bDELsbnfvo6j6i2sDJk"  >
<g style=""   >
		<g transform="matrix(1 0 0 1 72.37207 -384.00857761)" id="HswNg88K6OpwsH--r1euW"  >
<path style="stroke: none; stroke-width: 1; stroke-dasharray: none; stroke-linecap: butt; stroke-dashoffset: 0; stroke-linejoin: miter; stroke-miterlimit: 4; fill: rgb(249,249,249); fill-rule: nonzero; opacity: 1;"  transform=" translate(-584.37207, 0.00857761)" d="M 151.82784 -0.13018285 L 1016.9163 0.11302763" stroke-linecap="round" />
</g>
		<g transform="matrix(1 0 0 1 -3.9762942 -0.4993144327)" id="SRRvp8gTA9b6wSFGkPR9d"  >
<path style="stroke: none; stroke-width: 2.82843; stroke-dasharray: none; stroke-linecap: butt; stroke-dashoffset: 0; stroke-linejoin: miter; stroke-miterlimit: 4; fill: rgb(249,249,249); fill-rule: nonzero; opacity: 1;"  transform=" translate(-508.0237058, -383.5006855673)" d="M 87.68124 600.59834 C 51.901637 510.16589 18.017481 424.43386 12.383114 410.08273 L 2.1388116 383.98975 L 77.623136 193.4091 L 153.10746 2.8284271 L 583.85538 2.1122366 C 928.12904 1.539824 1014.3234 2.1076366 1013.2091 4.9406637 C 1012.4423 6.8902034 978.57559 92.304452 937.9497 194.75009999999997 C 897.32385 297.19575999999995 864.08448 382.35495 864.08448 383.99278 C 864.08448 385.63061 895.36567 465.88437 933.5982 562.33444 C 971.8307500000001 658.78454 1005.5412 743.86128 1008.5102 751.3938899999999 L 1013.9086000000001 765.08953 L 583.3218200000001 765.0552299999999 L 152.7350600000001 765.0209299999999 z" stroke-linecap="round" />
</g>
</g>
</g>
</svg>