<svg version="1.1" id="Layer_1" xmlns="http://www.w3.org/2000/svg" xmlns:xlink="http://www.w3.org/1999/xlink" x="0px" y="0px"
	 width="100%" viewBox="0 0 149 149" enable-background="new 0 0 149 149" xml:space="preserve">

<path fill="#3CBA4D" opacity="1.000000" stroke="none" 
	d="
M90.625000,1.000000 
	C90.943604,3.839807 93.365784,3.475501 94.983688,3.936423 
	C106.283691,7.155667 116.224968,12.614472 125.089912,20.453627 
	C133.062958,27.504082 138.853424,35.961887 143.647171,45.258156 
	C144.338104,46.598057 146.254501,48.671951 144.480469,49.573929 
	C142.304977,50.680012 141.891663,47.731125 141.007385,46.343552 
	C132.674484,33.268005 121.732933,23.016928 106.940613,18.134317 
	C98.685287,15.409424 90.511139,11.927875 81.362411,10.953415 
	C80.876350,10.745399 80.715446,10.626502 80.283516,10.378254 
	C79.609787,10.261696 79.216408,10.329079 78.531448,10.472771 
	C77.224609,10.503588 76.218620,10.499244 74.912849,10.494689 
	C73.821976,10.431652 73.098000,9.997326 71.993835,10.133446 
	C71.340469,10.338975 70.969154,10.464522 70.326653,10.696251 
	C62.924122,13.087380 55.534821,14.455080 48.792717,18.069975 
	C30.402683,27.930111 19.069464,43.031155 15.135923,63.395004 
	C12.132405,78.944145 15.434717,93.975067 23.387482,107.200150 
	C30.554028,119.117775 41.622772,127.960800 54.814636,132.723221 
	C76.492760,140.549316 96.224327,135.211945 114.013596,121.455414 
	C124.585892,113.279793 130.722443,102.106819 134.700974,89.585518 
	C135.476471,87.144905 135.852005,84.516220 138.245285,81.874329 
	C139.591721,87.507561 138.889465,92.676605 139.190002,97.740692 
	C141.756592,97.687416 140.123566,94.598961 141.944000,94.032547 
	C143.600998,94.568069 143.241379,96.007248 142.970764,96.927536 
	C140.149796,106.521553 137.011948,115.973801 130.576202,123.931946 
	C119.944740,137.078323 106.290268,145.086395 89.729576,148.263916 
	C89.331520,148.340286 89.026443,148.901184 88.838997,149.618042 
	C86.629440,150.000000 84.258888,150.000000 81.444168,150.000000 
	C77.595940,148.930450 74.110664,149.720444 70.333694,149.774368 
	C68.611107,150.000000 67.222221,150.000000 65.416664,150.000000 
	C64.619179,149.708694 64.508942,149.301041 64.504593,148.847855 
	C64.461823,149.081177 64.466629,149.319458 64.215416,149.776764 
	C63.555553,150.000000 63.111111,150.000000 62.333332,150.000000 
	C61.126652,149.046432 59.944065,149.054337 58.788250,148.946136 
	C40.444592,147.228867 27.289665,136.723358 15.927221,123.377785 
	C7.175983,113.099152 2.379735,101.114761 1.248771,87.303284 
	C1.000000,85.933327 1.000000,84.866661 1.000000,83.399994 
	C2.791702,78.255310 2.111224,73.425499 1.247958,68.298965 
	C1.000000,67.250000 1.000000,66.500000 1.000000,65.375000 
	C2.717290,63.203842 1.893157,60.890160 2.160972,58.832623 
	C4.724715,39.136120 15.391113,24.556044 30.760126,12.805148 
	C39.554577,6.081056 49.595051,2.847816 60.697968,1.248310 
	C63.041668,1.000000 65.083336,1.000000 67.562500,1.000000 
	C73.073982,2.902947 78.238075,2.023612 83.695343,1.249221 
	C84.444443,1.000000 84.888893,1.000000 85.666672,1.000000 
	C86.423256,1.518501 86.935501,1.714774 87.789459,1.218006 
	C88.750000,1.000000 89.500000,1.000000 90.625000,1.000000 
z"/>
<path fill="#51C45F" opacity="1.000000" stroke="none" 
	d="
M150.000000,75.533882 
	C149.407867,75.297440 147.883148,75.921898 147.917007,74.173027 
	C147.988617,70.476517 148.443344,66.762840 147.085220,63.100876 
	C146.553711,61.667774 147.420883,60.497940 149.643890,61.247528 
	C150.000000,65.689255 150.000000,70.378510 150.000000,75.533882 
z"/>
<path fill="#54C262" opacity="1.000000" stroke="none" 
	d="
M1.000000,68.466118 
	C4.218025,72.699440 3.670112,77.519829 1.231132,82.696762 
	C1.000000,78.310745 1.000000,73.621490 1.000000,68.466118 
z"/>
<path fill="#3CBA4D" opacity="1.000000" stroke="none" 
	d="
M61.528591,99.410149 
	C53.642109,90.701477 45.489765,82.632568 40.178204,71.713715 
	C43.994358,71.294823 47.635754,76.538811 49.592793,70.486740 
	C52.266846,71.664223 55.171680,72.423561 57.250866,74.683113 
	C61.043495,78.804756 64.876167,82.890869 68.601135,87.072853 
	C70.249901,88.923889 71.298737,88.896225 73.396370,87.248055 
	C78.315880,83.382675 81.830910,78.338837 86.018524,73.864426 
	C94.930824,64.341774 104.387253,55.327118 113.682289,46.166786 
	C114.296577,45.561409 115.430382,45.483189 116.414322,45.126499 
	C115.535118,51.703556 112.550072,57.416431 110.598625,63.433144 
	C109.597099,66.521072 105.675385,67.804970 103.596977,70.686600 
	C97.000763,79.831963 90.051880,88.739632 82.895981,97.457352 
	C79.496628,101.598625 75.329147,105.111374 71.487190,108.886002 
	C70.472336,109.883087 69.838486,110.628029 68.631706,108.592552 
	C66.732841,105.389748 64.113472,102.614098 61.528591,99.410149 
z"/>
<path fill="#31B945" opacity="1.000000" stroke="none" 
	d="
M145.296753,53.126080 
	C145.231079,52.478672 144.727249,51.548187 145.683945,51.807434 
	C146.110611,51.923050 146.052765,52.874359 145.296753,53.126080 
z"/>
<path fill="#2DB642" opacity="1.000000" stroke="none" 
	d="
M73.663307,9.741897 
	C73.173210,9.906548 72.449570,9.960862 71.362709,10.008106 
	C71.753807,9.511037 72.542015,9.243943 73.663307,9.741897 
z"/>
<path fill="#2DB642" opacity="1.000000" stroke="none" 
	d="
M80.816689,9.911650 
	C80.569656,9.998146 80.140854,9.989115 79.393402,9.936035 
	C79.594810,9.866699 80.114868,9.841410 80.816689,9.911650 
z"/>
</svg>
