<?xml version="1.0" encoding="UTF-8" standalone="no"?>
<svg
   version="1.1"
   width="1024"
   height="768"
   viewBox="0 0 1024 768"
   xml:space="preserve"
   id="svg2"
   sodipodi:docname="EndBlock.svg"
   inkscape:version="1.3.2 (091e20e, 2023-11-25)"
   xmlns:inkscape="http://www.inkscape.org/namespaces/inkscape"
   xmlns:sodipodi="http://sodipodi.sourceforge.net/DTD/sodipodi-0.dtd"
   xmlns="http://www.w3.org/2000/svg"
   xmlns:svg="http://www.w3.org/2000/svg"><sodipodi:namedview
   id="namedview2"
   pagecolor="#505050"
   bordercolor="#ffffff"
   borderopacity="1"
   inkscape:showpageshadow="0"
   inkscape:pageopacity="0"
   inkscape:pagecheckerboard="1"
   inkscape:deskcolor="#505050"
   inkscape:zoom="0.6953125"
   inkscape:cx="511.2809"
   inkscape:cy="384"
   inkscape:window-width="1364"
   inkscape:window-height="740"
   inkscape:window-x="0"
   inkscape:window-y="26"
   inkscape:window-maximized="1"
   inkscape:current-layer="svg2" />
<desc
   id="desc1">Created with Fabric.js 5.3.0</desc>
<defs
   id="defs1">
</defs>
<g
   transform="matrix(-1 0 0 -1 512 384)"
   id="e4bDELsbnfvo6j6i2sDJk">
<g
   style=""
   id="g2">
		<g
   transform="matrix(1 0 0 1 72.37207 -384.00857761)"
   id="HswNg88K6OpwsH--r1euW">
<path
   style="stroke: none; stroke-width: 1; stroke-dasharray: none; stroke-linecap: butt; stroke-dashoffset: 0; stroke-linejoin: miter; stroke-miterlimit: 4; fill: rgb(249,249,249); fill-rule: nonzero; opacity: 1;"
   transform=" translate(-584.37207, 0.00857761)"
   d="M 151.82784 -0.13018285 L 1016.9163 0.11302763"
   stroke-linecap="round"
   id="path1" />
</g>
		<g
   transform="matrix(1 0 0 1 -3.9762942 -0.4993144327)"
   id="SRRvp8gTA9b6wSFGkPR9d">
<path
   style="opacity:1;fill:#f9f9f9;fill-rule:nonzero;stroke:none;stroke-width:2.82843;stroke-linecap:butt;stroke-linejoin:miter;stroke-miterlimit:4;stroke-dasharray:none;stroke-dashoffset:0"
   transform="translate(-508.02371,-383.50069)"
   d="M 2.1390042,383.98975 V 2.8284271 L 583.85538,2.1122366 c 344.27388,-0.4238589 430.46802,-0.0046 429.35372,2.8284271 -0.7668,1.9495397 -34.63351,87.3637883 -75.2594,189.8094363 -40.62585,102.44566 -73.86522,187.60485 -73.86522,189.24268 0,1.63783 31.28119,81.89159 69.51372,178.34166 38.23255,96.4501 71.943,181.52684 74.912,189.05945 l 5.3984,13.69564 -430.58678,-0.0343 -581.1828158,-0.0343 c 0,-135.69344 0,-243.14865 0,-381.03118 z"
   stroke-linecap="round"
   id="path2"
   sodipodi:nodetypes="ccsssssccccc" />
</g>
</g>
</g>
</svg>
