<?xml version="1.0" standalone="no"?>
<!DOCTYPE svg PUBLIC "-//W3C//DTD SVG 20010904//EN"
 "http://www.w3.org/TR/2001/REC-SVG-20010904/DTD/svg10.dtd">
<svg version="1.0" xmlns="http://www.w3.org/2000/svg"
 width="612.000000pt" height="612.000000pt" viewBox="0 0 612.000000 612.000000"
 preserveAspectRatio="xMidYMid meet">

<g transform="translate(0.000000,612.000000) scale(0.100000,-0.100000)"
fill="#000000" stroke="none">
<path d="M677 4935 c-53 -68 -97 -126 -97 -128 0 -3 93 -78 208 -168 236 -186
693 -545 922 -724 85 -67 380 -298 655 -514 275 -216 660 -519 855 -672 547
-430 1291 -1015 1545 -1214 126 -99 241 -189 256 -200 15 -11 91 -71 169 -133
78 -61 147 -112 153 -112 11 1 197 231 197 243 0 3 -145 119 -322 258 -178
139 -534 420 -793 623 -258 203 -491 386 -516 405 -26 20 -210 165 -410 322
-630 495 -1312 1031 -1373 1078 -33 25 -134 105 -225 177 -141 111 -1086 852
-1116 875 -7 5 -48 -40 -108 -116z"/>
<path d="M2710 4634 c-269 -32 -534 -98 -765 -189 -92 -37 -96 -42 -60 -68 16
-12 125 -97 242 -189 117 -93 215 -168 217 -168 2 0 28 16 57 36 125 84 296
153 448 179 110 20 326 19 430 0 365 -70 685 -313 854 -650 133 -267 154 -621
53 -914 -14 -41 -26 -76 -26 -77 0 -3 183 -148 276 -220 28 -21 133 -104 233
-182 l182 -144 57 43 c161 120 388 339 529 509 85 103 184 246 258 370 l54 93
-26 46 c-121 214 -313 462 -502 651 -493 491 -1125 795 -1821 874 -167 20
-529 19 -690 0z"/>
<path d="M1195 4023 c-309 -240 -607 -578 -783 -891 l-41 -72 46 -77 c394
-667 1025 -1160 1773 -1386 565 -171 1223 -166 1785 13 130 42 285 101 285
109 -1 6 -467 374 -482 380 -5 1 -33 -13 -62 -32 -122 -81 -287 -148 -441
-178 -91 -18 -339 -18 -430 0 -497 98 -868 473 -960 970 -36 197 -7 471 69
652 6 13 -68 76 -338 288 -189 149 -348 271 -353 271 -4 -1 -35 -22 -68 -47z"/>
<path d="M2910 3806 c-67 -15 -147 -42 -179 -60 -24 -13 -22 -15 110 -119 74
-58 318 -250 544 -427 l409 -322 9 28 c17 55 13 264 -7 339 -40 155 -143 315
-264 410 -69 55 -195 119 -277 141 -80 21 -274 27 -345 10z"/>
<path d="M2313 3193 c-15 -89 -8 -242 16 -328 120 -434 579 -667 1004 -508 37
13 67 28 67 33 0 4 -62 56 -137 116 -76 59 -199 156 -273 214 -263 208 -645
506 -657 513 -8 5 -14 -8 -20 -40z"/>
</g>
</svg>
