<?xml version="1.0" encoding="UTF-8" standalone="no"?>
<svg
   version="1.1"
   width="1024"
   height="768"
   viewBox="0 0 1024 768"
   xml:space="preserve"
   id="svg2"
   sodipodi:docname="StartBlock.svg"
   inkscape:version="1.3.2 (091e20e, 2023-11-25)"
   xmlns:inkscape="http://www.inkscape.org/namespaces/inkscape"
   xmlns:sodipodi="http://sodipodi.sourceforge.net/DTD/sodipodi-0.dtd"
   xmlns="http://www.w3.org/2000/svg"
   xmlns:svg="http://www.w3.org/2000/svg"><sodipodi:namedview
   id="namedview2"
   pagecolor="#505050"
   bordercolor="#ffffff"
   borderopacity="1"
   inkscape:showpageshadow="0"
   inkscape:pageopacity="0"
   inkscape:pagecheckerboard="1"
   inkscape:deskcolor="#505050"
   inkscape:zoom="0.49166018"
   inkscape:cx="511.53217"
   inkscape:cy="378.31007"
   inkscape:window-width="1364"
   inkscape:window-height="740"
   inkscape:window-x="0"
   inkscape:window-y="26"
   inkscape:window-maximized="1"
   inkscape:current-layer="svg2" />
<desc
   id="desc1">Created with Fabric.js 5.3.0</desc>
<defs
   id="defs1">
</defs>
<g
   transform="matrix(-1 0 0 -1 512 384)"
   id="e4bDELsbnfvo6j6i2sDJk">
<g
   style=""
   id="g2">
		<g
   transform="matrix(1 0 0 1 72.37207 -384.00857761)"
   id="HswNg88K6OpwsH--r1euW">
<path
   style="stroke: none; stroke-width: 1; stroke-dasharray: none; stroke-linecap: butt; stroke-dashoffset: 0; stroke-linejoin: miter; stroke-miterlimit: 4; fill: rgb(249,249,249); fill-rule: nonzero; opacity: 1;"
   transform=" translate(-584.37207, 0.00857761)"
   d="M 151.82784 -0.13018285 L 1016.9163 0.11302763"
   stroke-linecap="round"
   id="path1" />
</g>
		<g
   transform="matrix(1 0 0 1 -3.9762942 -0.4993144327)"
   id="SRRvp8gTA9b6wSFGkPR9d">
<path
   style="opacity:1;fill:#f9f9f9;fill-rule:nonzero;stroke:none;stroke-width:2.82843;stroke-linecap:butt;stroke-linejoin:miter;stroke-miterlimit:4;stroke-dasharray:none;stroke-dashoffset:0"
   transform="translate(-508.02371,-383.50069)"
   d="M 87.68124,600.59834 C 51.901637,510.16589 18.017481,424.43386 12.383114,410.08273 L 2.1388116,383.98975 77.623136,193.4091 153.10746,2.8284271 583.85538,2.1122366 C 928.12904,1.539824 1013.2091,1.8963728 1013.2091,4.9406637 c 0,343.5224363 -4.6989,414.6499763 -4.6989,746.4532263 l 5.3984,13.69564 -430.58678,-0.0343 -430.58676,-0.0343 z"
   stroke-linecap="round"
   id="path2"
   sodipodi:nodetypes="sscccssccccs" />
</g>
</g>
</g>
</svg>
