<svg version="1.1" id="Layer_1" xmlns="http://www.w3.org/2000/svg" xmlns:xlink="http://www.w3.org/1999/xlink" x="0px" y="0px"
	 width="100%" viewBox="0 0 148 149" enable-background="new 0 0 148 149" xml:space="preserve">
<path fill="#F44241" opacity="1.000000" stroke="none" 
	d="
M13.630316,80.628891 
	C15.237229,89.177551 17.346949,97.197861 21.303942,104.602631 
	C26.613163,114.537834 34.559032,122.025795 43.974525,127.935112 
	C52.617599,133.359634 62.278458,136.949326 72.361275,136.777588 
	C85.882729,136.547287 98.722504,132.872375 109.977112,124.626427 
	C123.008270,115.078865 130.491394,102.003967 134.861633,86.860504 
	C135.266891,85.456200 135.933533,84.695084 137.005844,84.657318 
	C138.532043,84.603561 139.154419,86.437737 138.854202,87.222069 
	C137.413208,90.986649 140.226273,94.849808 138.059738,98.573570 
	C140.471695,98.281235 139.772537,94.560966 142.942978,95.279709 
	C137.960068,116.467979 126.942368,132.778351 106.970306,142.727631 
	C101.235298,145.584579 94.906464,146.418243 89.660873,149.698547 
	C87.958336,150.000000 85.916664,150.000000 83.437500,150.000000 
	C77.926872,148.105911 72.766174,148.963989 67.307693,149.755249 
	C64.958336,150.000000 62.916668,150.000000 60.437500,150.000000 
	C54.733265,147.573013 48.730434,148.398590 43.384106,145.723007 
	C26.770353,137.408600 14.042179,125.363556 5.612678,108.741188 
	C2.851451,103.296242 2.848160,97.307167 1.242439,91.295486 
	C1.000000,87.969406 1.000000,84.938812 1.000000,81.454109 
	C2.055190,77.263962 1.280271,73.455429 1.224135,69.342117 
	C1.000000,66.299988 1.000000,63.599972 1.000000,60.449982 
	C2.109727,58.980850 1.862800,57.560917 2.122581,56.280952 
	C7.520063,29.687050 24.198784,13.076119 48.907547,3.708754 
	C52.869091,2.206890 57.331062,2.756301 61.705204,1.242374 
	C63.714359,1.000000 65.428719,1.000000 67.571533,1.000000 
	C72.066200,2.092989 76.202347,1.257653 80.650681,1.223078 
	C82.388893,1.000000 83.777779,1.000000 85.583336,1.000000 
	C85.134727,2.721136 86.460075,2.805529 87.529709,2.970787 
	C112.200928,6.782454 128.942764,21.574825 141.515121,42.060173 
	C142.940552,44.382759 144.118103,46.972584 144.770020,49.597572 
	C145.027206,50.633205 146.795258,52.636589 144.637299,53.389858 
	C142.938004,53.983021 142.614395,51.729923 142.430161,50.789547 
	C141.868988,47.925014 140.377151,45.496502 138.656204,43.469906 
	C128.429916,31.427452 117.398972,20.682051 101.134789,16.732420 
	C93.566330,14.894477 86.149651,12.191546 78.393745,11.294580 
	C70.633591,10.397124 63.102528,12.534420 55.904987,15.160762 
	C42.287979,20.129532 31.340273,28.659678 23.450970,40.970741 
	C18.663065,48.442146 16.070570,56.714592 14.023136,65.634506 
	C12.349554,70.722488 12.904721,75.517059 13.630316,80.628891 
z"/>
<path fill="#F55E5D" opacity="1.000000" stroke="none" 
	d="
M147.093445,66.296486 
	C147.597183,65.659401 148.035797,65.365211 148.737213,65.035507 
	C149.000000,66.714188 149.000000,68.428375 149.000000,70.571281 
	C148.835434,71.148811 148.670853,71.297630 148.199646,71.317284 
	C147.306976,70.408310 147.579697,69.481461 147.317261,68.320053 
	C147.129929,67.557953 147.079117,67.098671 147.093445,66.296486 
z"/>
<path fill="#F44141" opacity="1.000000" stroke="none" 
	d="
M46.776020,58.284317 
	C44.747597,56.093189 42.386101,54.617035 41.481506,52.000854 
	C40.756363,49.903687 40.343105,48.040211 43.902817,48.782791 
	C45.280701,49.070225 47.657288,50.207653 48.070358,47.030666 
	C48.279846,45.419472 49.297787,46.410397 50.242981,46.682480 
	C58.221291,48.979088 62.831097,55.525272 68.389763,60.872471 
	C69.709335,62.141846 70.961578,63.480972 72.270782,64.761436 
	C73.842995,66.299141 74.569550,66.195694 76.421463,64.316422 
	C83.101906,57.537300 89.328178,50.249836 96.984909,44.463928 
	C98.395851,43.397728 99.410133,41.990143 101.598366,42.810463 
	C104.664024,43.959694 101.465263,45.509808 102.009026,46.829315 
	C102.368111,47.700695 102.008713,49.345955 102.510101,49.606239 
	C107.027336,51.951210 103.833839,54.776592 102.635361,56.724960 
	C98.777466,62.996738 92.880890,67.522049 87.703453,72.631470 
	C85.149651,75.151718 84.701393,76.543259 87.569847,79.212463 
	C94.494957,85.656548 101.058083,92.489632 108.533524,99.928497 
	C102.560120,99.093109 97.071106,99.504433 92.880943,97.368156 
	C89.500809,95.644852 86.684410,92.091232 83.300934,89.623993 
	C76.737488,84.837921 76.880936,84.612038 71.246086,90.222488 
	C65.536568,95.907288 59.865757,101.630997 54.145767,107.305168 
	C53.484303,107.961327 52.825657,109.247742 51.767513,108.701797 
	C50.431648,108.012573 51.267063,106.905846 51.593784,105.782410 
	C52.136162,103.917404 52.292454,101.920685 52.449127,99.966438 
	C53.003464,93.051956 58.156662,88.705475 61.928841,83.781158 
	C66.531670,77.772499 66.893486,78.163849 61.798248,73.250443 
	C56.797619,68.428276 51.944027,63.453636 46.776020,58.284317 
z"/>
<path fill="#F43434" opacity="1.000000" stroke="none" 
	d="
M13.907500,80.490639 
	C10.654014,76.233604 11.553981,71.345062 13.530262,66.205780 
	C13.882201,70.669891 13.926836,75.351883 13.907500,80.490639 
z"/>
</svg>
