<?xml version="1.0" standalone="no"?>
<!DOCTYPE svg PUBLIC "-//W3C//DTD SVG 20010904//EN"
 "http://www.w3.org/TR/2001/REC-SVG-20010904/DTD/svg10.dtd">
<svg version="1.0" xmlns="http://www.w3.org/2000/svg"
 width="612.000000pt" height="612.000000pt" viewBox="0 0 612.000000 612.000000"
 preserveAspectRatio="xMidYMid meet">

<g transform="translate(0.000000,612.000000) scale(0.100000,-0.100000)"
fill="#000000" stroke="none">
<path d="M2805 4604 c-415 -44 -750 -140 -1096 -315 -479 -242 -907 -632
-1182 -1076 -97 -158 -94 -144 -51 -221 151 -273 434 -602 699 -815 332 -267
736 -471 1130 -572 294 -76 516 -100 838 -92 471 12 869 113 1289 329 495 254
932 666 1203 1136 l48 82 -48 83 c-164 283 -430 592 -690 801 -423 339 -912
555 -1445 637 -105 16 -193 22 -395 24 -143 2 -278 1 -300 -1z m456 -399 c361
-63 674 -298 842 -631 133 -263 155 -600 59 -884 -131 -384 -424 -652 -832
-761 -97 -26 -326 -36 -439 -20 -491 72 -891 461 -976 950 -19 108 -19 295 0
402 85 478 462 857 940 944 97 18 305 18 406 0z"/>
<path d="M2938 3790 c-276 -50 -494 -242 -585 -515 -23 -71 -26 -95 -26 -215
0 -120 3 -144 26 -215 65 -195 196 -352 362 -436 133 -68 197 -83 345 -83 145
-1 221 18 355 87 111 57 235 181 292 292 69 134 88 210 88 355 0 103 -4 138
-24 200 -78 253 -256 432 -506 510 -79 24 -249 35 -327 20z"/>
</g>
</svg>
