<?xml version="1.0" encoding="utf-8"?>
<!-- Svg Vector Icons : http://www.onlinewebfonts.com/icon -->
<!DOCTYPE svg PUBLIC "-//W3C//DTD SVG 1.1//EN" "http://www.w3.org/Graphics/SVG/1.1/DTD/svg11.dtd">
<svg version="1.1" xmlns="http://www.w3.org/2000/svg" xmlns:xlink="http://www.w3.org/1999/xlink" x="0px" y="0px" viewBox="0 0 256 256" enable-background="new 0 0 256 256" xml:space="preserve">
<metadata> Svg Vector Icons : http://www.onlinewebfonts.com/icon </metadata>
<g><g><g><path fill="#FFFFFF" d="M230.2,68.8c-10.5-18.1-24.9-32.4-42.9-42.9C169.2,15.3,149.4,10,128,10c-21.4,0-41.2,5.3-59.2,15.8C50.7,36.4,36.4,50.7,25.8,68.8C15.3,86.8,10,106.6,10,128c0,21.4,5.3,41.2,15.8,59.2c10.5,18.1,24.9,32.4,42.9,42.9C86.8,240.7,106.6,246,128,246c21.4,0,41.2-5.3,59.2-15.8c18.1-10.5,32.4-24.9,42.9-42.9c10.5-18.1,15.8-37.8,15.8-59.2C246,106.6,240.7,86.8,230.2,68.8z M187,136.5l-83.6,49.2c-1.5,0.9-3.2,1.4-4.9,1.4c-1.6,0-3.3-0.4-4.9-1.2c-3.3-1.9-4.9-4.8-4.9-8.6V78.8c0-3.8,1.6-6.6,4.9-8.6c3.4-1.9,6.6-1.8,9.8,0.1l83.6,49.2c3.3,1.9,4.9,4.7,4.9,8.5C191.9,131.8,190.3,134.6,187,136.5z"/></g><g></g><g></g><g></g><g></g><g></g><g></g><g></g><g></g><g></g><g></g><g></g><g></g><g></g><g></g><g></g></g></g>
</svg>
