<?xml version="1.0" encoding="utf-8"?>
<!-- Svg Vector Icons : http://www.onlinewebfonts.com/icon -->
<!DOCTYPE svg PUBLIC "-//W3C//DTD SVG 1.1//EN" "http://www.w3.org/Graphics/SVG/1.1/DTD/svg11.dtd">
<svg version="1.1" xmlns="http://www.w3.org/2000/svg" xmlns:xlink="http://www.w3.org/1999/xlink" x="0px" y="0px" viewBox="0 0 256 256" enable-background="new 0 0 256 256" xml:space="preserve">
<metadata> Svg Vector Icons : http://www.onlinewebfonts.com/icon </metadata>
<g><g><g><path fill="#FFFFFF" d="M34.7,2.9C23.2,5.4,13.2,15.4,10.8,27c-1.1,5.2-1.1,149.7,0,154.9c2.3,10.8,11,20.2,21.9,23.6c1.9,0.6,5.4,0.9,11.2,1.2c9.1,0.3,9.8,0.5,12.1,3.7c0.9,1.2,1,2.2,1.3,13.2c0.2,10.5,0.3,12.2,1.3,14.5c1.6,4.1,3.3,6.6,6.1,9.3c7.5,7,18.3,8.5,27.2,3.7c1.3-0.7,14.1-10.1,28.3-20.7c14.2-10.7,26.9-20,28.3-20.7c5.2-2.9,5.6-2.9,38.8-2.9c34.3,0,34.5,0,41.5-3.5c8.2-4,14.7-12.4,16.5-21.4c0.6-3.1,0.7-13.1,0.6-73.4c-0.1-69.6-0.1-69.8-1.2-71.1c-1.9-2.6-3.5-3.4-6.6-3.4s-4.7,0.8-6.6,3.4c-1,1.3-1,1.6-1.3,70l-0.2,68.7l-1.6,3.3c-2.2,4.6-4.9,7.4-9.4,9.6l-3.7,1.8l-31.2,0.2c-28.6,0.2-31.6,0.3-34.6,1.2c-6.8,1.9-10.5,4.3-38.2,25.1c-16.6,12.4-27.5,20.3-28.5,20.6c-3.3,0.9-7.2-0.8-9-3.8c-0.4-0.7-0.7-5.2-0.8-14.6l-0.2-13.5l-1.8-3.7c-2.2-4.5-5.1-7.3-9.6-9.4c-3.1-1.5-3.5-1.5-11.9-1.8c-8.4-0.3-8.8-0.3-11.9-1.8c-4.5-2.1-7.4-4.9-9.6-9.4L26,176v-71.5V32.9l1.6-3.3c2.2-4.6,4.9-7.4,9.4-9.6l3.7-1.8l68.7-0.2c68.4-0.2,68.7-0.2,70.1-1.3c2.6-1.9,3.4-3.5,3.4-6.6s-0.8-4.7-3.4-6.6c-1.3-1-1.5-1-71.5-1.1C49.5,2.2,37.3,2.3,34.7,2.9z"/><path fill="#FFFFFF" d="M203.5,2.8c-5,2.2-6.1,8.8-2.3,12.6c5.5,5.6,14.6,0.6,13.1-7.2C213.5,3.7,208,0.9,203.5,2.8z"/><path fill="#FFFFFF" d="M121.5,49.8C103.1,53.2,89.2,69,89,86.8c0,5.2,0.4,6.3,3.3,8.5c1.9,1.4,6.5,1.4,8.5,0c2.6-1.9,3.2-3.3,3.7-7.7c1.1-11.1,7.7-19.1,18-21.7c16.7-4.4,32.8,11.7,28.4,28.4c-1.9,7.4-6,12.1-14.1,16.4c-7,3.6-10.8,7.3-13.7,13.1c-2.2,4.5-3.4,10.4-2.8,13.9c0.5,2.5,3.4,5.5,5.9,5.9c5.1,1,9.7-2.7,9.7-7.7c0-4.5,3.1-8.9,7.8-11.1c11.7-5.5,19.2-14.4,22.6-27c1.1-4,1.1-14.2,0-18.2c-1.4-5.2-2.9-8.5-5.3-12.2c-5.5-8.5-13.3-14.1-23.6-16.9C134.2,49.6,124.9,49.2,121.5,49.8z"/><path fill="#FFFFFF" d="M124.9,160.1c-5,2.2-6.1,8.8-2.3,12.6c3.2,3.2,7.7,3.2,10.9,0C139.6,166.7,132.8,156.7,124.9,160.1z"/></g></g></g>
</svg>